{
.appVersion = "1286";
copyright = "© Henrik Kongsvoll 2020";
customParameters = (
{
name = Axes;
value = (
{
Name = Weight;
Tag = wght;
}
);
}
);
date = "2020-03-14 22:14:38 +0000";
designer = "Henrik Kongsvoll";
designerURL = "https://henrikkongsvoll.no";
familyName = "S10 Beehome Display";
fontMaster = (
{
alignmentZones = (
"{1628, 0}",
"{1440, 24}",
"{1360, 24}",
"{1024, 24}",
"{0, -24}",
"{-420, 0}"
);
ascender = 1628;
capHeight = 1440;
custom = Display;
descender = -420;
guideLines = (
{
position = "{760, 720}";
}
);
iconName = Light;
id = "4B6FBC9C-F998-43BC-A943-BECCA28E0CA2";
userData = {
GSOffsetHorizontal = -25;
GSOffsetProportional = 1;
GSOffsetVertical = 10;
};
visible = 1;
xHeight = 1024;
}
);
glyphs = (
{
color = 6;
glyphname = A;
lastChange = "2020-04-28 08:54:12 +0000";
layers = (
{
anchors = (
{
name = bottom;
position = "{695, 0}";
},
{
name = ogonek;
position = "{1251, 10}";
},
{
name = top;
position = "{695, 1440}";
}
);
background = {
paths = (
{
closed = 1;
nodes = (
"489 414 OFFCURVE",
"426 426 OFFCURVE",
"385 467 CURVE SMOOTH",
"368 484 OFFCURVE",
"355 489 OFFCURVE",
"343 489 CURVE SMOOTH",
"319 489 OFFCURVE",
"299 469 OFFCURVE",
"299 445 CURVE SMOOTH",
"299 438 OFFCURVE",
"301 425 OFFCURVE",
"311 407 CURVE SMOOTH",
"344 347 OFFCURVE",
"317 268 OFFCURVE",
"289 194 CURVE SMOOTH",
"215 0 LINE",
"10 0 LINE",
"586 1440 LINE",
"804 1440 LINE",
"1380 0 LINE",
"1175 0 LINE",
"1101 194 LINE SMOOTH",
"1073 268 OFFCURVE",
"1046 347 OFFCURVE",
"1079 407 CURVE SMOOTH",
"1089 425 OFFCURVE",
"1091 438 OFFCURVE",
"1091 445 CURVE SMOOTH",
"1091 469 OFFCURVE",
"1071 489 OFFCURVE",
"1047 489 CURVE SMOOTH",
"1035 489 OFFCURVE",
"1022 484 OFFCURVE",
"1005 467 CURVE SMOOTH",
"964 426 OFFCURVE",
"901 414 OFFCURVE",
"797 414 CURVE SMOOTH",
"593 414 LINE"
);
},
{
closed = 1;
nodes = (
"844 574 OFFCURVE",
"906 550 OFFCURVE",
"943 520 CURVE SMOOTH",
"955 510 OFFCURVE",
"968 498 OFFCURVE",
"987 498 CURVE SMOOTH",
"1012 498 OFFCURVE",
"1031 516 OFFCURVE",
"1031 541 CURVE SMOOTH",
"1031 554 OFFCURVE",
"1026 572 OFFCURVE",
"1000 592 CURVE SMOOTH",
"950 630 OFFCURVE",
"904 710 OFFCURVE",
"871 797 CURVE SMOOTH",
"775 1048 LINE SMOOTH",
"723 1183 OFFCURVE",
"723 1242 OFFCURVE",
"750 1280 CURVE SMOOTH",
"759 1294 OFFCURVE",
"765 1308 OFFCURVE",
"765 1325 CURVE SMOOTH",
"765 1364 OFFCURVE",
"734 1395 OFFCURVE",
"695 1395 CURVE SMOOTH",
"657 1395 OFFCURVE",
"625 1364 OFFCURVE",
"625 1325 CURVE SMOOTH",
"625 1308 OFFCURVE",
"631 1294 OFFCURVE",
"639 1282 CURVE SMOOTH",
"666 1242 OFFCURVE",
"667 1183 OFFCURVE",
"615 1048 CURVE SMOOTH",
"519 797 LINE SMOOTH",
"486 710 OFFCURVE",
"441 629 OFFCURVE",
"390 592 CURVE SMOOTH",
"364 572 OFFCURVE",
"359 554 OFFCURVE",
"359 541 CURVE SMOOTH",
"359 516 OFFCURVE",
"378 498 OFFCURVE",
"403 498 CURVE SMOOTH",
"422 498 OFFCURVE",
"435 510 OFFCURVE",
"447 520 CURVE SMOOTH",
"484 550 OFFCURVE",
"546 574 OFFCURVE",
"657 574 CURVE SMOOTH",
"733 574 LINE"
);
}
);
};
layerId = "4B6FBC9C-F998-43BC-A943-BECCA28E0CA2";
paths = (
{
closed = 1;
nodes = (
"489 414 OFFCURVE",
"426 426 OFFCURVE",
"385 467 CURVE SMOOTH",
"368 484 OFFCURVE",
"355 489 OFFCURVE",
"343 489 CURVE SMOOTH",
"319 489 OFFCURVE",
"299 469 OFFCURVE",
"299 445 CURVE SMOOTH",
"299 438 OFFCURVE",
"301 425 OFFCURVE",
"311 407 CURVE SMOOTH",
"344 347 OFFCURVE",
"317 268 OFFCURVE",
"289 194 CURVE SMOOTH",
"215 0 LINE",
"10 0 LINE",
"586 1440 LINE",
"804 1440 LINE",
"1380 0 LINE",
"1175 0 LINE",
"1101 194 LINE SMOOTH",
"1073 268 OFFCURVE",
"1046 347 OFFCURVE",
"1079 407 CURVE SMOOTH",
"1089 425 OFFCURVE",
"1091 438 OFFCURVE",
"1091 445 CURVE SMOOTH",
"1091 469 OFFCURVE",
"1071 489 OFFCURVE",
"1047 489 CURVE SMOOTH",
"1035 489 OFFCURVE",
"1022 484 OFFCURVE",
"1005 467 CURVE SMOOTH",
"964 426 OFFCURVE",
"901 414 OFFCURVE",
"797 414 CURVE SMOOTH",
"593 414 LINE"
);
},
{
closed = 1;
nodes = (
"844 574 OFFCURVE",
"906 550 OFFCURVE",
"943 520 CURVE SMOOTH",
"955 510 OFFCURVE",
"968 498 OFFCURVE",
"987 498 CURVE SMOOTH",
"1012 498 OFFCURVE",
"1031 516 OFFCURVE",
"1031 541 CURVE SMOOTH",
"1031 554 OFFCURVE",
"1026 572 OFFCURVE",
"1000 592 CURVE SMOOTH",
"950 630 OFFCURVE",
"904 710 OFFCURVE",
"871 797 CURVE SMOOTH",
"775 1048 LINE SMOOTH",
"723 1183 OFFCURVE",
"723 1242 OFFCURVE",
"750 1280 CURVE SMOOTH",
"759 1294 OFFCURVE",
"765 1308 OFFCURVE",
"765 1325 CURVE SMOOTH",
"765 1364 OFFCURVE",
"734 1395 OFFCURVE",
"695 1395 CURVE SMOOTH",
"657 1395 OFFCURVE",
"625 1364 OFFCURVE",
"625 1325 CURVE SMOOTH",
"625 1308 OFFCURVE",
"631 1294 OFFCURVE",
"639 1282 CURVE SMOOTH",
"666 1242 OFFCURVE",
"667 1183 OFFCURVE",
"615 1048 CURVE SMOOTH",
"519 797 LINE SMOOTH",
"486 710 OFFCURVE",
"441 629 OFFCURVE",
"390 592 CURVE SMOOTH",
"364 572 OFFCURVE",
"359 554 OFFCURVE",
"359 541 CURVE SMOOTH",
"359 516 OFFCURVE",
"378 498 OFFCURVE",
"403 498 CURVE SMOOTH",
"422 498 OFFCURVE",
"435 510 OFFCURVE",
"447 520 CURVE SMOOTH",
"484 550 OFFCURVE",
"546 574 OFFCURVE",
"657 574 CURVE SMOOTH",
"733 574 LINE"
);
}
);
userData = {
LWTimeline = "H4sIAAAAAAAAE+1YS2/cNhD+KwLPisEhh6891m3QAm4NJGl8MIxA3ZXtbXa1hlZuDsb+9w6p1taQCpCmhwaogD1I385w3sMPehK3fbNvj2J1/SR2nz4c2x09Xtta1/LmphZv3n4nVgi1eGiG+1FqvTsc241YDf1jW4vusEnaQqGtZHXx0y8/iFpoJSsImF6rtz9fXr77MaLoK2V9dfn69fmvb94nQWcqjY5BqCqUrkrvE2VNsDJMUssKNT8vQmhKZYJtYJKGIM8hhwnKlb0tJEMgCKcQAknZwm00jty2U0lDyUFgylZhgjJlr3yCeRpDzATXBynJIc2yA5LSja7wCKSJ8WSy5HkWI0jn59IBMhSZA5BQnEngrH2AkBcDQOkqpqrAqKsK/YhrHn86k/DCfplU8p/ikorHGnSlPddPmCn9TziwtiNTllo7s091ikOQ6ys5mRRAgJc3TyUExOd3C46947Pszan+7ChqMhqbbOKMppoZDQWEOncvwYZlN51nWQ+j1JVxRWxIUpaXxlAIDphlQ6PnQpFYS7UKNu92S11MLctSa8kMgOMjFDENxeiPOLJyWaogxNUzwZyKcq7QdyaUstTp+ZkjVtpPeOarp+zlMXntUvSZeqDBirnKVwDmSQ1kJ0t92gAzVSLTLi8oNTDkdR+xskVGnHfTeCZvutE+uVnoU0cbmU1b3HWBT5Wk3olYoU8TlMmGYPIjA+3tGeuBrgdj2Ph72kYxT9Ny0kKcSZ2lpR9hXg7jVa5vyMXMCloz509ce5nn8QbL4osLbyYVceflkqCK8+K05pZvTnS/f9puhnuxAjSqFo/Htv++GRqxehIXV++2+5b+MR5pXsGbM48KFYldXJ3ft+uPD4dtN8wInGrxR9sPV+PJr4g7XPxNIn5r1h/v+sNjt4kmSkpx2+yObJEtNGLSJF9JI6jOp3hZPLO7hdb9p/VYaN1C676K1mEMnO/6RNa4zyOtU7l7s7SO7iPHryhFF3solJGkrGKlXWjdQusK/f8BrQNiUpbPjIvkqogGYzIl6y+Mm/sLaN0/YmYYzJmkZ4hEa46ZvQh8MTNbH/YPh67thpEadE20Jz48NP1w9ns8nA4k55vd9q7bt9GWrMXQN93x9tDvSfQJ6kqmHz0oh3X1Shl5EjkVubY1WYflS9Nfygsl4foLJfnGKUlshjlKwtpwpCTFxl4oCddfKMlCSSbd5MeMZpTEjcITfQPRCksH0j6NGcqOjF9nDXBJU34/+teUxFhzFjx8npK8CHwblIRi69v1od9su7vnr1C75jic3zfd3Vxgpz8BvnhdjjkbAAA=";
};
width = 1390;
}
);
leftKerningGroup = A;
rightKerningGroup = A;
unicode = 0041;
},
{
color = 6;
glyphname = AE;
lastChange = "2020-04-28 08:54:17 +0000";
layers = (
{
layerId = "4B6FBC9C-F998-43BC-A943-BECCA28E0CA2";
paths = (
{
closed = 1;
nodes = (
"205 0 LINE",
"279 194 LINE SMOOTH",
"307 268 OFFCURVE",
"334 347 OFFCURVE",
"301 407 CURVE SMOOTH",
"291 425 OFFCURVE",
"289 438 OFFCURVE",
"289 445 CURVE SMOOTH",
"289 469 OFFCURVE",
"309 489 OFFCURVE",
"333 489 CURVE SMOOTH",
"345 489 OFFCURVE",
"358 484 OFFCURVE",
"375 467 CURVE SMOOTH",
"416 426 OFFCURVE",
"479 414 OFFCURVE",
"583 414 CURVE SMOOTH",
"778 414 LINE SMOOTH",
"887 414 OFFCURVE",
"950 438 OFFCURVE",
"987 468 CURVE SMOOTH",
"999 477 OFFCURVE",
"1012 490 OFFCURVE",
"1031 490 CURVE SMOOTH",
"1056 490 OFFCURVE",
"1075 472 OFFCURVE",
"1075 447 CURVE SMOOTH",
"1075 427 OFFCURVE",
"1063 414 OFFCURVE",
"1053 402 CURVE SMOOTH",
"1019 360 OFFCURVE",
"1000 295 OFFCURVE",
"1000 192 CURVE SMOOTH",
"1000 0 LINE",
"1876 0 LINE",
"1876 160 LINE",
"1410 160 LINE SMOOTH",
"1372 160 OFFCURVE",
"1292 158 OFFCURVE",
"1199 82 CURVE SMOOTH",
"1188 73 OFFCURVE",
"1173 58 OFFCURVE",
"1148 58 CURVE SMOOTH",
"1114 58 OFFCURVE",
"1087 85 OFFCURVE",
"1087 119 CURVE SMOOTH",
"1087 142 OFFCURVE",
"1098 154 OFFCURVE",
"1119 174 CURVE SMOOTH",
"1171 223 OFFCURVE",
"1190 295 OFFCURVE",
"1190 380 CURVE SMOOTH",
"1190 434 LINE SMOOTH",
"1190 534 OFFCURVE",
"1173 601 OFFCURVE",
"1138 643 CURVE SMOOTH",
"1130 653 OFFCURVE",
"1116 668 OFFCURVE",
"1116 688 CURVE SMOOTH",
"1116 713 OFFCURVE",
"1135 731 OFFCURVE",
"1160 731 CURVE SMOOTH",
"1179 731 OFFCURVE",
"1192 719 OFFCURVE",
"1204 709 CURVE SMOOTH",
"1241 679 OFFCURVE",
"1303 655 OFFCURVE",
"1410 655 CURVE SMOOTH",
"1810 655 LINE",
"1810 815 LINE",
"1410 815 LINE SMOOTH",
"1306 815 OFFCURVE",
"1241 792 OFFCURVE",
"1204 761 CURVE SMOOTH",
"1192 751 OFFCURVE",
"1179 739 OFFCURVE",
"1160 739 CURVE SMOOTH",
"1135 739 OFFCURVE",
"1116 757 OFFCURVE",
"1116 782 CURVE SMOOTH",
"1116 802 OFFCURVE",
"1128 815 OFFCURVE",
"1138 827 CURVE SMOOTH",
"1173 869 OFFCURVE",
"1190 936 OFFCURVE",
"1190 1034 CURVE SMOOTH",
"1190 1060 LINE SMOOTH",
"1190 1145 OFFCURVE",
"1173 1219 OFFCURVE",
"1128 1266 CURVE SMOOTH",
"1110 1285 OFFCURVE",
"1099 1295 OFFCURVE",
"1099 1318 CURVE SMOOTH",
"1099 1349 OFFCURVE",
"1125 1372 OFFCURVE",
"1154 1372 CURVE SMOOTH",
"1176 1372 OFFCURVE",
"1190 1359 OFFCURVE",
"1202 1349 CURVE SMOOTH",
"1274 1290 OFFCURVE",
"1348 1280 OFFCURVE",
"1410 1280 CURVE SMOOTH",
"1842 1280 LINE",
"1842 1440 LINE",
"636 1440 LINE",
"10 0 LINE"
);
},
{
closed = 1;
nodes = (
"388 554 OFFCURVE",
"392 573 OFFCURVE",
"419 592 CURVE SMOOTH",
"471 628 OFFCURVE",
"511 710 OFFCURVE",
"548 797 CURVE SMOOTH",
"655 1048 LINE SMOOTH",
"712 1183 OFFCURVE",
"706 1242 OFFCURVE",
"679 1282 CURVE SMOOTH",
"671 1294 OFFCURVE",
"665 1308 OFFCURVE",
"665 1325 CURVE SMOOTH",
"665 1362 OFFCURVE",
"696 1384 OFFCURVE",
"726 1384 CURVE SMOOTH",
"750 1384 OFFCURVE",
"765 1375 OFFCURVE",
"782 1355 CURVE SMOOTH",
"815 1316 OFFCURVE",
"840 1281 OFFCURVE",
"884 1281 CURVE SMOOTH",
"932 1281 OFFCURVE",
"976 1327 OFFCURVE",
"991 1348 CURVE SMOOTH",
"999 1359 OFFCURVE",
"1016 1372 OFFCURVE",
"1039 1372 CURVE SMOOTH",
"1069 1372 OFFCURVE",
"1093 1349 OFFCURVE",
"1093 1318 CURVE SMOOTH",
"1093 1296 OFFCURVE",
"1082 1284 OFFCURVE",
"1063 1266 CURVE SMOOTH",
"1016 1222 OFFCURVE",
"1000 1148 OFFCURVE",
"1000 1060 CURVE SMOOTH",
"1000 793 LINE",
"1000 695 OFFCURVE",
"1019 628 OFFCURVE",
"1053 586 CURVE SMOOTH",
"1063 573 OFFCURVE",
"1075 561 OFFCURVE",
"1075 541 CURVE SMOOTH",
"1075 516 OFFCURVE",
"1056 498 OFFCURVE",
"1031 498 CURVE SMOOTH",
"1014 498 OFFCURVE",
"1009 502 OFFCURVE",
"987 520 CURVE SMOOTH",
"950 550 OFFCURVE",
"888 574 OFFCURVE",
"778 574 CURVE SMOOTH",
"686 574 LINE SMOOTH",
"575 574 OFFCURVE",
"513 550 OFFCURVE",
"476 520 CURVE SMOOTH",
"464 510 OFFCURVE",
"451 498 OFFCURVE",
"432 498 CURVE SMOOTH",
"407 498 OFFCURVE",
"388 516 OFFCURVE",
"388 541 CURVE SMOOTH"
);
}
);
width = 1948;
}
);
leftKerningGroup = A;
leftMetricsKey = A;
rightKerningGroup = E;
rightMetricsKey = E;
unicode = 00C6;
},
{
color = 6;
glyphname = B;
lastChange = "2020-04-28 08:54:19 +0000";
layers = (
{
layerId = "4B6FBC9C-F998-43BC-A943-BECCA28E0CA2";
paths = (
{
closed = 1;
nodes = (
"580 0 LINE SMOOTH",
"745 0 OFFCURVE",
"1183 2 OFFCURVE",
"1183 397 CURVE SMOOTH",
"1183 569 OFFCURVE",
"1100 698 OFFCURVE",
"888 737 CURVE",
"1046 773 OFFCURVE",
"1144 882 OFFCURVE",
"1144 1064 CURVE SMOOTH",
"1144 1440 OFFCURVE",
"775 1440 OFFCURVE",
"580 1440 CURVE SMOOTH",
"170 1440 LINE",
"170 0 LINE"
);
},
{
closed = 1;
nodes = (
"284 58 OFFCURVE",
"257 85 OFFCURVE",
"257 119 CURVE SMOOTH",
"257 142 OFFCURVE",
"268 154 OFFCURVE",
"289 174 CURVE SMOOTH",
"340 224 OFFCURVE",
"360 295 OFFCURVE",
"360 380 CURVE SMOOTH",
"360 430 LINE SMOOTH",
"360 531 OFFCURVE",
"343 595 OFFCURVE",
"308 637 CURVE SMOOTH",
"298 649 OFFCURVE",
"286 662 OFFCURVE",
"286 682 CURVE SMOOTH",
"286 707 OFFCURVE",
"305 725 OFFCURVE",
"330 725 CURVE SMOOTH",
"349 725 OFFCURVE",
"362 713 OFFCURVE",
"374 703 CURVE SMOOTH",
"411 673 OFFCURVE",
"473 649 OFFCURVE",
"584 649 CURVE SMOOTH",
"742 649 OFFCURVE",
"983 649 OFFCURVE",
"983 403 CURVE SMOOTH",
"983 160 OFFCURVE",
"750 160 OFFCURVE",
"580 160 CURVE SMOOTH",
"542 160 OFFCURVE",
"460 160 OFFCURVE",
"369 82 CURVE SMOOTH",
"358 73 OFFCURVE",
"343 58 OFFCURVE",
"318 58 CURVE SMOOTH"
);
},
{
closed = 1;
nodes = (
"305 733 OFFCURVE",
"286 751 OFFCURVE",
"286 776 CURVE SMOOTH",
"286 796 OFFCURVE",
"298 809 OFFCURVE",
"308 821 CURVE SMOOTH",
"343 863 OFFCURVE",
"360 930 OFFCURVE",
"360 1031 CURVE SMOOTH",
"360 1060 LINE SMOOTH",
"360 1145 OFFCURVE",
"340 1216 OFFCURVE",
"289 1266 CURVE SMOOTH",
"268 1286 OFFCURVE",
"257 1298 OFFCURVE",
"257 1321 CURVE SMOOTH",
"257 1355 OFFCURVE",
"284 1382 OFFCURVE",
"318 1382 CURVE SMOOTH",
"343 1382 OFFCURVE",
"358 1367 OFFCURVE",
"369 1358 CURVE SMOOTH",
"460 1280 OFFCURVE",
"543 1280 OFFCURVE",
"581 1280 CURVE SMOOTH",
"705 1280 OFFCURVE",
"950 1292 OFFCURVE",
"950 1048 CURVE SMOOTH",
"950 807 OFFCURVE",
"711 809 OFFCURVE",
"584 809 CURVE SMOOTH",
"473 809 OFFCURVE",
"411 785 OFFCURVE",
"374 755 CURVE SMOOTH",
"362 745 OFFCURVE",
"349 733 OFFCURVE",
"330 733 CURVE SMOOTH"
);
}
);
userData = {
LWTimeline = "H4sIAAAAAAAAE+1XTU8bMRD9K9aet8jfXnMsBbUSLRLQckCoSslCIkKCklAOKP+9M5sl7IwdVKSWHrq3+GXG9s7He+PH4mo+uK0Xxe75YzF5+L6oJ/DzoiyOT94Xu0q5srgbLEfr/y8ns0U9LHaX8/u6LKazYeNXeOmFFIefvuyLk89HR6cfi7IIQQF2dHCw9/X42z4ASssodIKYGEQDPLs2uPOR2CrthY9VF4vKimBad7SRQYsQDPULUlQVPRcxJb1NDm7+sJbcu5Iqwbzya4xvEFscY9Gu28XFqtwaPx28oJ+mQxTK+C5k8B4+OdK4ILQisTKVFzo6DpkqdQbYBp46RJ0jYTQuCg/h7kLaCm9jsqUMwnt2c4Bi4hyUSpytEkGTSBioAw7B/TLOVsMxgeTJSd3csZs6qNXMtYOvuKWSUIY5zErD3Rscs9OxDZBVBuHhmRw6ZbilhbpWRtHPdgK25CHzWjhqp51wNNpQOtzzpXrEhAXPtgAokjbCHFYyiaTxTlSOfAwmLOqkIJXUqXeDZ0tSKZoLrHylNf12bBKdFvq6nySpaew6hRXH/U3KDBhThZfo2kLkAWOth3apvzWIS2LrVHtXXiCZ+wcjE9uI99c0Jw0mbcX9Ea8ghR1TZE5MHzs9k1HsImaJvRaqtCttQuZN/xpaDtjlDEI+4M4XK5Chh/FwOQIhAouyuF/U8w+D5aDYfSwOz07HtzX84yrrLDR+2DFGR2liCf/tjerLm7vZeLrMWazK4mc9X56t936nwKNRu+jL4sfg8uZ6PrufDvGUXvs45nvt67WPJL7XvucL9dqX+Pfa17X8fe1bYZVuXmTnvpSluugfZhvrvyFOV4PJohtABzRkrclYskjbGJM6MVgnpPOtlCI4x29noJqCpRwRgPAM0yHfQNzZYEVRSwXhZsSIEOfBFo60tVtq60IGIJ2IDpZ35enJyHasvBtWM6l3z3a5+78R2ymZst1L9f3fzQjrqvl3k6nJNQbSUdcfGtCxLaFV/RP1dqt6PbB2LaH1vadTDUJAydwZSYKWVEM6bKpBetIptyGR8fkH6E6RDm2IMS0bzLKnuoFEy8daKOZkrH3V4zHasOPhyytXbXk8diz+8OMRb96qUt9kDfLmTYaxi8lys+inqKcNMlNUI+3teiP1ZN1LPPN/I4nvPmhe1PYMpeaIN0/RGTLPUf4WccjISEZstssSF7CMzG0RxIx0ZgS2JYmndYYl0nqnaz4NZ2bmLdN1Zg7PTOsvzPWMkTPvhC0viszbI32hbHnL5F496duIzJ/teiOEr3mRwSsZdH5eX87mw/H0emM/GSyWe6PB9Dor8qtfOd/AsvYcAAA=";
};
width = 1273;
}
);
leftKerningGroup = H;
leftMetricsKey = H;
rightKerningGroup = B;
unicode = 0042;
},
{
color = 6;
glyphname = C;
lastChange = "2020-04-28 08:54:22 +0000";
layers = (
{
associatedMasterId = "4B6FBC9C-F998-43BC-A943-BECCA28E0CA2";
background = {
paths = (
{
closed = 1;
nodes = (
"900 1478 OFFCURVE",
"808 1419 OFFCURVE",
"736 1419 CURVE SMOOTH",
"689 1419 LINE SMOOTH",
"600 1419 OFFCURVE",
"545 1486 OFFCURVE",
"471 1457 CURVE SMOOTH",
"224 1358 OFFCURVE",
"79 1086 OFFCURVE",
"80 741 CURVE SMOOTH",
"79 293 OFFCURVE",
"332 -3 OFFCURVE",
"723 -3 CURVE SMOOTH",
"1046 -3 OFFCURVE",
"1257 173 OFFCURVE",
"1292 490 CURVE",
"1094 490 LINE",
"1068 284 OFFCURVE",
"937 157 OFFCURVE",
"723 157 CURVE SMOOTH",
"443 157 OFFCURVE",
"275 379 OFFCURVE",
"276 741 CURVE SMOOTH",
"275 1006 OFFCURVE",
"360 1213 OFFCURVE",
"518 1296 CURVE SMOOTH",
"576 1326 OFFCURVE",
"614 1409 OFFCURVE",
"689 1409 CURVE SMOOTH",
"735 1409 LINE SMOOTH",
"827 1409 OFFCURVE",
"865 1321 OFFCURVE",
"908 1299 CURVE SMOOTH",
"1018 1245 OFFCURVE",
"1081 1122 OFFCURVE",
"1101 975 CURVE",
"1301 975 LINE",
"1271 1198 OFFCURVE",
"1147 1384 OFFCURVE",
"952 1458 CURVE SMOOTH"
);
}
);
};
layerId = "C59E226F-11A9-4B9C-8C17-CF27299CFC07";
name = "Mar 25 20, 16:05";
paths = (
{
closed = 1;
nodes = (
"1147 77 OFFCURVE",
"1271 263 OFFCURVE",
"1301 486 CURVE",
"1101 486 LINE",
"1081 339 OFFCURVE",
"1018 216 OFFCURVE",
"908 162 CURVE SMOOTH",
"865 140 OFFCURVE",
"827 52 OFFCURVE",
"735 52 CURVE SMOOTH",
"689 52 LINE SMOOTH",
"614 52 OFFCURVE",
"576 135 OFFCURVE",
"518 165 CURVE SMOOTH",
"360 248 OFFCURVE",
"275 455 OFFCURVE",
"276 720 CURVE SMOOTH",
"275 992 OFFCURVE",
"370 1185 OFFCURVE",
"536 1264 CURVE SMOOTH",
"591 1290 OFFCURVE",
"654 1304 OFFCURVE",
"723 1304 CURVE SMOOTH",
"728 1304 OFFCURVE",
"733 1304 OFFCURVE",
"738 1304 CURVE SMOOTH",
"797 1302 OFFCURVE",
"849 1291 OFFCURVE",
"895 1270 CURVE SMOOTH",
"1007 1219 OFFCURVE",
"1076 1114 OFFCURVE",
"1094 971 CURVE",
"1292 971 LINE",
"1266 1210 OFFCURVE",
"1139 1369 OFFCURVE",
"940 1433 CURVE SMOOTH",
"881 1452 OFFCURVE",
"815 1462 OFFCURVE",
"744 1464 CURVE SMOOTH",
"737 1464 OFFCURVE",
"730 1464 OFFCURVE",
"723 1464 CURVE SMOOTH",
"638 1464 OFFCURVE",
"560 1450 OFFCURVE",
"490 1424 CURVE SMOOTH",
"234 1329 OFFCURVE",
"79 1071 OFFCURVE",
"80 720 CURVE SMOOTH",
"79 375 OFFCURVE",
"224 103 OFFCURVE",
"471 4 CURVE SMOOTH",
"545 -25 OFFCURVE",
"600 42 OFFCURVE",
"689 42 CURVE SMOOTH",
"736 42 LINE SMOOTH",
"808 42 OFFCURVE",
"900 -17 OFFCURVE",
"952 3 CURVE SMOOTH"
);
}
);
width = 1376;
},
{
associatedMasterId = "4B6FBC9C-F998-43BC-A943-BECCA28E0CA2";
background = {
components = (
{
name = O;
transform = "{1, 0, 0, 1, -70, 0}";
}
);
};
layerId = "4C822619-B177-4027-B4FE-2976BF953E60";
name = "Mar 25 20, 17:00";
paths = (
{
closed = 1;
nodes = (
"1207 61 OFFCURVE",
"1321 263 OFFCURVE",
"1351 486 CURVE",
"1151 486 LINE",
"1131 339 OFFCURVE",
"1073 200 OFFCURVE",
"960 151 CURVE SMOOTH",
"866 110 OFFCURVE",
"861 52 OFFCURVE",
"755 52 CURVE SMOOTH",
"700 52 LINE SMOOTH",
"591 52 OFFCURVE",
"587 109 OFFCURVE",
"492 151 CURVE SMOOTH",
"329 223 OFFCURVE",
"245 455 OFFCURVE",
"246 720 CURVE SMOOTH",
"247 992 OFFCURVE",
"322 1214 OFFCURVE",
"492 1290 CURVE SMOOTH",
"586 1332 OFFCURVE",
"593 1390 OFFCURVE",
"700 1390 CURVE SMOOTH",
"753 1390 LINE SMOOTH",
"860 1390 OFFCURVE",
"866 1332 OFFCURVE",
"962 1290 CURVE SMOOTH",
"1116 1223 OFFCURVE",
"1126 1114 OFFCURVE",
"1144 971 CURVE",
"1342 971 LINE",
"1316 1210 OFFCURVE",
"1261 1359 OFFCURVE",
"1006 1438 CURVE SMOOTH",
"878 1477 OFFCURVE",
"885 1400 OFFCURVE",
"753 1400 CURVE SMOOTH",
"700 1400 LINE SMOOTH",
"567 1400 OFFCURVE",
"575 1477 OFFCURVE",
"447 1439 CURVE SMOOTH",
"191 1363 OFFCURVE",
"49 1071 OFFCURVE",
"50 720 CURVE SMOOTH",
"51 375 OFFCURVE",
"192 80 OFFCURVE",
"447 4 CURVE SMOOTH",
"575 -34 OFFCURVE",
"567 42 OFFCURVE",
"699 42 CURVE SMOOTH",
"756 42 LINE SMOOTH",
"885 42 OFFCURVE",
"877 -34 OFFCURVE",
"1006 3 CURVE SMOOTH"
);
}
);
width = 1423;
},
{
associatedMasterId = "4B6FBC9C-F998-43BC-A943-BECCA28E0CA2";
background = {
components = (
{
name = O;
transform = "{1, 0, 0, 1, -70, 0}";
}
);
};
layerId = "A9D80D4E-5F55-4ACD-A588-97673F271A61";
name = "Mar 25 20, 17:36";
paths = (
{
closed = 1;
nodes = (
"1207 61 OFFCURVE",
"1321 263 OFFCURVE",
"1351 486 CURVE",
"1151 486 LINE",
"1131 339 OFFCURVE",
"1073 200 OFFCURVE",
"960 151 CURVE SMOOTH",
"866 110 OFFCURVE",
"861 52 OFFCURVE",
"755 52 CURVE SMOOTH",
"700 52 LINE SMOOTH",
"591 52 OFFCURVE",
"587 109 OFFCURVE",
"492 151 CURVE SMOOTH",
"329 223 OFFCURVE",
"245 455 OFFCURVE",
"246 720 CURVE SMOOTH",
"247 992 OFFCURVE",
"322 1214 OFFCURVE",
"492 1290 CURVE SMOOTH",
"586 1332 OFFCURVE",
"593 1390 OFFCURVE",
"700 1390 CURVE SMOOTH",
"753 1390 LINE SMOOTH",
"860 1390 OFFCURVE",
"866 1332 OFFCURVE",
"962 1290 CURVE SMOOTH",
"1116 1223 OFFCURVE",
"1126 1114 OFFCURVE",
"1144 971 CURVE",
"1342 971 LINE",
"1316 1210 OFFCURVE",
"1261 1359 OFFCURVE",
"1006 1438 CURVE SMOOTH",
"878 1477 OFFCURVE",
"885 1400 OFFCURVE",
"753 1400 CURVE SMOOTH",
"700 1400 LINE SMOOTH",
"567 1400 OFFCURVE",
"575 1477 OFFCURVE",
"447 1439 CURVE SMOOTH",
"191 1363 OFFCURVE",
"49 1071 OFFCURVE",
"50 720 CURVE SMOOTH",
"51 375 OFFCURVE",
"192 80 OFFCURVE",
"447 4 CURVE SMOOTH",
"575 -34 OFFCURVE",
"567 42 OFFCURVE",
"699 42 CURVE SMOOTH",
"756 42 LINE SMOOTH",
"885 42 OFFCURVE",
"877 -34 OFFCURVE",
"1006 3 CURVE SMOOTH"
);
}
);
width = 1423;
},
{
anchors = (
{
name = bottom;
position = "{703, 0}";
},
{
name = top;
position = "{703, 1440}";
}
);
layerId = "4B6FBC9C-F998-43BC-A943-BECCA28E0CA2";
paths = (
{
closed = 1;
nodes = (
"1061 -24 OFFCURVE",
"1281 185 OFFCURVE",
"1321 486 CURVE",
"1121 486 LINE",
"1092 271 OFFCURVE",
"963 136 OFFCURVE",
"743 136 CURVE SMOOTH",
"463 136 OFFCURVE",
"295 358 OFFCURVE",
"296 720 CURVE SMOOTH",
"295 1082 OFFCURVE",
"463 1304 OFFCURVE",
"743 1304 CURVE SMOOTH",
"957 1304 OFFCURVE",
"1088 1177 OFFCURVE",
"1114 971 CURVE",
"1312 971 LINE",
"1277 1288 OFFCURVE",
"1066 1464 OFFCURVE",
"743 1464 CURVE SMOOTH",
"352 1464 OFFCURVE",
"99 1168 OFFCURVE",
"100 720 CURVE SMOOTH",
"99 272 OFFCURVE",
"352 -24 OFFCURVE",
"743 -24 CURVE SMOOTH"
);
}
);
width = 1386;
}
);
leftKerningGroup = O;
leftMetricsKey = O;
rightKerningGroup = C;
unicode = 0043;
},
{
color = 6;
glyphname = D;
lastChange = "2020-04-28 08:54:35 +0000";
layers = (
{
layerId = "4B6FBC9C-F998-43BC-A943-BECCA28E0CA2";
paths = (
{
closed = 1;
nodes = (
"589 0 LINE SMOOTH",
"1049 0 OFFCURVE",
"1313 261 OFFCURVE",
"1313 736 CURVE SMOOTH",
"1313 1156 OFFCURVE",
"1106 1440 OFFCURVE",
"589 1440 CURVE SMOOTH",
"170 1440 LINE",
"170 0 LINE"
);
},
{
closed = 1;
nodes = (
"284 58 OFFCURVE",
"257 85 OFFCURVE",
"257 119 CURVE SMOOTH",
"257 142 OFFCURVE",
"268 154 OFFCURVE",
"289 174 CURVE SMOOTH",
"340 224 OFFCURVE",
"360 295 OFFCURVE",
"360 380 CURVE",
"360 1060 LINE SMOOTH",
"360 1145 OFFCURVE",
"340 1216 OFFCURVE",
"289 1266 CURVE SMOOTH",
"268 1286 OFFCURVE",
"257 1298 OFFCURVE",
"257 1321 CURVE SMOOTH",
"257 1355 OFFCURVE",
"284 1382 OFFCURVE",
"318 1382 CURVE SMOOTH",
"343 1382 OFFCURVE",
"358 1367 OFFCURVE",
"369 1358 CURVE SMOOTH",
"460 1280 OFFCURVE",
"542 1280 OFFCURVE",
"581 1280 CURVE SMOOTH",
"735 1280 OFFCURVE",
"1113 1280 OFFCURVE",
"1113 729 CURVE SMOOTH",
"1113 160 OFFCURVE",
"709 160 OFFCURVE",
"580 160 CURVE SMOOTH",
"542 160 OFFCURVE",
"460 160 OFFCURVE",
"369 82 CURVE SMOOTH",
"358 73 OFFCURVE",
"343 58 OFFCURVE",
"318 58 CURVE SMOOTH"
);
}
);
width = 1413;
}
);
leftKerningGroup = H;
leftMetricsKey = H;
rightKerningGroup = D;
rightMetricsKey = O;
unicode = 0044;
},
{
color = 6;
glyphname = Eth;
lastChange = "2020-04-28 08:54:38 +0000";
layers = (
{
layerId = "4B6FBC9C-F998-43BC-A943-BECCA28E0CA2";
paths = (
{
closed = 1;
nodes = (
"400 936 OFFCURVE",
"383 869 OFFCURVE",
"348 827 CURVE SMOOTH",
"338 815 OFFCURVE",
"326 802 OFFCURVE",
"326 782 CURVE SMOOTH",
"326 757 OFFCURVE",
"345 739 OFFCURVE",
"370 739 CURVE SMOOTH",
"389 739 OFFCURVE",
"402 751 OFFCURVE",
"414 761 CURVE SMOOTH",
"451 791 OFFCURVE",
"513 815 OFFCURVE",
"624 815 CURVE",
"624 655 LINE",
"513 655 OFFCURVE",
"451 679 OFFCURVE",
"414 709 CURVE SMOOTH",
"402 719 OFFCURVE",
"389 731 OFFCURVE",
"370 731 CURVE SMOOTH",
"345 731 OFFCURVE",
"326 713 OFFCURVE",
"326 688 CURVE SMOOTH",
"326 668 OFFCURVE",
"338 655 OFFCURVE",
"348 643 CURVE SMOOTH",
"383 601 OFFCURVE",
"400 534 OFFCURVE",
"400 433 CURVE SMOOTH",
"400 380 LINE SMOOTH",
"400 295 OFFCURVE",
"380 224 OFFCURVE",
"329 174 CURVE SMOOTH",
"308 154 OFFCURVE",
"297 142 OFFCURVE",
"297 119 CURVE SMOOTH",
"297 85 OFFCURVE",
"324 58 OFFCURVE",
"358 58 CURVE SMOOTH",
"383 58 OFFCURVE",
"398 73 OFFCURVE",
"409 82 CURVE SMOOTH",
"500 160 OFFCURVE",
"582 160 OFFCURVE",
"620 160 CURVE SMOOTH",
"749 160 OFFCURVE",
"1153 160 OFFCURVE",
"1153 729 CURVE SMOOTH",
"1153 1280 OFFCURVE",
"775 1280 OFFCURVE",
"621 1280 CURVE SMOOTH",
"582 1280 OFFCURVE",
"500 1280 OFFCURVE",
"409 1358 CURVE SMOOTH",
"398 1367 OFFCURVE",
"383 1382 OFFCURVE",
"358 1382 CURVE SMOOTH",
"324 1382 OFFCURVE",
"297 1355 OFFCURVE",
"297 1321 CURVE SMOOTH",
"297 1298 OFFCURVE",
"308 1286 OFFCURVE",
"329 1266 CURVE SMOOTH",
"380 1216 OFFCURVE",
"400 1145 OFFCURVE",
"400 1060 CURVE SMOOTH",
"400 1037 LINE"
);
},
{
closed = 1;
nodes = (
"629 1440 LINE SMOOTH",
"1146 1440 OFFCURVE",
"1353 1156 OFFCURVE",
"1353 736 CURVE SMOOTH",
"1353 261 OFFCURVE",
"1089 0 OFFCURVE",
"629 0 CURVE SMOOTH",
"210 0 LINE",
"209 433 LINE SMOOTH",
"209 534 OFFCURVE",
"226 601 OFFCURVE",
"261 643 CURVE SMOOTH",
"271 655 OFFCURVE",
"283 668 OFFCURVE",
"283 688 CURVE SMOOTH",
"283 713 OFFCURVE",
"264 731 OFFCURVE",
"239 731 CURVE SMOOTH",
"220 731 OFFCURVE",
"207 719 OFFCURVE",
"195 709 CURVE SMOOTH",
"158 679 OFFCURVE",
"96 655 OFFCURVE",
"-15 655 CURVE",
"-15 815 LINE",
"96 815 OFFCURVE",
"158 791 OFFCURVE",
"195 761 CURVE SMOOTH",
"207 751 OFFCURVE",
"220 739 OFFCURVE",
"239 739 CURVE SMOOTH",
"264 739 OFFCURVE",
"283 757 OFFCURVE",
"283 782 CURVE SMOOTH",
"283 802 OFFCURVE",
"271 815 OFFCURVE",
"261 827 CURVE SMOOTH",
"226 869 OFFCURVE",
"209 936 OFFCURVE",
"209 1037 CURVE SMOOTH",
"210 1440 LINE"
);
}
);
width = 1433;
}
);
rightKerningGroup = D;
unicode = 00D0;
},
{
color = 6;
glyphname = E;
lastChange = "2020-04-08 11:10:45 +0000";
layers = (
{
anchors = (
{
name = bottom;
position = "{579, 0}";
},
{
name = ogonek;
position = "{1042, 10}";
},
{
name = top;
position = "{639, 1440}";
},
{
name = topleft;
position = "{20, 1440}";
}
);
layerId = "4B6FBC9C-F998-43BC-A943-BECCA28E0CA2";
paths = (
{
closed = 1;
nodes = (
"1096 0 LINE",
"1096 160 LINE",
"580 160 LINE SMOOTH",
"542 160 OFFCURVE",
"460 160 OFFCURVE",
"369 82 CURVE SMOOTH",
"358 73 OFFCURVE",
"343 58 OFFCURVE",
"318 58 CURVE SMOOTH",
"284 58 OFFCURVE",
"257 85 OFFCURVE",
"257 119 CURVE SMOOTH",
"257 142 OFFCURVE",
"268 154 OFFCURVE",
"289 174 CURVE SMOOTH",
"340 224 OFFCURVE",
"360 295 OFFCURVE",
"360 380 CURVE SMOOTH",
"360 434 LINE SMOOTH",
"360 537 OFFCURVE",
"339 614 OFFCURVE",
"298 655 CURVE SMOOTH",
"290 664 OFFCURVE",
"285 673 OFFCURVE",
"285 686 CURVE SMOOTH",
"285 697 OFFCURVE",
"290 709 OFFCURVE",
"298 717 CURVE SMOOTH",
"307 726 OFFCURVE",
"318 730 OFFCURVE",
"329 730 CURVE SMOOTH",
"338 730 OFFCURVE",
"352 726 OFFCURVE",
"360 717 CURVE SMOOTH",
"401 676 OFFCURVE",
"474 655 OFFCURVE",
"580 655 CURVE SMOOTH",
"1030 655 LINE",
"1030 815 LINE",
"580 815 LINE SMOOTH",
"476 815 OFFCURVE",
"401 794 OFFCURVE",
"360 753 CURVE SMOOTH",
"352 745 OFFCURVE",
"340 740 OFFCURVE",
"329 740 CURVE SMOOTH",
"318 740 OFFCURVE",
"307 745 OFFCURVE",
"298 753 CURVE SMOOTH",
"290 761 OFFCURVE",
"286 773 OFFCURVE",
"286 784 CURVE SMOOTH",
"286 795 OFFCURVE",
"290 807 OFFCURVE",
"298 815 CURVE SMOOTH",
"339 856 OFFCURVE",
"360 931 OFFCURVE",
"360 1034 CURVE SMOOTH",
"360 1060 LINE SMOOTH",
"360 1145 OFFCURVE",
"340 1216 OFFCURVE",
"289 1266 CURVE SMOOTH",
"268 1286 OFFCURVE",
"257 1298 OFFCURVE",
"257 1321 CURVE SMOOTH",
"257 1355 OFFCURVE",
"284 1382 OFFCURVE",
"318 1382 CURVE SMOOTH",
"343 1382 OFFCURVE",
"358 1367 OFFCURVE",
"369 1358 CURVE SMOOTH",
"460 1280 OFFCURVE",
"542 1280 OFFCURVE",
"580 1280 CURVE SMOOTH",
"1062 1280 LINE",
"1062 1440 LINE",
"170 1440 LINE",
"170 0 LINE"
);
}
);
width = 1168;
}
);
leftKerningGroup = H;
leftMetricsKey = H;
rightKerningGroup = E;
unicode = 0045;
},
{
color = 6;
glyphname = F;
lastChange = "2020-04-06 13:01:50 +0000";
layers = (
{
background = {
paths = (
{
closed = 1;
nodes = (
"360 0 LINE",
"360 434 LINE",
"360 539 OFFCURVE",
"339 614 OFFCURVE",
"298 655 CURVE SMOOTH",
"281 672 OFFCURVE",
"281 700 OFFCURVE",
"298 717 CURVE SMOOTH",
"315 734 OFFCURVE",
"343 734 OFFCURVE",
"360 717 CURVE SMOOTH",
"401 676 OFFCURVE",
"476 655 OFFCURVE",
"580 655 CURVE SMOOTH",
"1010 655 LINE",
"1010 815 LINE",
"580 815 LINE SMOOTH",
"476 815 OFFCURVE",
"401 794 OFFCURVE",
"360 753 CURVE SMOOTH",
"343 736 OFFCURVE",
"315 736 OFFCURVE",
"298 753 CURVE SMOOTH",
"281 770 OFFCURVE",
"282 799 OFFCURVE",
"298 815 CURVE SMOOTH",
"339 856 OFFCURVE",
"360 931 OFFCURVE",
"360 1034 CURVE SMOOTH",
"360 1061 LINE SMOOTH",
"360 1146 OFFCURVE",
"331 1221 OFFCURVE",
"275 1280 CURVE SMOOTH",
"253 1303 OFFCURVE",
"250 1341 OFFCURVE",
"275 1364 CURVE SMOOTH",
"299 1387 OFFCURVE",
"336 1389 OFFCURVE",
"359 1364 CURVE SMOOTH",
"409 1309 OFFCURVE",
"485 1280 OFFCURVE",
"580 1280 CURVE SMOOTH",
"1042 1280 LINE",
"1042 1440 LINE",
"170 1440 LINE",
"170 0 LINE"
);
}
);
};
layerId = "4B6FBC9C-F998-43BC-A943-BECCA28E0CA2";
paths = (
{
closed = 1;
nodes = (
"360 0 LINE",
"360 434 LINE SMOOTH",
"360 537 OFFCURVE",
"339 614 OFFCURVE",
"298 655 CURVE SMOOTH",
"290 664 OFFCURVE",
"285 673 OFFCURVE",
"285 686 CURVE SMOOTH",
"285 697 OFFCURVE",
"290 709 OFFCURVE",
"298 717 CURVE SMOOTH",
"307 726 OFFCURVE",
"318 730 OFFCURVE",
"329 730 CURVE SMOOTH",
"338 730 OFFCURVE",
"352 726 OFFCURVE",
"360 717 CURVE SMOOTH",
"401 676 OFFCURVE",
"474 655 OFFCURVE",
"580 655 CURVE SMOOTH",
"1010 655 LINE",
"1010 815 LINE",
"580 815 LINE SMOOTH",
"476 815 OFFCURVE",
"401 794 OFFCURVE",
"360 753 CURVE SMOOTH",
"352 745 OFFCURVE",
"340 740 OFFCURVE",
"329 740 CURVE SMOOTH",
"318 740 OFFCURVE",
"307 745 OFFCURVE",
"298 753 CURVE SMOOTH",
"290 761 OFFCURVE",
"286 773 OFFCURVE",
"286 784 CURVE SMOOTH",
"286 795 OFFCURVE",
"290 807 OFFCURVE",
"298 815 CURVE SMOOTH",
"339 856 OFFCURVE",
"360 931 OFFCURVE",
"360 1034 CURVE SMOOTH",
"360 1060 LINE SMOOTH",
"360 1145 OFFCURVE",
"340 1216 OFFCURVE",
"289 1266 CURVE SMOOTH",
"268 1286 OFFCURVE",
"257 1298 OFFCURVE",
"257 1321 CURVE SMOOTH",
"257 1355 OFFCURVE",
"284 1382 OFFCURVE",
"318 1382 CURVE SMOOTH",
"343 1382 OFFCURVE",
"358 1367 OFFCURVE",
"369 1358 CURVE SMOOTH",
"460 1280 OFFCURVE",
"542 1280 OFFCURVE",
"580 1280 CURVE SMOOTH",
"1042 1280 LINE",
"1042 1440 LINE",
"170 1440 LINE",
"170 0 LINE"
);
}
);
width = 1106;
}
);
leftKerningGroup = H;
leftMetricsKey = H;
rightKerningGroup = F;
unicode = 0046;
},
{
color = 6;
glyphname = G;
lastChange = "2020-04-06 13:03:59 +0000";
layers = (
{
background = {
paths = (
{
closed = 1;
nodes = (
"1200 566 OFFCURVE",
"1227 593 OFFCURVE",
"1227 626 CURVE SMOOTH",
"1227 659 OFFCURVE",
"1200 686 OFFCURVE",
"1167 686 CURVE SMOOTH",
"1134 686 OFFCURVE",
"1107 659 OFFCURVE",
"1107 626 CURVE SMOOTH",
"1107 593 OFFCURVE",
"1134 566 OFFCURVE",
"1167 566 CURVE SMOOTH"
);
}
);
};
layerId = "4B6FBC9C-F998-43BC-A943-BECCA28E0CA2";
paths = (
{
closed = 1;
nodes = (
"100 272 OFFCURVE",
"346 -24 OFFCURVE",
"737 -24 CURVE SMOOTH",
"1055 -24 OFFCURVE",
"1324 196 OFFCURVE",
"1324 593 CURVE SMOOTH",
"1324 744 LINE",
"770 744 LINE",
"770 584 LINE",
"893 584 LINE SMOOTH",
"992 584 OFFCURVE",
"1071 613 OFFCURVE",
"1115 659 CURVE SMOOTH",
"1135 680 OFFCURVE",
"1151 686 OFFCURVE",
"1167 686 CURVE SMOOTH",
"1200 686 OFFCURVE",
"1227 659 OFFCURVE",
"1227 627 CURVE SMOOTH",
"1227 613 OFFCURVE",
"1222 594 OFFCURVE",
"1198 570 CURVE SMOOTH",
"1165 535 OFFCURVE",
"1134 464 OFFCURVE",
"1106 393 CURVE SMOOTH",
"1039 226 OFFCURVE",
"919 136 OFFCURVE",
"735 136 CURVE SMOOTH",
"454 136 OFFCURVE",
"296 358 OFFCURVE",
"296 719 CURVE SMOOTH",
"296 1082 OFFCURVE",
"469 1304 OFFCURVE",
"749 1304 CURVE SMOOTH",
"952 1304 OFFCURVE",
"1087 1201 OFFCURVE",
"1121 1017 CURVE",
"1320 1017 LINE",
"1285 1278 OFFCURVE",
"1073 1464 OFFCURVE",
"747 1464 CURVE SMOOTH",
"360 1464 OFFCURVE",
"100 1168 OFFCURVE",
"100 720 CURVE SMOOTH"
);
}
);
width = 1424;
},
{
associatedMasterId = "4B6FBC9C-F998-43BC-A943-BECCA28E0CA2";
background = {
paths = (
{
closed = 1;
nodes = (
"1180 566 OFFCURVE",
"1207 593 OFFCURVE",
"1207 626 CURVE SMOOTH",
"1207 659 OFFCURVE",
"1180 686 OFFCURVE",
"1147 686 CURVE SMOOTH",
"1114 686 OFFCURVE",
"1087 659 OFFCURVE",
"1087 626 CURVE SMOOTH",
"1087 593 OFFCURVE",
"1114 566 OFFCURVE",
"1147 566 CURVE SMOOTH"
);
}
);
};
layerId = "29F33FD1-E7FB-4A73-AB6F-95E69859F6B8";
name = "Mar 25 20, 17:38";
paths = (
{
closed = 1;
nodes = (
"50 350 OFFCURVE",
"196 -25 OFFCURVE",
"712 -25 CURVE SMOOTH",
"1213 -25 OFFCURVE",
"1344 289 OFFCURVE",
"1344 593 CURVE SMOOTH",
"1344 744 LINE",
"790 744 LINE",
"790 584 LINE",
"913 584 LINE SMOOTH",
"1012 584 OFFCURVE",
"1101 613 OFFCURVE",
"1145 659 CURVE SMOOTH",
"1165 680 OFFCURVE",
"1181 686 OFFCURVE",
"1197 686 CURVE SMOOTH",
"1230 686 OFFCURVE",
"1257 659 OFFCURVE",
"1257 627 CURVE SMOOTH",
"1257 613 OFFCURVE",
"1252 594 OFFCURVE",
"1228 570 CURVE SMOOTH",
"1194 536 OFFCURVE",
"1164 464 OFFCURVE",
"1136 393 CURVE SMOOTH",
"1069 224 OFFCURVE",
"939 135 OFFCURVE",
"731 135 CURVE SMOOTH",
"402 135 OFFCURVE",
"246 367 OFFCURVE",
"246 719 CURVE SMOOTH",
"246 986 OFFCURVE",
"319 1214 OFFCURVE",
"491 1290 CURVE SMOOTH",
"586 1332 OFFCURVE",
"593 1390 OFFCURVE",
"700 1390 CURVE SMOOTH",
"753 1390 LINE SMOOTH",
"861 1390 OFFCURVE",
"866 1332 OFFCURVE",
"961 1290 CURVE SMOOTH",
"1107 1225 OFFCURVE",
"1121 1125 OFFCURVE",
"1141 1017 CURVE",
"1340 1017 LINE",
"1315 1201 OFFCURVE",
"1255 1364 OFFCURVE",
"1005 1439 CURVE SMOOTH",
"878 1477 OFFCURVE",
"887 1400 OFFCURVE",
"753 1400 CURVE SMOOTH",
"700 1400 LINE SMOOTH",
"567 1400 OFFCURVE",
"575 1478 OFFCURVE",
"447 1440 CURVE SMOOTH",
"185 1362 OFFCURVE",
"50 1062 OFFCURVE",
"50 720 CURVE SMOOTH"
);
}
);
width = 1384;
}
);
leftKerningGroup = O;
leftMetricsKey = O;
rightKerningGroup = C;
rightMetricsKey = O;
unicode = 0047;
},
{
color = 6;
glyphname = H;
lastChange = "2020-04-06 10:51:37 +0000";
layers = (
{
layerId = "4B6FBC9C-F998-43BC-A943-BECCA28E0CA2";
paths = (
{
closed = 1;
nodes = (
"360 0 LINE",
"360 442 LINE SMOOTH",
"360 543 OFFCURVE",
"343 610 OFFCURVE",
"308 652 CURVE SMOOTH",
"298 664 OFFCURVE",
"286 677 OFFCURVE",
"286 697 CURVE SMOOTH",
"286 722 OFFCURVE",
"305 740 OFFCURVE",
"330 740 CURVE SMOOTH",
"349 740 OFFCURVE",
"362 728 OFFCURVE",
"374 718 CURVE SMOOTH",
"411 688 OFFCURVE",
"473 664 OFFCURVE",
"584 664 CURVE SMOOTH",
"887 664 LINE SMOOTH",
"998 664 OFFCURVE",
"1060 688 OFFCURVE",
"1097 718 CURVE SMOOTH",
"1109 728 OFFCURVE",
"1122 740 OFFCURVE",
"1141 740 CURVE SMOOTH",
"1166 740 OFFCURVE",
"1185 722 OFFCURVE",
"1185 697 CURVE SMOOTH",
"1185 677 OFFCURVE",
"1173 664 OFFCURVE",
"1163 652 CURVE SMOOTH",
"1128 610 OFFCURVE",
"1111 543 OFFCURVE",
"1111 442 CURVE SMOOTH",
"1111 0 LINE",
"1301 0 LINE",
"1301 1440 LINE",
"1111 1440 LINE",
"1111 1046 LINE SMOOTH",
"1111 945 OFFCURVE",
"1128 878 OFFCURVE",
"1163 836 CURVE SMOOTH",
"1173 824 OFFCURVE",
"1185 811 OFFCURVE",
"1185 791 CURVE SMOOTH",
"1185 766 OFFCURVE",
"1166 748 OFFCURVE",
"1141 748 CURVE SMOOTH",
"1122 748 OFFCURVE",
"1109 760 OFFCURVE",
"1097 770 CURVE SMOOTH",
"1060 800 OFFCURVE",
"998 824 OFFCURVE",
"887 824 CURVE SMOOTH",
"584 824 LINE SMOOTH",
"473 824 OFFCURVE",
"411 800 OFFCURVE",
"374 770 CURVE SMOOTH",
"362 760 OFFCURVE",
"349 748 OFFCURVE",
"330 748 CURVE SMOOTH",
"305 748 OFFCURVE",
"286 766 OFFCURVE",
"286 791 CURVE SMOOTH",
"286 811 OFFCURVE",
"298 824 OFFCURVE",
"308 836 CURVE SMOOTH",
"343 878 OFFCURVE",
"360 945 OFFCURVE",
"360 1046 CURVE SMOOTH",
"360 1440 LINE",
"170 1440 LINE",
"170 0 LINE"
);
}
);
userData = {
LWTimeline = "H4sIAAAAAAAAE+2dX4/lyHHlv0qjn3sumJlM/tHjetfYBbRrwPauHwRhMdaMpYHlGWNGWj8I/u6bEcnkZcYJlupWVdftqj6CpFuMZibJzIj8xQny8v7l47/8/O2/ff/Lx1/95i8f//gf//eX7/9Y/vztp49//w//5eOvwjB8+vjv3/7pD/Xff/fHn375/ruPv/rTz3/+/tPHH3/6Ttt9LHt9COM4fPj1//hf/+3jp49xdbaHMer2h3/4n3/3d//43zfzmtYPf/e3f/s3//vv/4/uOa0flmnsTHH5sMTxg24fGsfhwxJyt2eYPixD37iY5jVCYzEvQ3+Y4cM8G9PyYZ6wcZo/zDl1e45lz9FcSemvmG3juZqPey6x9NefdhkZ58gphXKB8bjnOJRrjt3J5DB4A7bEqOZ+DtaYbfsym4M9jM6ec0ZhyIMdjDBMwY5GGOboDUcYltGORxjWyQ5IKCfgHj+EaKet2GR2A9rQEdRufEb7XIrdHt8Z1HKt0Tps2TVYv9bx0/+DDuQfDrESYnIM1y3Zv98aIbD0DPI4m1mJH6bYz6pc1TThVckITLPZt4zItPQzrbbVa19GezAjKDMV+pnWWY0TtB/W/GFOZlTFU5LxFPGq5HjVVO3dvuKptk/xau/4JQKmpdtXAkWG6mBaYiimZFtL/E1TNnMybtZD+5SSPUoayoUHGNC4lPUldfMRl7Ln2K9XeVWTbZxwT5mf3hfENK0wFGpe+mW2rJTGOWIZ6ymDc8tiN/VTLitbHjvPEJP4sG1czAdH3zd++58FTv/xw3d/+kPBU0rx08c///L9z//12z99+/FXf/n463/6xx/+7fvyL3kZ85imabjMYZ3zuv7np4///O3v/vX3P//05x+/k13/KtbWXK59mto55CDBUjftvHYXlErsT0sXfUkcPYCjRvXpfjRmWTz72VKUOPMqS6czr93KV+d1hsZinvs9o1xfP1tlWqYcoPEsS0lPQG9eQ5lX9Kg1fQjJhkcsq0jqT6cc5Juxx2IaPnyzYI/Fk79ZDfeXD9+EfgWqtoDN1R77Cy+D+E0wuYkcPSDDxPm/Cbk/VpZ9JzONsdps+znhvsUxoM9V2uPxU5J9+2sdh1VH6mAS93UGT5xczJuT62ac9+1vRjkTMFwbyJ9t89prmO3hVxnQoUdS8i8ojDJ4/cWHvA3e0TbJheOAhjnjvnKats9V2uPx46Dn1U/I4DiJ2hyHUvvQL5pDsj6qh8cJCSXevjHsLgPVB4dYQgJOiFlCzkxGsebcD0dJ2abYnaGcjixkcDGSCvTBVa5v6mdXTQ49inkezKClshL2ydEqWQBMg0yZWRxD8UOz5IkTOIuj+IvdsyRFtr8k/IcjL2X9Xvu2s13kZeac4dLwOEBDt5fcxde+WVBWqPT/vv/5T/9UefZN+PTx15vu+s9PBz32m+nTNH0afktdth3Z0QLUZQf3py6jLvPaU5eZOTnVZb1JdVm2XVZd1i851GWP0WVzvoSSYqVEWQbTSllWh8LJuCnL6jZl2Tb4lGXddVOWUZZRlm2NKcugPWUZZZnjVW9IlnWjVGUZnFCVZf0SQVn2SFmWp7EkZIG6DOaVuqwOhZNyU5fVbeqybfCpy7rrpi6jLqMu2xpTl0F76jLqMser3ogui5ZvNX+HE4oly6cu22F2my4rS0nxR+oynFfqsjoUTspNXVa3qcu2wacu666buoy6jLpsa0xdBu2py6jLHK96Q7rMyd8xi1Zd1i921GWP0mXTZRhimqjLnHmlLqtD4aTc1GV1m7psG3zqsu66qcuoy6jLtsbUZdCeuoy6zPGqN6TLurM8zd9Fl/UkpC57pC4rQmBeZ8oymFbKsjoUTsZNWVa3Kcu2wacs666bsuzVZVmmLLse2ZEClGUH96csoyzz2lOWmTlxZVl+tCwTRPF22QazW2TZeknLMix86wdOK2VZHQon46Ysq9uUZdvgU5Z1101ZRllGWbY1piyD9pRllGWOV70RWSb5ezdKp/k7ZdnTZNkSL3Ec5iXzKUacV+qyOhROyk1dVrepy7bBpy7rrpu67NV12Uxddj2yowWoyw7uT11GXea1py4zc+LqMuFb1+Vp/g6Ioi57nC4bL+sQ5jDxx8twXqnL6lA4KTd1Wd2mLtsGn7qsu27qMuoy6rKtMXUZtKcuoy5zvOqN6DLJ33vTWf4u49GTkLrsUbosX8ayPqUxUpfBvFKX1aFwUm7qsrpNXbYNPnVZd93UZdRl1GVbY+oyaE9dRl3meNXb0GWjHKUbpRvyd+qyR+qytXjiQFmG00pZVofCybgpy+o2Zdk2+JRl3XVTlr26LOPXyw5HdqQAZdnB/SnLKMu89pRlZk48Wfas/J2y7DGybA2XGHOcloW6DOaVuqwOhZNyU5fVbeqybfCpy7rrpi57dV22UJddj+xoAeqyg/tTl1GXee2py8ycvLguK9mczcqpy1CXpUtYUwElv16G80pdVofCSbmpy+o2ddk2+NRl3XVTl1GXUZdtjanLoD11GXWZ41Vfgy7D/J26DHVZvgwlO0iUZTitlGV1KJyMm7KsblOWbYNPWdZdN2XZq8uylbLsemRHClCWHdyfsoyyzGtPWWbm5DVk2Vn+/jXLsvlSvGQteTZ1GcwrdVkdCiflpi6r29Rl2+BTl3XXTV326rosUZddj+xoAeqyg/tTl1GXee2/al0mZpt4UpfVPb38/fPpsnlIlzyNy0pd5swrdVkdCiflpi6r29Rl2+BTl3XXTV1GXUZdtjWmLoP21GXUZY5X3VeXReqy2viL0GXLIP5AXYbzSl1Wh8JJuanL6jZ12Tb41GXddVOXUZdRl22NqcugPXUZdZnjVffVZUn37OeEuqzu6eXvn1OXjZdhGvLM1zE680pdVofCSbmpy+o2ddk2+NRl3XVTl1GXUZdtjanLoD11GXWZ41X31WV1UPs5oS6re3r5++fVZSXBX9NIWQbTSllWh8LJuCnL6jZl2Tb4lGXddVOWUZZRlm2NKcugPWUZZZnjVfeVZbxdtjX+AmTZfBnWskBlPsaI80pdVofCSbmpy+o2ddk2+NRl3XVTl1GXUZdtjanLoD11GXWZ41X31WW8XbY1/iJ0WSxiozgDdRnMK3VZHQon5aYuq9vUZdvgU5d1101dRl1GXbY1pi6D9tRl1GWOV91Xl9U9+zmhLqt7evn759Vl47wucaIsg2mlLKtD4WTclGV1m7JsG3zKsu66KcsoyyjLtsaUZdCesoyyzPGq+8oy3i7bGn8RsmyZ4jqt/FVpnFfqsjoUTspNXVa3qcu2wacu666buoy6jLpsa0xdBu2py6jLHK/6XLqsG5IHdZlNPO+Zv3/Numy5pJAKkvkYI84rdVkdCiflpi6r29Rl2+BTl3XXTV1GXUZdtjWmLoP21GXUZY5X3V+XWTjW/L1P1l8rf/+KdVlIl/JZfJyyDKaVsqwOhZNxU5bVbcqybfApy7rrpiyjLKMs2xpTlkF7yjLKMser7i/LbOJ5z/z965Zlc57mmXfLcFopy+pQOBk3ZVndpizbBp+yrLtuyjLKMsqyrTFlGbSnLKMsc7zqc8my7vIflGU20Gr+3nX5avn71yzL1su0LmPRCNRlMK/UZXUonJSbuqxuU5dtg09d1l03dRl1GXXZ1pi6DNpTl1GXOV51f12WzJzU/L1r/2r5+9ety5ZlzTN1mTOv1GV1KJyUm7qsblOXbYNPXdZdN3XZXXTZJ/kjUqBdj+yIAgq0QxxQoFGgee3fqUDrTFWgwdXzxtne+P4CLcqvS69roj7DaaU+q0PhpN7UZ3Wb+mwbfOqz7rqpz15bnw2fgsqzsH3G7TNtn+P2mbfPafuct89l+1xbP3uHrcfQugytz9A6Da3X0LoNrd/QOg6t59h6jvu5tp5j6zm2nmPrObaeY+s5tp5j6zm1nlPrOe3D0HpOrefUek6t59R6Tq3n1HoeW89j63lsPY/7CLeex9bz2HoeW89j63lsPefWc24959Zzbj3nffJaz7n1nFvPufWcW89T63lqPU+t56n1PLWep90vWs9T63lqPU+t57n1PLee59bz3HqeW89z63luPc+t57n1PLeeF+mZxYXtyI6gZXHhsIizuMDigteexQUzJywu1D09FXpjceETQbRNLEF0DVmCyDosQUQQEUTa+POA6IYq95KGyziOS0iPryfskuwq0nbZtgu5XdrtYm+Xf7sg3CXiLkd3gboLy11q7uJzl6O7QN0l6y5id1m7S+hdVO9ieJfHu2DeJfQuqneZvQvvXYrvsn8vBOwCfpf0u8jfZf9eCNhLA3uxYC8f7KWKvXixFx32MsRemNhLFXvxYi9n7AWOveSxl1f2gsteKNlLJ3sxZS+v7AWXvQSzF2X2Ms1eEtqLRHtxZy/3tJ6vJaG9SLSXjfZC0l5aaj3vdYDtc3eM7XMf4u1zP9nW0fbZ+mM94XhkJ3VgGncEHtM467BM45jGMY3Txp8njTuvJ3jgWdfF4c5i7m7PsmbCNc0LToVwwtzTl9HMgKJ5BNdQsxkQmZ0B53HAeZQZN3uKX/Srl3pQhNEUXzPrtHjkPHdTIa4rJtNYHF3MiA7TXgNnNveENcgCjEUNSLNIaOBa9EiQD3BFdUGw+8rCYRcejSk8vi5IdkGUCTKLhNrwqYtqz/0iq3323lGPj4Na0WEWRFm4l9XgtIyfODG0fzY5EoRGJcfQs1NONJuJVnIEvCglR8QBnMxtYrU5+YDac8/OSiPDeDn+jO0ldzB30tVRphWdSmzQvuQu02quPwsNDE1HOSfn+EKOnjxKjtA1l6XGGT3J3MRsyFH82bSXRNAcRRY154QkubRPFsiq3A+HrDjOaEhaawZDkl8zFpIme0dWTAB2JvNYju8HajbAk/76Byz0yDiMIiKMvyp2ercWkwSAbXyCnbpxDa8bqwnxEkOe9RezWE3Y/mA1gdUEJ4ljNYHVhOO+rCZYv66pH6sJrCYc2rOasJtetJqQDXgGq5kUPAYUAp7UL+pSTnDSTQUFlhMmYJGsYbaxDjyWEwJOZMCJlCk3e4pjBCwnJBhOLSf070bQcgI+IC8m01jLCfCAu5YTrHKTckL/lPAWZTAWNSLNOquRG1D5iQ3a68U75YQ+LdhWGTy+rkgJVzkpA4Etw6BUe/+jWRuPnFUOB7Wyo3cGHat1wHKCejF0oOy4uvvGDmvocWE2R4gONedgKwrpQ+7XgUoPZ/VUejglmamP+2rLeFlqn5yKQp+x1eNjva9WFFasKEDp6axMJfmL3VcqCqtTUfCOX+ZvGruxUnrE7pS0ooCjpxWFaENNKwp9e60o9IzXigKekFYU+vHQNLS/xFrDhNHQ1NbsKRWFfixU1ztHFlSYPFsm1ykyoB/UQgNWFBJWFHAYY1mDcp+tKHp6t1b0YGBVbBzZY7b2ELuxpjBeim+UJES+iMeiwvYHiwosKji5HIsKLCoc92VRwfr1ls6hdNoSQxYV+kFhUaHrkkWFW4oKkwFPsLJJwdNLcQXPCEWFxck4BRQLFhVmYNGMvqFmc29RpifiREacSJlys6c4Rn9HWF0Ih1OLCjMWFXqxoUUF9AItKqxW6WhRwYo3KSrY5xYkypxvf2tE9kqpRq5ZpTTK8amLuiLYfWXl6G9k1lXGOb6uSCOucsAenUsYlGqfnaJC7x31+DiolR12lSrnswavqICrwsaOq7tv7DCG2OPCbI4QHWrO/Ws5alFhxXGV+8j2tJQeTmFmMs+u1OIBXpbaZ6eosDpFBaz61fzBPvviFaDOilWSv9h99Xkap6jgHV+KCv0jS0qPfgHXogKOnhYVkg01LSr07bWo0D8ho0UFPCFNMPvx0DS0v8RayYTR0NTW7CkJcD8WKu2dIwsq+lmrQEET+kGtNWBRoS/X6JFxGLWo0D/ro+gxb5sR9GBgifkYJnbrGmI3FxVSyOuib/dhUWH7g0UFFhWcXI5FBRYVjvuyqGD9eksMMdffEkMWFfpBYVGh65JFhVuKCrMBT7SyScHTS3EFj1nUpajgzIWAYsWighkkMc3gG2o2y79MT8KJTDiRMuVmT3UMLCrgXGhRoQ9fccmlj1LxXTGZxuLpYnbYYcWbFBXs0wsSZfglkC0inaKCeXqgRjlc0bYiOEWF/l5mXWWc4+uKlHGVk2IQ2JwvLlTOOEWF3jsqO3BQKzss+8pYrZbHyo4Inrix4+ruGzuMIfW4MJsjRIeas3kroBQVpv7Fg5Ue7hdCCj0sv2UdMU+w1OIBXlYlDRYVzJd+6rxi1a/mD4bfbgHqrFgl+YvdV5+qwaKCe3wpKvQPLik9+mVPiwo4elpUgBctalGhb69Fhf45GU0b8YQ0wezHQ9NQAwCtZMJoaGpr9pQEuB8LTZWdI8ta2c9a5Qya0A9qrQGLCuYbZlJUwGGUosLUP/Gj6DFvghX0YGCJ+RgmdusaYjcXFXKUJYo1BdYU5I/WM2sKkMqxpsCawnFf1hSsX295ISqnLS9kTaEfFNYUui5ZU7ilprAY8CSrmip4sKbQfzlAawpOwingMW8z18UFWDQv4BtqzlhTeNxEOlOuyyfWFHCl1JpCf+dOawr9Oqc1hQBeoDWFYIWOssOsk1pTsA8vSJThN0FqRJon4jVyR0f7oYNs7HBqCv2tzLrKOMfXFWnCVU5qQWBzvr1QmYI1BeMdlR04qJUdvTPoWK39t3A2dnjLnLLj6u4bO4zhgBLFhdmE6FBzHp2agvOtErmTbE9L6eHUZSb7PgZdW/CyKlWcmkJwagq4WNb8wT4A49WfzmpVkr/YffWhGqem4B1fagr9c0tKj/6mu9YUcPS0prD9NMDVqjWFvr3WFPrHZDRtxBPSBLMfD01D+0ushUwYDU1tzZ6SAPdjoamyc2RJqvtZ0xXQKTOgH9RSA9YUzNfMpKaAw6g1hf6Bn4oerClgYKm5Y0+/dQ2xm2sKxa9jnlcWFVhUkD9azywqQC7HogKLCsd9WVSwfr0lhl5mrIkhiwr9oLCo0HXJosItRYXVgsfKJgWP+aVCAU//5QAtKqBzVfBAUWExPx+n6w34hprN6x1lejJOZMaJlCk3e4pj9EulutAMwynOtvR37rSo0IsNLSpgQGhRAb7nXdmBRQV4eEHZAWOxscMpKpiHBzTK0bvqimD3lZWjv5W5sQOPX9mBq5wUg8CGobGxwykqOKucM6gbO5yiQv8tnMYO8MSNHVd339hhDLnHhdkcITrqXtkpKjjfKnF+UW+jB46hfXFipQdeVqWHU1SITlEBq341f7APwHgFqLNileYvTlEhOUUF7/hSVOjXzEoPLCrg6GlRYfs5wqtViwp9ey0qmFclStqIJ6QJpqWHoAKLCjgaNbXFokI/FpoqO0eWpLqfNV0Bsc7g+EFFDxYVzNfMpKiAw6hFhT6vVfT0bl3Rg0eWPTv29FvXELu5qLDMax5yZFGBRQX5o/XMogLkciwqsKhw3JdFBevXLTHEE2BRwUu3WVToumRR4ZaiwrIa8MweeMz7E7SoABe1lLXenpeCp0+pcRGp4EnQWMzmkWWdHocdKzTWKe/3VF3dXUktKgTbuBYVenYoKLq5rUWFbBvXokJ22dELzcoOY1N2wFhs7DD7alHBCFotKsAVbUUFs68WFTx24PErOxxOOKucPIiC7WXacZUz3rGxA9tXdqBQXXsN19gBnrix4+ru7UmF3jBeNxUXZhOiQ825L15tRQUcV7lvbE+r0gPH0KwjGz3wsio9DCmUHqbQoPTA9rWoYPxK8wzHr0bHrzR/MfsqPZximXd8LSo49OhOqRYVYPRqUcGGWi0qdO1rUQFWUueEalGhX8M1De0Fti46MBo1te331KKCUftSVMAj65MK/Yqlkwsmxw9O0QPywBnGWlTo13MtKvQcVPTgkcV8CBO7dQ2xG4sK+TLGYU0sKrCoUP9oPbOoALkciwosKhz3ZVHB+nVLDPEEWFTwRD2LCl2XLCrcVFSo9163Psok2/t+tajQX4EWFUzuLEUFHBEFT38Fuoj0RPDXm1pU6Bvr9PSDdMYOmXLDDtHV3ZXUogJ4QS0qdBdYiwqdS9aiArh0LSpYl67sMBGl7HCizFm7KzvMvlpUMIJWiwpwRVtRweyrRQWzSt3MDlz5nKdONnZYoXwrO1CorlbQVnaAJ27suLp7Kyr0hvG6qbgwmxAdas6W31pUwHF11r8H6GE56y45Gz3wCZDH00OKCg49+kVwy0kcv9L8xeyr9HCKZd7xtajQjZVLj/olEdO6FhVsqNWigqGHFBX6lVmLCnBCtajQNa5p6KPooaltv6cWFQwTpKiAR9aiQr9i6eSCyfGDip7+tBU9/UKrRQUYxlpUgMcSjFtX9OCRxXwIE7t1DbGbiwp5XebEmgJrCvpH65k1BUjlWFNgTeG4L2sK1q9bXognwJoCpiKsKZguWVO4qaZQb71ufZRJtrf9ak3B3KaTmoJJnaWmgLfAzsADwzmveNtPzOY7wTo9/bMLOpF4/0ynvN8T79XXVyrAUw61ptBdYK0pGHbIMgf39GtNIT2aHcam7ICxOGGHcMJjB1zRxg6zr9YUcJXzjq8rEvxw4Rk7YFAeYIepMyg7sH1lB+rU1erZyg7wxI0dV3dvNYXesD2J0BrYTYgONWfLZK0p4LhOJw+ATM4DID498LLO6YEPgMjvfNj2taZg/EpXUMevkuNX+koFs+8pPZzja02hG6tKj+6Uak0BRq/WFGyo1ZpC177WFDBtxBOqNYU+YZU01Kbe1WQbS2pr9tSaAiTp3pG1pgAPddkfjvD9oKLHFBAQPVpTgGGsNYV+PVf0AI0kAGxjMR/CxG5dQ+zmmkJZgpdhYk2BNQX5o/XMmgKkcqwpsKZw3Jc1BevXLS/EE2BNwdP0rCl0XbKmcFNNgc8p8DmFg+12duDKx+cU+JwCn1PY9uRzCk98TmG6xDlPYeKDCiwq6B+tZxYVIJdjUYFFheO+LCpYv26JIZ4AiwqYi7CoYLpkUeGmogIfVOCDCgdbZQcenw8qKD1sdKiZDyqYfU/p4RyfDyq0xnxQ4VhUGMfLOKZ1mFlTYE1B/mg9s6YAqRxrCqwpHPdlTcH6dcsL8QRYU/A0PWsKXZesKdxUU+CDCnxQ4WC7nR248vFBBT6owAcVtj35oMLTHlQYx8ua5jUl1hRYU5A/Ws+sKUAqx5oCawrHfVlTsH7d8kI8AdYUMBVhTcF0yZrCTTUF/vLDDHfl+csP0L6yw+GEs8rxlx/4yw/85YdtT/7yw9N++WHMl2XNKceFRQUWFeSP1jOLCpDLsajAosJxXxYVrF+3xBBPgEUFT9SzqNB1yaLCTUUFPqjABxUOttvZgSsfH1TggwpQqDilBx9U2BrzQYWuqDBdUojjuK6PLCpQhm1HdpZvyrBrc8owyrCTBIUyrAcpZZju+QIy7Bby5eESpiGus5Dvn7/93b/+/uef/vzjd7LrX8UaRR1FHUUdRR1FXbduUNS10fkMou6R+qzehxu+ittlzqNQ5g79GeAotbr2lFqOsgIDpRalFqVW49ENUmuKl8LyYQmBUstODqVW155Sy1FWYLDailKr2Si1jqYTFlFqvZTUyvdUWrPwzYDH51sSKjzuSyewplJpHdcBKi0qLac9lZalG5WW7vnaSmu+FBKvcZYfyKDS6iaHSqtrT6XlCCswWGlFpdVsVFpH0wmLqLReSmlNd1daRgKd8G2l0lIrlRZM+xP4ZnMBKi0qLUs3Ki3d85WV1jxcwrxmfW6eQqubGwqtrj2FlqOrwGCVFYVWs1FoHU0nKKLQeh9Cay5860038q2fiYf4RqFV1wEKLQotpz2FlqUbhZbu+dpCK1zyGNI08eFB25hKq29PpeUIKzBYaUWl1WxUWkfTCYuotF5KaY33VFrP51s/Ew/xjUqrrgNUWlRaTnsqLUs3Ki3d87WVVr4MKSxhpNKyjam0+vZUWo6wAoOVVlRazUaldTSdsIhK66WU1vy2ldbj+UalVdcBKi0qLac9lZalG5WW7vnaSmu+pBL3Y+DTg7YxlVbfnkrLEVZgsNKKSqvZqLSOphMWUWm9lNJavxalhXyj0mr7UmlZ12x8wxOg0sIllUrLdEml9WSltV6Kdki8o2UbU2f17amzHFkFBiusqLOajTrraDohEXXWS+ms+7/j/Y6AMydzAjgKra49hZajq8BAoUWhRaHVeHSD0FriZQkhTwPfPGgbU2r17Sm1HGUFBqutKLWajVLraDphEaUWpdarAY5Sq2tPqeUoKzBQalFqUWo1Ht0mtdaylo18IwY0ptTq21NqOcoKDFZbUWo1G6XW0XTCIkqtF5NakVKrnczjAUep1e9LqWUNlFqUWpRajUe3SK3pMhYPzQullm3skYhSq9+XUssarLai1Go2Sq2j6YRFlFovJrXe+NsH7wK4tThW7kxpqIcwjVPJnpc+g6XUOgMcpRalVrcvpdZ1T5mfr0NqrZcpjcs6UWnZuUEQUWlRaVFpmWGh0uq6pNLaR4dKq5vHNwA4ieXpUYAbC41C56hUWmeAo9Ki0ur2pdK67inz81UorTVchjSua+ZNLdvYIRGlFqUWpZYZFkqtrktKrX107iu1EqVWO5nPADi9qdU1ptQ6AxylFqVWty+l1nVPmZ+vQ2qlS5ryOlBp2cbPAhGVlm1/DiJcRqm0qLSotLY9qbSeprQylVY7mdcBHJXWCeCotKi0un2ptK57yvx8HUprvoSY8zDxJ7Vs45cmEaXWCYlwHaXUotSi1Nr2pNR6mtSaKLXaydwPcJRalFqUWnZfSq3rnjI/X4fUWi/TIv7Eu1q28WuQyF00KbUotSi1KLW2PSm1nia1ZkqtdjJfHOAotbz2lFp4Ved4o9S6mii1dtOXKrXWIV3KVa1L4F0t2/iOJKLUgkHZSESpZU/rnEWW2u4CtrGIUutgpdTaDvOWpdbrflOLfLuFb1RaXnsqLbyqc7pRaV1NVFq76YtVWmG4THNxW97UgsZ3JBGVFgzKRiIqLXta5yyy1HYXsI1FVFoHK5XWdpi3rLQ+229q2Qgm33TPW/hGpeW1p9LCqzqnG5XW1USltZu+XKUVL8ua1zVSaNm5uR+IKLRgUDYQUWjZ0zpHkYW2u35tKKLQOlgptLbDvGWhNXwKv/0kTxFun3H7TNvnuH3m7XPaPuftc9k+19bP3mHrMbQuQ+sztE6D9EqZpyfzxdGVMs9rT5mHV3XOVsq8q4kybze9qsz7dGXJv3z7x1+OMOHYv8DY3yak13wpAIhjYorCFIUpCh6fKQpTFMermKIcGr9FTFbzzSnKUiYzzjYe5FLFejjolMOHuHbXNZVLTegMuQxKGvsVtoRB6hetXLoXk21cgtDuGZcPKXXToaYBHamY49pFXMkFPsSlb1z8WmbeNi4LYIz9BZY1PfTrqphsWfbGDGW5zHHOg3595ZEpiqQcTBL0ZJgkHG1MEpgkMElgkvBuk4TwNSYJ4zCMl5CnFGYmCTZumCTU5kwSmCQwSehbM0nYG39NScJXWUnQJGFJYQg33OuQexTMEfRkmCMcbcwRmCMwR2COwBzhLEfI0PhN5AjzZRrjOk/MEUzYMEeozZkjMEdgjtC3Zo6wN2aOcEOOgI70JnKE5RLTEKd0w80GPjRpYocpijY+S1Fm275MSLSHuTFFqelIZ/uqUpR49xRFvjPJFKXblynKdc8bU5TutF8gRelTns+fooSMKUoq+O9GdPJTlKlMSerHPq/14Yej6fnPQ/hljD49zGUezZWcpijjh9iPfU1RunXx+SlKSJd1GqeoL0h4gylKYIpiG98xRZEXOyRIUR5bRSnnPQXb6UmK8jmqKMk9/uulKEnHybb3UxSvihLOUpRgMxLHcExK7Jabojy2ipIKN/GqXi9FKbMaYW1+xRQl+MdnitIa66yzitKvsKyi7ClKipe0DmOaH/OyXE7XZ5kuJodMDj9Pcig7v3RyWC+9s7255LAL1AeSwzJWU7+vJof9+vRVJodmBJ+dHCZM+JgcHk2fLTnsTvsFkkPWr5xsA9zwTdSv0noZp3KJ8hgOc0PmhswNmRvW5swNmRsyN+xbMzfcG796biipAWYb4wK54RghN0yLm22kGXLDNEFumEY3N0wBso24QrahJswNxWxywxQgN0zRzTZSzjY3TDPkhmJyso0bcsO8XIZ1DXl6zO8Z2+licrg3foXkkHmZngzzsqONeRnzMuZlzMteIC+7JW2YwqUsMUnfdMus4UvOGqQ01P+0N7MHaMzsoW/P7MFJFsDA7IHZw1vMHspIBFPAeNXsIQzxUv6M6Sk3pI4TWc5h1GDpZ3CU32nq/OxsBsvaM8d+3Z9XmJdcTbbxDTM4Q2Mxz52Xtd9VeswMJn8Ge1B6M8i8wTZm3rA3Z97AvIF5Q9/6/ecN5bLND/zdSJ1XzBvSZQplqR+f8pQzE4fzKXzpxCEwcWgnw8ThaGPiwMSBicP7SBxWeyWn1CkDZH6A+LUTh3yJQeoOzBuOM8i84Xj6zBvExLyBeQPzBtyXecN1zzPq4Erp5Q03UWfoXuDw6nnDdMnTVBD9lKcjmTi8XuLAOxX7yTBxONqYODBxYOLwFSYOHnVeMXFYLlMalpx5p+Jlp/ClE4eBiUM7GSYORxsTByYOTBzeZuIw9+vV86nzeolDCJdlCuMwsuLwslPIxOEw6kwcpD0TByYOTByYONTGn4U6r5g4xMs85/JfJg4vO4UvnDhMKxOHdjJMHI42Jg5MHJg4fOmJwytR5xUTh/GSxlw+mDi87BS+dOIwMnFoJ8PE4Whj4sDEgYkDUmftfPeMOiW9mFO/sjFxeFTiMF/GqWAuM2940Rlk3nAYdeYN0p55A/MG5g2vkTdowaH7zsEt1GHe8Ji8Ybks65TWuDBxeNEpfOnEITNxaCfDxOFoY+LAxIGJw0smDkgdJg6YOKyXdcrrHHmn4mWn8KUTh8jEoZ0ME4ejjYkDEwcmDp+XOkwcIHGI8TKVeQoLE4eXncKXThz4/qf9ZJg4HG1MHJg4fNWJwytQh4kDJg7zZclL8XG+xuFlp/CFE4eZzzjsJ8PE4Whj4sDEgYnD56XOm0kc+sYedar5+YlDGi5DWTbTymccXnYKmTgcRp2Jg7Rn4sDEgYkDE4fa+E7UqeYXSBzCpfxvHPkah1efwpsSB3n906fyKXcs5FMeeZBPeRG1fEpeIZ/yDKV8TtvnvH0u26e8DUL72TtsPYbWZWh9htZpaL2G1m1o/YbWcWg9x9Zz3M+19Rxbz7H1HFvPsfUcW8+x9Rxbz6n1nFrPaR+G1nNqPafWc2o9p9Zzaj2n1vPYeh5bz2PredxHuPU8tp7H1vPYeh5bz2PrObeec+s5t55z6znvk9d6zq3n3HrOrefcep5az3oXS/9oPU+tZ/0ujv6x+0XreWo9T61nfVOI/KHvGtM/Ws9z61lffK5/tJ7n1vO8u5z03HLcdXlUipsE6fM1pXW2h2xzMzGvY//C/gK8xbyOryxBywgMj7EmLN36UNJHE8vFNK8rNBbz3Dcu68Oc+1JxyRzEZBvPks/2e8qXArN5mq+YZlisUllFlv7HjcoiXnL4Lp3LYVaTaSxZ75IqJ67WNcrOfYo4SDrX/xZCSQbKeU+wcOvEmJMvCUa99M42Z284SuIiF2/2LWMu6ezRVjp1jx9KKioj1e0rE9Rzp9pwLtW+BJsO5+IdNhmcdJxs+6Gc52JSbBmrNfd9iq38H56A/sPB3UtG6xiuWzoR3dZYeoUUd/yQjUgYSiI+xX6m5KomlFI6AtNs9i0jZb7lWkd1AFer9mBT5KzppD3+nICrVeQk41VLsfW3Y6pXjY5XTdXe7SueOuKsuMeXZGbt9l0lK+j1s0SUmExriT8x2xRXhrprn8rRp7U7Sw18zLmjpvxm1RDN2CcuEncjrBq6OJk9ZX56X1DTAPm6mO270cvaYq5Eltkpg3PHuVxz6I9clu2cTcqU1Idt42I+OPq+cVuKO4fLkENOj3oax5CpFlvKQrKT6IFiSz85BQ+WRGfFlsWWKLTY0i9JtdgCnvbMYotk0/2ekoZP3eScFVuEq0O3pwiAW4otVgOKhjTtt2KLI0sdWV6LLXbNKxfUe1uVxRmuqEpou6/EnVtsweOX/5SRsmueFFuwLDCflAUWpyxgSnFbsQWWCL3WpXcGHasV1jwttoAn1n84uPtWbDGG8bqp9RWzCdGhZlMNL3NVFlNggQhIvK5absExNKtSteGrFut4DzZDOCu3wOq5scicvxbmHL9CdboV/My+Wm7Bwphz/HVdrIiWsqSM1MFUqy0weCfVFufB0C/v3Vcwk2pe+nU2DrYUdybVpxVRJFK9vxJPqm/mg6PbrWuQPCTrk5X1vB2wn8wJoXg7oGvP2wFO9R8MvB3A2wF/vZb8fEABqu9VS67m598OmOMlhrw+5hVLVEpUSv2+VErWYKURlVKzUSkdTM8HEczkW1dKcAP0rkrpBkIFmwtTKbX2VEpUSlRKlsVUSvueb0oppcuwLvOcKJXs3FAqde0plRxlBAarjSiVmo1S6WB6PolgJt+dVJJn9F5RKj2ZUJRKWyhSKgGNKZUolSiVtsZifstSaboM07oESiXbmFKpb0+p5CgjMFhtRKnUbJRKB9PzSQQz+e6kkn6hjVpJZ+cEUS+sleRLNDcgilrJtqdWwquiVqJW2hqL+S1rpeUyD7E4H7WSnRtqpa49tZIjjcBgxRG1UrNRKx1MzycRzCS1ErXSc7XSbYiiVrLtqZXwqqiVqJW2xmJ+y1ppvUx5jNP0mJeeUixRLPX7UixZg1VHFEvNRrF0MD0fRTCT708svfKPWT8ZUV+UWJJVujvy50MUxZJtT7GEV0WxRLG0NRbzGxZLS7iUw8UQ+BY825hiqW9PseRoIzBYdUSx1GwUSwfT81EEM/n+xBK/sdRMZ4hyxJLcWXqcWBJ28M7SoT3FEsWS41UUS4fGNxAKWP3mxVK+rPMyz5RKdmoolbr2lEqOMgKD1UaUSs1GqXQwPR9EMJOUSpRKr4soSiXbnlIJr4pSiVJpayzmtyyV5ktepxAHPoRnG1Ms9e0plhxtBAarjiiWmo1i6WB6PopgJt+fWJKfraVY0tk5QVQVDd0MvSKiKJZse4olvCqKJYqlrbGY37JYWi/DsMRlolayc0Ot1LWnVnKkERisOKJWajZqpYPp+SSCmaRW+vq00n0RRa1k21Mr4VVRK1ErbY3F/Ia10jpclqEsEHxruG18ZxDZ+KBWolZy0v0NRTiG1EoHE7XSbjoh0ReolZZ3J5XeF6EolWx7SiW8KkolSqWtsZjfslRKlxzHgT+wBI3vDCIbH5RKlEpOtr+hCMeQUulgolTaTSck+gKl0vy2pdJqTe+NUJRKtj2lEl4VpRKl0tZYzG9ZKk2XPA45T3wNnm18ZxLZAKFWolZy0v2NRTiG1EoHE7XSbjpBEbXSkwnla6X3TyhqJdueWgmvilqJWmlrLOa3rJWWy7CsZTWjVLJzc18Q2figVKJUcrL9DUU4hpRKBxOl0m46IdEXKJXeyk/RyiIOc/YVEIpSybanVMKrolSiVNoai/ktS6X1Mk5xnjOlkp2b+4LIxgelEqWSk+1vKMIxpFQ6mCiVdtMJiSiVSKgbCUWpZNtTKuFVUSpRKm2Nxfx2pVIchsu8zvM4B2olOzn3JZENEGolaiUn3d9YhGNIrXQwUSvtphMUfYFaaSha6ZO8DG/7lHfiyaf86JJ8jttn3j5FW8mnPLknn/JiCPlcWz97h61Hfc2e/tH6DK3T0HoNrdvQ+p1aP1PrZ2r9TK2fqfUz7WfX+pn2ftoJTu0M59bz3HqeW89z63luPc+t53m/8Kc8s9hn03F1tj2my8JpmD4i01ef6aslWSyuB0yffabPyPQJSD1JyDnBCcorroIrw/TsMz0i0yvAD6YcKqZNY6pLqkuqS5wV9/jPU5d1T4P0oYL+0F7CGdRldpEuS4RRl7qQGKRXytvGujgZpM+I9NlXlzOqy9VeiSyzHtLLggzqUjzTqMvqw7bx2jn6vnGbulziJS+ycQr9QOjfA/rRQN7Z9qAfEfoZoF/68aCfBovKWEINoL/40F8Q+rNFV5R1BykXl5oLdE4/IvQnH/oJoQ9CPAvHCH1Cn9Dv9n096E8u9KG9hDNAf/KhPyL0HR3vFjXq4mSgvyD0Fx/6C0A/QUVCllkX+hmhHxH60Yd+PDr6vnEj9MdLLumDvP7KZ360zA+NiaExMTYmxj0PaEyMjYmxMTE2JsbGxNhoG1vPsfWcWs+p9Zz2FKP1nFrPqfWcWs+p9Zxaz6n1PLaex9bz2Hoe9+yl9Ty2nsfW89h6HlvPY+s5t55z6zm3nnPrOe+JUes5t55z6zm3nrP0fM0ZBuYMtvEdc4bo5gzS3uYMco/B5gzRZfaQy/Vks+9WI+lsc/KGo5AAbpsUYsxOziCDhMcPITk5w+zkDFL0gYVJ7ZgzJCdnqLmVbT/kteQMZvxGcU1LJ/ViPAH9hz5FcAzHLMFuuTmDrMw2ZyiEgpxB1CtelYwA5gyzkzOIugRXq6MNOUNycgZhocNsCYlkvErr345XuTmDk1+Ip0LOEP3jD3KD2OQMNRM4mCSimDOo6YvNGdbhktMalvDIpOFWdjmPTNltj128cf3xthvXwmtkV9Vxh/brujroGlx0DOOK6MpwiWWRcUv+VcTYfd371j46g963tujKDrryCbqyg67goKuC37Yf8uygSzzTLpLqxHgC+g89qRzDEVZ2y0WX3By06CrLMaBLFl+8KhkBRFd20JVP0JUddAUHXSfokIgAdDkSVrzKRVe19zOwOugavONLAAC5oEQt8eSSy71rzQeodM+XfoBq+Cvkmi7zXFIMfYWZj67+xvZt6JJxaHP9kVP/mae+bkBqYLeZKkjjZ6UKMsli3iLu04MBsO/IFIMpxgemGDgrzvGflWJ02LkJiCmkS8HhOp3Xf30eTtNEHpKH20V/5Ty8KeCmS1qGNMuzFI+KuN9cn7LQ2xl7BM6PisDMCGQE7uP6fiIwPz0Cl8sQlpzD8twIXB4VgSMjkBG4j+v7icDxORFYZmSNzw7A9VEBmBiADMB9XN9PAKbnBOA4zrkw8JkROA+PisDICGQE7uP6fiIwPicCc9GAy2PvQ2gABg3AsH3G7TNtn+P2mbfPafuct89l+1xbP3uHrcfQugytz9A6Da3X0LoNrd/QOg6t59h6jvu5tp5j6zm2nmPrObaeY+s5tp5j6zm1nlPrOe3D0HpOrefUek6t5yQ9c+3i2mXOhmvXA7d0GAAMgOu4vtcAuAXeMVyGJQzFJ0jve9H7kdqfixcXr+u4vtfF6wF6m+LXIR4OASBPppsAyBgAwQ2ApDfU+0FYMABmPwBGDICIASCPiTsBIGb7GDUGwOgHwAIBkAYIADE5ASDmq88Hs3F0eNkTtjEAxGwDYMEAGP0AkLgwARAxAGRcnQAQswkAnRSzpPkBoBNtlkkMAHEcJwAyBoB8ScQEwObppvEzil+F3mXi1/TA4+sD6f2Z6f24W2ekN+l9HVdn8Xrv9Db3jg8wPwRAxACQB+9MAEQ3AJJ86dwEwIoBsL1AxY5gxgCQF6iYAEh+AIjZBICg2gSAvFvPCYAVAiAFCAAxOQEg5qvPR7PR0drSXLYxAMRsA2DFAMh+AAjUTQAkDAAZVycAxGwCQCfF5GN+AOhEmxwPA0AcxwmACQNAn+vtA2DDtGn8jHvHhd5zzmEebrp5XBFEessfL0Dvxz16RnqT3tdxdRav905v8+zlAeaHAEgYADMGQHIDIEUIgDRgAKx+AEwYACMGwOgHgJhNAAiqTQBMbgAkCXpD7wgBICYnAMR89fnuiwrmawyyJ2xjAIjZBICcoA2AyQ8AgboJgBEDQMbVCQAxmwDQSTFu7QZAnWiT42EAiOM4ATBjACQMgA3TpvEznr2M8VLyk2EM1N73o/fjvrpBepPe13F1Fq/3Tu+pD4ADzA8BMGIALBgAoxsAKUEApAABIKVhLwBmDICMAZD9ABCzCQBBtQmA2Q2AJHcLDL0TBICYnAAQ89XnR7PR0drSXLYxAMRs6S1VZBMAsx8AAnUTABkDQMbVCQAxmwDQSTGLnxsAdaJNjocBII7jBMCCATBiAGyYNo1lkp9O75SWRHbfjd2Z7Ca7a2Oy+5zdc8/uoxC/9iazbtxmRHaPPrtHZPeI7B59didkd0J2i8kJADX3AZCQ3clnt97p7wNgRHaLyQkAMV99+shu2Tg6vOwJ2xgAYjYBoHeA+wCQS3ECQC7auI0MjQkAHVcMADX3AVAnpZ9Rn911ovs9kd3qOBgA4mImAGT0zZU0iW0ai18/nd05DiUb4RPnd6P3SHqT3rUx6X1O76Wnt7yXBwNgQnpnpLdUMJ0AyEjvjPTOPr1HpPeI9BaTEwBq7gNgRHqPPr0z0jsjvcXkBICYr2L6SG/ZODq87AnbGABiNgEgJ2gCQC7FCQC5aOM2MjQmAHRcMQDU3AdAnZR+Rn1614nu90R6q+NgAIiLmQAQRzRXIh7rBID49dPpPeU56e9+Et71j1eGdyK8Ce/amPA+h/faw3tx4T0jvCeEtzwl5ATAhPCeEN6TD++M8M4IbzE5AaDmPgAywjv78J4Q3hPCW0xOAIj5qqaP8JaNo8PLnrCNASBmEwBygiYA5FKcAJCLtm6D8NZxxQBQcx8AdVL6GfXhXSe63xPhrY6DASAuZgJAHNFciXisEwDi10+H95ynMGbC+17wjoQ34V0bE97n8A5DT+/VpfeC9JZ335oImH16yztWTQTMSO/Zp/eE9J6Q3mJyIkDNfQRMSO/Jp/eM9J6R3mJyIkDMVzV9pLdsHD1e9oRtjAAxmwiQEzQRIJfiRIBctPEbGRoTATquGAFq7iOgTko/oz6960T3eyK91XEwAsTFTASII5orEY91IkAd++n4XueQAyvn9+N3IL/J79qY/H6A36HndxhcgK8I8AUBvvgAXxDgCwJcrtUJgRkBPiPAxeSEgJr7EJgR4LMP8AUBviDAxeSEgJivivoIcNk4urzsCdsYAmI2ISAnaEJALsUJAblo4zgyNCYEdFwxBNTch0CdlH5GfYDXie73RICr42AIiIuZEBBHNFeiLuvEgLr2UwmeLsOal4UC/G4AJ7/J79qY/H6A39HwO7j8LnMCMbAiwOUHYZwYWBHgKwJ89QG+IMAXBLiYnBhQcx8DCwJc/MiJgRUBviLAxeTEgJivovoIcNk4+rzsCdsYA2I2MSAnaGJANp0YkIs2niNDY2JAxxVjQM19DNRJ6WfUB3id6H5PBLg6DsaAuJiJAfVES3BxWicK1LmfTvAwxzHy/vfdCP5N2ZEIJ8LrRRPhJwEQkkF49BEeEOFhQIaXuXOjIAxI8TAgxot/uIGwIsdX5LiYnEBQcx8IK3J89TlezhIioVwNhILanFhQ+1VfH1kuG0fn113RgOGgdhMPep4mIOSSnICQizduJENkAkLHFwNCzX1A1Mkxc+sDfZtzsy8ivfoRBoX6nIW6+KaFurixExfq7k+HepLfzUuPfY0qUbQ3JopqY6LoHEVcDrd977UcbtvMBvQQ7lr02bKBG1GULzHF9ZYK8VUl7bppV1K7ttrV1q6/dq23q79dte06bld2u9bb1d+uB3eFuGvGXZ/uinVXmrv23NXork93xbpr2F3V7jq39dw6bv22bluvrdN9HLbPvcftc1el1JeWR4R6vWhC/SQA1iw/qW49Xn9+2jIqyPsYLcvkwvHcQ5jhMkNYYNxClGvHgQsxwsgFebOlmYpqw1lTu5ngoK/BtNyVF1ujy4RQ+jTeVa5ptE6oNvVX6ED+4ZgbCbnBcN2S/fstiSuL9WK2IJMztcDTN5ljTOsI2LRAX5LarxLVhgtKHe1+7dlmyhxfZ9XxCvUA4xXiKSbVUK/CpVQ9EFIYeTetyQ2y+7PmQvPDWi+bT1WayyXHKeX1hvox+f7CfI/kO/mujcn3B/h+WOUOK+kgP5Zg+S6K3PI9n/B9gsssKzmMW6HTCd8dXS3TC3wXG86a2oHvwnLLd3EEdJlCIofvk8N3obbLd8B5dgwHove0n3y+Tw7fRbZbvkvkY0xX7lu+S/xbvosNF5Q62pbvjuyvs+p4Ber+6imW7+JVuJSqBwLf5ZdjDN83kJvm8hDcke/p6XxfL2OON/2iO/H+wngPxDvxro2J9wfwfljkDgvpIAe3eJejW7yPJ3jPcJllIYdxK3A6wTu+TDrIPALexYazpnbAu0y6xftwgnd5H7XFe3bwLtB28Q40Hx3DAeg97LOP9+zgXV7ObvE+nOBdVgSLd1kSLN7FhgtKHW2Ld3y/+zarjlfgG96rp1i8i1fhUqoeCHiXldjgfeO4ab7EHu/xOXifyljMpPvd6E64E+7amHB/AO6HJe6wjA4J4T7I70NZuKcTuI9wmWUZh3HTarMzcEX9wcgVNDlwFxvOmtoB7gJym7CsJ3CXexMW7qMDd0G2C3dgeXIMB5z3qB99uI8O3KU2beAuV+XEdIW+hXtw4C42XFDqaBu415kyx9dZdbwCf3yteoqFu3gVLqXqgQD3hHDfKG6aL6GHe3gO3OecxjSxNn83vPPLWaS7NibdH6D7YY07rqPRobv8drOlezyhu/N0Whhh3LTW7AxcEX8wcuVQDt3FhrOmdkt3Jbml+3JCd7kzYemeHLoLs126A8yjYzjwvGd98umeHLpLZdrSffHprtS3dB8cuosNF5Q62pbu+LPo26w6XqEeYPNDWB+rV+FSqh4IdI9I9w3jprn47pHuw3PovkxLSHyw7m5wD6Q76a6NSfcH6H5Y447raHDoLiNu6R5O6B7hMss6DuOmpWZn4Ir6g5ErbEK6qw1nTe1AdyG5pft8QncZfEv36NBdmO3SHWAeHMOB5z3ro0/36NBdViJL9/mE7kJ9Q3cZKUt3teGCUkfb0h0Xs21WHa/A5ax6iqW7eBUupeqBQPeAdN8wbprPa0d32Xw63dc8hZxueDUa8f6yeI/EO/GujYn3c7wvh0XuuJAODt4nB+/DCd4DXGYxwbhpsdkZuCL/YOQKnBy8iw1nTe2Ad0G5xft0gne5NWHxHhy8C7RdvAPNB8dwAHoP++DjPTh4l9K0xft0gnfBvsX74uBdbLig1NG2eNeZMsfXWXW8Qj3AJoiwPlavwqVUPRDwPgDexac9vC893pcn4z0NlxjGKY3E+93wnoh34l0bE+8P4P2wyF2br/KlMEv3jHQf1hO6D3CVZR2HYdNiszNuZVcYuMImh+5iw0lTO9BdSG7pLt+uR48pyHHoPjh0F2a7dLcwj6tjOPC8Z/3g031w6C6laUt3+V45hnSlvqX77NBdbLie1NG2dNeZMsfXWXW8Qj3A5oewPFavwpVUPdAsuuKoFu4bxU1rcdMj3OfnwD1NsXwQ7neD+0i4E+7amHB/AO6HRe7aXN9GaeE+OnBffLgPeJVlGYdh01qzM25F/MHAFTQ5cBcbTpraAe4Ccgv38QTucmfCwH1YEe5ic+Gu/9CxfHEMh7DoUC9bDtzFDHCXyrSF+3gCd4G+hbu8TcbCXWy4ntTRtnDXmTLH11lFr6geYNNDWB6rV+FKqh5o4S5fCDRw3yhuWos7HuE+PQfu07zEaSHc7wb3TLgT7tqYcH8A7odF7tp8le+DWbgnB+7zCdwXuMqyjMOwaaXZGbei/WDgCpocuIsNJ03tAHcBuYV7OoG73JewcF8cuAuyXbgDy+37bcRwCIse9YsP98WBu9SlLdzTCdwF+hbu2YG72HA9qaNt4a4zZY6vs+p4hXqATQ9heaxehSupeqCFu3wd0MB9o7hpPW8vuWlwP7zH6Xa4lzgY58wn5u8Gd/6eCeFeGxPuD8DdfVnd6ryrbnDeVTfIdeOpl+UZrrIs4zBsWmh2xq1oPxi4QgwH7mLDSVM7wF1AbuF+8q66QW5LWLg776oTmw93YPnkGA5h0aPef1edmC3c5UwB7ifvqlPoW7iPDtzFhutJHW0Ld+dddXVWHa9w3lWnnmLhLl6FK6l6oIU7vqpOPNqD+9jDfXwW3NehnAzZfi+2z2Q72a6NyfYH2H5Y467NV+c9dfrmeMv2k/fUDc576gbnPXVSZ3bGrUg/GLhCJoftYsNJUzuw3XlPXRA/QI+p74+3bJ8ctguxXbYDyu2bbcRwCIue9JPP9slhu/OeOrkqJ6Qr8y3bJfwt28WG60kdbct25z11dVYdr3DeU6eeYtl+8p46fcm8YTu+pq69b9a0lh9bP7L96a+pS+EyxDGv/DLc3di+kO1kuzYm2x9gu/uWulWObdkuB7dsH0/YnuEqyyoOw6ZlZmfcivKDgStkctguNpw0tQPbZc4t209eUjc4L6mTX6sGtp+9pE7/oUO5fbGNGA5h0ZPef0mdmIHtzkvq5KqckK7Mt2yXFcGyXWy4ntTRtmx3XlJXZ9XxCucldeoplu3iVbiSqgdatss6bNjuv6Nu7t9RJ5tPZ3vI6xR5x/1+cF8Jd8JdGxPuD8DdfUvdii+pW5131MnPbTlnXiYQLrKs4jBqWmV2hq0AA8atkMlhu9hwztQObHfeUTecvKNOfz/Hst15R53YfLYDyu1rbcRwiIqe9P476sQMbHfeUSdX5UR0Zb5le3DYLjZcTupoG7bXmTLHP3lHXfUAmx3C6li9ChdScUCLdnxDXXvPrGk8hx7t4TloL0tPGTO+Xv5+aJ+Jdhu2RPt1xIh2RXtYXbTXpe9woLWcOKBdbrbimQd54zeivWK8s5U5dIatAGOBfUOY7URUG86Z2hHt2V6SPt3lOEyQG76I9mRdUG0naE+W5I7hCHO75aI92fjTM0W0Zy+idQQQ7bNdI6oNl5M62oB2mSmLdplVxyu2V9v0Ixjs6li9ChdScUBAewX2wST+7KF9qOaG9uHq9bejfVmHaVqJ9vuhfSHabdgS7dcRI9or2uvgGLTHuvQdDqRfege0L96ZB62pAtorxjubPEeFw1aAMcO+Uk9GtLtzVqvvgPY6It3x19FzmHKuq/Ut1ZeI9niG9mhJ7hiOMLdbLtqjjT89U0T76EW0jgCiHdaIasPlpI42oF1myqJdZtXxCvUAi/bBro7Vq3Ah1S+zG7THCuyDSfzZRXs172i/ev3taC9JxhDWSLTfDe0r0W7Dlmi/jhjRXtE+u2iHIVvLFCDaZ+/MwyDfiwK0V4x3tjl4w6YlZbuvvvkE0J69OVM7oh3GLugP4aDDlHNdrG+pvkS0hzO0B0tyx3CEud1y0R5s/OmZItqTF9E6Aoj2bNeIasPlpI42oF1myqJdZtXxCvUAs694CqB99hZScUBAOyxn4s8u2qt5R/vV629Fe7yUi87r9BSyk0/HxuRTbYyLLflEPulxyKevg095e2tsW+e31+g+hU/zpcTwEONjnwW7iUdcH19nfeSyh37AZe/9LXvMZ1vjz5HP3kaOMVzynIb185CjO8d2HUgJe8HOsJwMoDPUzoScT52dZMcVTpzGcS90whN3dRzbcf8WJ6ZxiyqkhGnvBOlZPPux760RZ+uJs/Z4a9RD6xmsfTgkp+upu/Z6a/S2nEP7btHvgQC8AKLs7HEoAZzyeHbCPo+TLk8fYK/ltMfzU/Z7eYKXT/i5h5OmOMlMy3pM45YjISVMeyflOknOnDTOS/ZO0kIngXTSzPOE1KauOBJnqbCTNDupdUvCbWuTrNtk/unkGC/TFMPw2JrYTeBIy3SNQNlAcIjVhHea4J6n/E63s2DID3zabCNEuwSpCVcrMZuFLaW6Lh5NuS6JtjF+szgt8tCzwYH7fPKYZrukjyvc6ZQhcMCxyneSARwleGEowiA/V2bQUdZB75SC/rSYQYe+WsXiYKo3hKG9RKXZNwZ5rqtHh9icyah2iw4cFP0xVMcTgvxkmkVHKONs0SE2Dx1iv0ZTinarCzbZGQ0OOsRu0SFnatEhV+WsGToCFh0yUhYdOtK4YFW7lXg6U+b4OquOV6gHmH3FUww61KtwqVYPRIkLD2qITzvwkPl04IFjIgEFen3wzkiD1NQA8DURNehhOOry0O+pP+TUDbCacC7EbKZNli+LweQ+sSJLovEZWTiNa4nJg4faj+664rYHj1F+I+4cHnle4kV+p2mZT2WH3Gtx6BEe9ZU74oP4ID6Ij25f4mPfE0fii8JHjumv4GO8DEOK8fRJO0OP34yf1hhTmuOQpiWP85yXYZa78r//8w/fff/rH35Ubvzl47c//v6P5ThF+vz7T7/88Kcffvrx468+/iXl4dOHuSidj3KWlUOz7PNXOTQd6l+y4XBogvpXGqH+leQpRVx9ovxccL9QRVl7Tf1LTLj0idlyCH+MIMk3JXHdTfgTBwnfj5Tka5q46I+y5hoOSc2vv5Iy1x6HlsWtf+FI1G+32AKYPJaKZ1RfIGExFBEt8qPPznAE+Y0o2FdeEGkLYMtJAUzsFkM4JuU4fgFMX5ZhMRSwACY2F0PhWPJKg93qqRM8g4ehgAUwfSmKxZD8AiquPjoCFkMyUhZDOtK49FW7xZDOlE04/AJY9QCzr3iKLYCJV+GiX78JZipg8vvo/SWJRzsUEv93KIRDIuFkK2ASeHhCGqKGQvirMjXkYTTq4tDtqUuIqYCJCadCzLYChiMhy5zjB7IgWgpNUAETk0shsR+9dcZtj0LjHE4plFMQjlzGdZzOK2CzeSqMFMKVjxQ6rjekECmE7UmhQ2NSyFAoX8acCxxOS2kvi6GwhE+yoBBDB88ghrr2xBAxBO2Jodb4XWJovkQpG5++18JQiOxo00l2dO3JDrID2pMdrfE7ZccSYhiX098XLPAoHf78/e9++vm7H378fePDH7/95U9/84eiU/zO/j98FeP5LYoGAA==";
};
width = 1471;
},
{
associatedMasterId = "4B6FBC9C-F998-43BC-A943-BECCA28E0CA2";
background = {
paths = (
{
closed = 1;
nodes = (
"283 652 OFFCURVE",
"302 671 OFFCURVE",
"302 696 CURVE SMOOTH",
"302 721 OFFCURVE",
"283 740 OFFCURVE",
"258 740 CURVE SMOOTH",
"233 740 OFFCURVE",
"214 721 OFFCURVE",
"214 696 CURVE SMOOTH",
"214 671 OFFCURVE",
"233 652 OFFCURVE",
"258 652 CURVE SMOOTH"
);
}
);
};
layerId = "96F1631F-18DA-4BF8-8A22-9C27D22783B4";
name = normal;
paths = (
{
closed = 1;
nodes = (
"290 0 LINE",
"290 664 LINE",
"1040 664 LINE",
"1040 0 LINE",
"1230 0 LINE",
"1230 1440 LINE",
"1040 1440 LINE",
"1040 824 LINE",
"290 824 LINE",
"290 1440 LINE",
"100 1440 LINE",
"100 0 LINE"
);
}
);
width = 1330;
}
);
leftKerningGroup = H;
rightKerningGroup = H;
unicode = 0048;
},
{
color = 6;
glyphname = I;
lastChange = "2020-04-06 10:51:33 +0000";
layers = (
{
anchors = (
{
name = bottom;
position = "{265, 0}";
},
{
name = ogonek;
position = "{477, 10}";
},
{
name = top;
position = "{265, 1440}";
},
{
name = topleft;
position = "{20, 1440}";
}
);
layerId = "4B6FBC9C-F998-43BC-A943-BECCA28E0CA2";
paths = (
{
closed = 1;
nodes = (
"170 0 LINE",
"360 0 LINE",
"360 1440 LINE",
"170 1440 LINE"
);
}
);
width = 530;
}
);
leftKerningGroup = H;
leftMetricsKey = H;
rightKerningGroup = H;
rightMetricsKey = H;
unicode = 0049;
},
{
color = 6;
glyphname = J;
lastChange = "2020-04-06 11:19:20 +0000";
layers = (
{
layerId = "4B6FBC9C-F998-43BC-A943-BECCA28E0CA2";
paths = (
{
closed = 1;
nodes = (
"60 -4 OFFCURVE",
"111 -7 OFFCURVE",
"147 -7 CURVE SMOOTH",
"491 -7 OFFCURVE",
"491 276 OFFCURVE",
"491 416 CURVE SMOOTH",
"491 1440 LINE",
"311 1440 LINE",
"311 436 LINE SMOOTH",
"311 292 OFFCURVE",
"311 151 OFFCURVE",
"109 151 CURVE SMOOTH",
"85 151 OFFCURVE",
"41 153 OFFCURVE",
"4 161 CURVE",
"4 7 LINE"
);
}
);
width = 661;
}
);
leftKerningGroup = J;
rightKerningGroup = J;
rightMetricsKey = H;
unicode = 004A;
},
{
color = 6;
glyphname = K;
lastChange = "2020-04-06 13:01:57 +0000";
layers = (
{
background = {
components = (
{
name = _part.joint.01;
transform = "{1, 0, 0, 1, 170, -9}";
}
);
};
layerId = "4B6FBC9C-F998-43BC-A943-BECCA28E0CA2";
paths = (
{
closed = 1;
nodes = (
"360 0 LINE",
"360 434 LINE SMOOTH",
"360 534 OFFCURVE",
"343 601 OFFCURVE",
"308 643 CURVE SMOOTH",
"298 655 OFFCURVE",
"286 668 OFFCURVE",
"286 688 CURVE SMOOTH",
"286 713 OFFCURVE",
"305 731 OFFCURVE",
"329 731 CURVE SMOOTH",
"345 731 OFFCURVE",
"353 726 OFFCURVE",
"371 707 CURVE SMOOTH",
"1031 0 LINE",
"1282 0 LINE",
"552 741 LINE",
"1212 1440 LINE",
"987 1440 LINE",
"369 762 LINE SMOOTH",
"353 744 OFFCURVE",
"344 739 OFFCURVE",
"330 739 CURVE SMOOTH",
"305 739 OFFCURVE",
"286 757 OFFCURVE",
"286 782 CURVE SMOOTH",
"286 802 OFFCURVE",
"298 815 OFFCURVE",
"308 827 CURVE SMOOTH",
"343 869 OFFCURVE",
"360 936 OFFCURVE",
"360 1037 CURVE SMOOTH",
"360 1440 LINE",
"170 1440 LINE",
"170 0 LINE"
);
}
);
userData = {
LWTimeline = "H4sIAAAAAAAAE21TTW/bMAz9KwLPaiBZn/ZxaYsN6Bag7drDEBSarSRebTmQlfUQ+L9PcjqkrgP4ID7y8T0S9BE23rS2h+LXEZq3l9428bnGcP/wBYpMY9ibsDuly6brbQVF8AeLwXXVSAOmJSLo7tuPG8BjwBkfQ/TwfbV6/PqOCpaj1e3t8uf901goJZKUT6CMIyk4GuMPZKKQVHRSSSI5n/aLZEXVjMwpUmwqI/MIiQkU/V0gUyLUeTTKiD5HQmmkYvP/yYxpRDk/VxPKJsCoIbLPm1FkZma0LGfDCfbZX9qMig0mm9FIkymUMaSpmJGlQFrM1pCz6aYjRAmbSyf847j5PH4P1kM8p7e6CjsoKGMSw6G3/toEA8UR7p4f69bGjNBcCJ4pshA6mshxTC13tnzdd7ULFwoGDH+tD8+nzlc0EtLNRmUMv035uvXdwVVJo+zafeesC6c7diYJwsve+LD4k7ovCI2eTVNvXWuTGMEQvHH9pvNtLD1SjMj4xUcSQFf5AMN6SKN5W3a+qt0Wio1p+vhrNKYPy51x20tzDf8A8BC1snMDAAA=";
};
width = 1270;
}
);
leftKerningGroup = H;
leftMetricsKey = H;
rightKerningGroup = K;
unicode = 004B;
},
{
color = 6;
glyphname = L;
lastChange = "2020-04-06 12:59:23 +0000";
layers = (
{
background = {
paths = (
{
closed = 1;
nodes = (
"170 1440 LINE",
"170 0 LINE",
"1076 0 LINE",
"1076 160 LINE",
"580 160 LINE SMOOTH",
"490 160 OFFCURVE",
"406 128 OFFCURVE",
"359 76 CURVE SMOOTH",
"336 51 OFFCURVE",
"299 54 OFFCURVE",
"275 76 CURVE SMOOTH",
"250 99 OFFCURVE",
"253 136 OFFCURVE",
"275 160 CURVE SMOOTH",
"328 217 OFFCURVE",
"360 300 OFFCURVE",
"360 380 CURVE SMOOTH",
"360 1440 LINE"
);
}
);
};
layerId = "4B6FBC9C-F998-43BC-A943-BECCA28E0CA2";
paths = (
{
closed = 1;
nodes = (
"1076 0 LINE",
"1076 160 LINE",
"580 160 LINE SMOOTH",
"542 160 OFFCURVE",
"460 160 OFFCURVE",
"369 82 CURVE SMOOTH",
"358 73 OFFCURVE",
"343 58 OFFCURVE",
"318 58 CURVE SMOOTH",
"284 58 OFFCURVE",
"257 85 OFFCURVE",
"257 119 CURVE SMOOTH",
"257 142 OFFCURVE",
"268 154 OFFCURVE",
"289 174 CURVE SMOOTH",
"340 224 OFFCURVE",
"360 295 OFFCURVE",
"360 380 CURVE SMOOTH",
"360 1440 LINE",
"170 1440 LINE",
"170 0 LINE"
);
}
);
width = 1080;
}
);
leftKerningGroup = H;
leftMetricsKey = H;
rightKerningGroup = L;
unicode = 004C;
},
{
color = 6;
glyphname = M;
lastChange = "2020-04-06 10:52:18 +0000";
layers = (
{
background = {
paths = (
{
closed = 1;
nodes = (
"342 1262 OFFCURVE",
"369 1289 OFFCURVE",
"369 1322 CURVE SMOOTH",
"369 1355 OFFCURVE",
"342 1382 OFFCURVE",
"309 1382 CURVE SMOOTH",
"276 1382 OFFCURVE",
"249 1355 OFFCURVE",
"249 1322 CURVE SMOOTH",
"249 1289 OFFCURVE",
"276 1262 OFFCURVE",
"309 1262 CURVE SMOOTH"
);
}
);
};
layerId = "4B6FBC9C-F998-43BC-A943-BECCA28E0CA2";
paths = (
{
closed = 1;
nodes = (
"956 45 OFFCURVE",
"988 76 OFFCURVE",
"988 114 CURVE SMOOTH",
"988 133 OFFCURVE",
"980 152 OFFCURVE",
"968 173 CURVE SMOOTH",
"947 210 OFFCURVE",
"926 282 OFFCURVE",
"1005 490 CURVE SMOOTH",
"1365 1440 LINE",
"1666 1440 LINE",
"1666 0 LINE",
"1486 0 LINE",
"1486 988 LINE SMOOTH",
"1486 1107 OFFCURVE",
"1495 1202 OFFCURVE",
"1564 1266 CURVE SMOOTH",
"1578 1279 OFFCURVE",
"1589 1299 OFFCURVE",
"1589 1321 CURVE SMOOTH",
"1589 1355 OFFCURVE",
"1562 1382 OFFCURVE",
"1527 1382 CURVE SMOOTH",
"1492 1382 OFFCURVE",
"1461 1356 OFFCURVE",
"1459 1286 CURVE SMOOTH",
"1457 1230 OFFCURVE",
"1443 1167 OFFCURVE",
"1406 1069 CURVE SMOOTH",
"1004 0 LINE",
"918 0 LINE",
"832 0 LINE",
"430 1069 LINE SMOOTH",
"393 1167 OFFCURVE",
"379 1230 OFFCURVE",
"377 1286 CURVE SMOOTH",
"375 1356 OFFCURVE",
"344 1382 OFFCURVE",
"309 1382 CURVE SMOOTH",
"274 1382 OFFCURVE",
"247 1355 OFFCURVE",
"247 1321 CURVE SMOOTH",
"247 1299 OFFCURVE",
"258 1279 OFFCURVE",
"272 1266 CURVE SMOOTH",
"341 1202 OFFCURVE",
"350 1107 OFFCURVE",
"350 988 CURVE SMOOTH",
"350 0 LINE",
"170 0 LINE",
"170 1440 LINE",
"471 1440 LINE",
"831 490 LINE SMOOTH",
"910 282 OFFCURVE",
"890 210 OFFCURVE",
"868 173 CURVE SMOOTH",
"856 152 OFFCURVE",
"848 133 OFFCURVE",
"848 114 CURVE SMOOTH",
"848 76 OFFCURVE",
"880 45 OFFCURVE",
"918 45 CURVE SMOOTH"
);
}
);
width = 1836;
}
);
leftKerningGroup = H;
leftMetricsKey = H;
rightKerningGroup = H;
rightMetricsKey = H;
unicode = 004D;
},
{
color = 6;
glyphname = N;
lastChange = "2020-04-06 10:52:22 +0000";
layers = (
{
anchors = (
{
name = bottom;
position = "{740, 0}";
},
{
name = top;
position = "{740, 1440}";
}
);
background = {
paths = (
{
closed = 1;
nodes = (
"1129 1440 LINE",
"1129 452 LINE",
"1129 333 OFFCURVE",
"1138 238 OFFCURVE",
"1207 174 CURVE SMOOTH",
"1221 161 OFFCURVE",
"1232 141 OFFCURVE",
"1232 119 CURVE SMOOTH",
"1232 85 OFFCURVE",
"1205 58 OFFCURVE",
"1170 58 CURVE SMOOTH",
"1135 58 OFFCURVE",
"1102 84 OFFCURVE",
"1102 154 CURVE SMOOTH",
"1102 210 OFFCURVE",
"1080 299 OFFCURVE",
"1042 367 CURVE SMOOTH",
"434 1440 LINE",
"170 1440 LINE",
"170 0 LINE",
"350 0 LINE",
"350 1233 LINE",
"1048 0 LINE",
"1309 0 LINE",
"1309 1440 LINE"
);
}
);
};
layerId = "4B6FBC9C-F998-43BC-A943-BECCA28E0CA2";
paths = (
{
closed = 1;
nodes = (
"350 0 LINE",
"350 988 LINE",
"350 1107 OFFCURVE",
"341 1202 OFFCURVE",
"272 1266 CURVE SMOOTH",
"258 1279 OFFCURVE",
"247 1299 OFFCURVE",
"247 1321 CURVE SMOOTH",
"247 1355 OFFCURVE",
"274 1382 OFFCURVE",
"309 1382 CURVE SMOOTH",
"344 1382 OFFCURVE",
"377 1356 OFFCURVE",
"377 1286 CURVE SMOOTH",
"377 1230 OFFCURVE",
"399 1141 OFFCURVE",
"437 1073 CURVE SMOOTH",
"1045 0 LINE",
"1309 0 LINE",
"1309 1440 LINE",
"1129 1440 LINE",
"1129 453 LINE SMOOTH",
"1129 333 OFFCURVE",
"1138 238 OFFCURVE",
"1207 174 CURVE SMOOTH",
"1222 160 OFFCURVE",
"1232 141 OFFCURVE",
"1232 119 CURVE SMOOTH",
"1232 85 OFFCURVE",
"1205 58 OFFCURVE",
"1170 58 CURVE SMOOTH",
"1135 58 OFFCURVE",
"1102 84 OFFCURVE",
"1102 154 CURVE SMOOTH",
"1102 210 OFFCURVE",
"1079 294 OFFCURVE",
"1039 365 CURVE SMOOTH",
"431 1440 LINE",
"170 1440 LINE",
"170 0 LINE"
);
}
);
width = 1479;
}
);
leftKerningGroup = H;
leftMetricsKey = H;
rightKerningGroup = H;
rightMetricsKey = H;
unicode = 004E;
},
{
color = 6;
glyphname = O;
lastChange = "2020-04-28 08:55:22 +0000";
layers = (
{
associatedMasterId = "4B6FBC9C-F998-43BC-A943-BECCA28E0CA2";
background = {
paths = (
{
closed = 1;
nodes = (
"636 1400 OFFCURVE",
"644 1477 OFFCURVE",
"516 1439 CURVE SMOOTH",
"259 1362 OFFCURVE",
"79 1066 OFFCURVE",
"80 721 CURVE SMOOTH",
"79 373 OFFCURVE",
"259 77 OFFCURVE",
"516 3 CURVE SMOOTH",
"644 -34 OFFCURVE",
"636 42 OFFCURVE",
"768 42 CURVE SMOOTH",
"823 42 LINE SMOOTH",
"955 42 OFFCURVE",
"947 -34 OFFCURVE",
"1075 3 CURVE SMOOTH",
"1332 80 OFFCURVE",
"1512 376 OFFCURVE",
"1511 721 CURVE SMOOTH",
"1512 1066 OFFCURVE",
"1332 1362 OFFCURVE",
"1075 1439 CURVE SMOOTH",
"947 1477 OFFCURVE",
"955 1400 OFFCURVE",
"823 1400 CURVE SMOOTH",
"768 1400 LINE"
);
},
{
closed = 1;
nodes = (
"930 1390 OFFCURVE",
"920 1325 OFFCURVE",
"1032 1282 CURVE SMOOTH",
"1174 1228 OFFCURVE",
"1316 980 OFFCURVE",
"1315 721 CURVE SMOOTH",
"1316 462 OFFCURVE",
"1187 222 OFFCURVE",
"1031 152 CURVE SMOOTH",
"936 110 OFFCURVE",
"930 52 OFFCURVE",
"823 52 CURVE SMOOTH",
"768 52 LINE SMOOTH",
"661 52 OFFCURVE",
"671 117 OFFCURVE",
"559 160 CURVE SMOOTH",
"417 214 OFFCURVE",
"277 462 OFFCURVE",
"276 721 CURVE SMOOTH",
"275 980 OFFCURVE",
"417 1228 OFFCURVE",
"559 1282 CURVE SMOOTH",
"671 1325 OFFCURVE",
"661 1390 OFFCURVE",
"768 1390 CURVE SMOOTH",
"823 1390 LINE"
);
}
);
};
layerId = "7C33C2A9-930B-48C9-A92D-A0E13130C1FC";
name = "Mar 25 20, 17:39";
paths = (
{
closed = 1;
nodes = (
"637 1400 OFFCURVE",
"645 1477 OFFCURVE",
"517 1439 CURVE SMOOTH",
"260 1363 OFFCURVE",
"80 1066 OFFCURVE",
"81 721 CURVE SMOOTH",
"80 376 OFFCURVE",
"259 78 OFFCURVE",
"517 3 CURVE SMOOTH",
"645 -34 OFFCURVE",
"637 42 OFFCURVE",
"769 42 CURVE",
"823 42 LINE SMOOTH",
"955 42 OFFCURVE",
"947 -34 OFFCURVE",
"1075 3 CURVE SMOOTH",
"1332 80 OFFCURVE",
"1512 376 OFFCURVE",
"1511 721 CURVE SMOOTH",
"1512 1066 OFFCURVE",
"1332 1363 OFFCURVE",
"1075 1439 CURVE SMOOTH",
"947 1477 OFFCURVE",
"955 1400 OFFCURVE",
"823 1400 CURVE SMOOTH",
"769 1400 LINE"
);
},
{
closed = 1;
nodes = (
"930 1390 OFFCURVE",
"936 1332 OFFCURVE",
"1031 1290 CURVE SMOOTH",
"1187 1221 OFFCURVE",
"1316 980 OFFCURVE",
"1315 721 CURVE SMOOTH",
"1316 462 OFFCURVE",
"1187 222 OFFCURVE",
"1031 152 CURVE SMOOTH",
"936 110 OFFCURVE",
"930 52 OFFCURVE",
"823 52 CURVE",
"769 52 LINE SMOOTH",
"662 52 OFFCURVE",
"656 109 OFFCURVE",
"561 152 CURVE SMOOTH",
"405 223 OFFCURVE",
"278 462 OFFCURVE",
"277 721 CURVE SMOOTH",
"276 980 OFFCURVE",
"405 1221 OFFCURVE",
"561 1290 CURVE SMOOTH",
"656 1332 OFFCURVE",
"662 1390 OFFCURVE",
"769 1390 CURVE SMOOTH",
"823 1390 LINE"
);
}
);
width = 1591;
},
{
anchors = (
{
name = bottom;
position = "{758, 0}";
},
{
name = center;
position = "{758, 720}";
},
{
name = ogonek;
position = "{1348, 10}";
},
{
name = top;
position = "{758, 1440}";
},
{
name = topleft;
position = "{40, 1440}";
},
{
name = topright;
position = "{1475, 1440}";
}
);
layerId = "4B6FBC9C-F998-43BC-A943-BECCA28E0CA2";
paths = (
{
closed = 1;
nodes = (
"1044 1304 OFFCURVE",
"1219 1083 OFFCURVE",
"1219 721 CURVE SMOOTH",
"1219 358 OFFCURVE",
"1044 137 OFFCURVE",
"757 137 CURVE SMOOTH",
"471 137 OFFCURVE",
"296 358 OFFCURVE",
"296 721 CURVE SMOOTH",
"296 1083 OFFCURVE",
"471 1304 OFFCURVE",
"757 1304 CURVE SMOOTH"
);
},
{
closed = 1;
nodes = (
"360 1464 OFFCURVE",
"100 1170 OFFCURVE",
"100 721 CURVE SMOOTH",
"100 271 OFFCURVE",
"360 -23 OFFCURVE",
"757 -23 CURVE SMOOTH",
"1156 -23 OFFCURVE",
"1416 271 OFFCURVE",
"1415 721 CURVE SMOOTH",
"1415 1170 OFFCURVE",
"1155 1464 OFFCURVE",
"757 1464 CURVE SMOOTH"
);
}
);
width = 1515;
}
);
leftKerningGroup = O;
rightKerningGroup = O;
unicode = 004F;
},
{
glyphname = Oslash;
lastChange = "2020-04-07 20:47:07 +0000";
layers = (
{
components = (
{
name = O;
}
);
layerId = "4B6FBC9C-F998-43BC-A943-BECCA28E0CA2";
paths = (
{
closed = 1;
nodes = (
"1386 1414 LINE",
"1260 1506 LINE",
"106 20 LINE",
"232 -72 LINE"
);
}
);
width = 1515;
}
);
leftKerningGroup = O;
leftMetricsKey = O;
rightKerningGroup = O;
rightMetricsKey = O;
unicode = 00D8;
},
{
color = 6;
glyphname = OE;
lastChange = "2020-04-06 14:31:23 +0000";
layers = (
{
anchors = (
{
name = center;
position = "{738, 720}";
},
{
name = topleft;
position = "{1495, 1440}";
},
{
name = topright;
position = "{1455, 1440}";
}
);
layerId = "4B6FBC9C-F998-43BC-A943-BECCA28E0CA2";
paths = (
{
closed = 1;
nodes = (
"1024 1304 OFFCURVE",
"1199 1083 OFFCURVE",
"1199 721 CURVE SMOOTH",
"1199 358 OFFCURVE",
"1024 137 OFFCURVE",
"737 137 CURVE SMOOTH",
"451 137 OFFCURVE",
"276 358 OFFCURVE",
"276 721 CURVE SMOOTH",
"276 1083 OFFCURVE",
"451 1304 OFFCURVE",
"737 1304 CURVE SMOOTH"
);
},
{
closed = 1;
nodes = (
"340 1464 OFFCURVE",
"80 1170 OFFCURVE",
"80 721 CURVE SMOOTH",
"80 271 OFFCURVE",
"340 -23 OFFCURVE",
"737 -23 CURVE SMOOTH",
"1136 -23 OFFCURVE",
"1396 271 OFFCURVE",
"1395 721 CURVE SMOOTH",
"1395 1170 OFFCURVE",
"1135 1464 OFFCURVE",
"737 1464 CURVE SMOOTH"
);
},
{
closed = 1;
nodes = (
"1671 0 LINE",
"1671 160 LINE",
"1155 160 LINE SMOOTH",
"1117 160 OFFCURVE",
"1037 158 OFFCURVE",
"944 82 CURVE SMOOTH",
"933 73 OFFCURVE",
"918 58 OFFCURVE",
"893 58 CURVE SMOOTH",
"859 58 OFFCURVE",
"832 85 OFFCURVE",
"832 119 CURVE SMOOTH",
"832 142 OFFCURVE",
"843 154 OFFCURVE",
"864 174 CURVE SMOOTH",
"916 223 OFFCURVE",
"935 295 OFFCURVE",
"935 380 CURVE SMOOTH",
"935 434 LINE SMOOTH",
"935 537 OFFCURVE",
"914 614 OFFCURVE",
"873 655 CURVE SMOOTH",
"864 664 OFFCURVE",
"860 673 OFFCURVE",
"860 686 CURVE SMOOTH",
"860 697 OFFCURVE",
"865 709 OFFCURVE",
"873 717 CURVE SMOOTH",
"882 726 OFFCURVE",
"893 730 OFFCURVE",
"904 730 CURVE SMOOTH",
"913 730 OFFCURVE",
"927 726 OFFCURVE",
"935 717 CURVE SMOOTH",
"974 674 OFFCURVE",
"1049 655 OFFCURVE",
"1155 655 CURVE SMOOTH",
"1605 655 LINE",
"1605 815 LINE",
"1155 815 LINE SMOOTH",
"1051 815 OFFCURVE",
"976 794 OFFCURVE",
"935 753 CURVE SMOOTH",
"927 745 OFFCURVE",
"915 740 OFFCURVE",
"904 740 CURVE SMOOTH",
"893 740 OFFCURVE",
"882 744 OFFCURVE",
"873 753 CURVE SMOOTH",
"865 761 OFFCURVE",
"861 773 OFFCURVE",
"861 784 CURVE SMOOTH",
"861 795 OFFCURVE",
"865 807 OFFCURVE",
"873 815 CURVE SMOOTH",
"914 856 OFFCURVE",
"935 931 OFFCURVE",
"935 1034 CURVE SMOOTH",
"935 1060 LINE SMOOTH",
"935 1145 OFFCURVE",
"916 1217 OFFCURVE",
"864 1266 CURVE SMOOTH",
"843 1286 OFFCURVE",
"832 1298 OFFCURVE",
"832 1321 CURVE SMOOTH",
"832 1355 OFFCURVE",
"859 1382 OFFCURVE",
"893 1382 CURVE SMOOTH",
"918 1382 OFFCURVE",
"933 1367 OFFCURVE",
"944 1358 CURVE SMOOTH",
"1037 1282 OFFCURVE",
"1117 1280 OFFCURVE",
"1155 1280 CURVE SMOOTH",
"1637 1280 LINE",
"1637 1440 LINE",
"745 1440 LINE",
"745 0 LINE"
);
}
);
width = 1743;
}
);
leftKerningGroup = O;
rightKerningGroup = E;
rightMetricsKey = E;
unicode = 0152;
},
{
color = 6;
glyphname = P;
lastChange = "2020-04-28 08:55:37 +0000";
layers = (
{
layerId = "4B6FBC9C-F998-43BC-A943-BECCA28E0CA2";
paths = (
{
closed = 1;
nodes = (
"360 0 LINE",
"360 346 LINE SMOOTH",
"360 446 OFFCURVE",
"343 513 OFFCURVE",
"308 555 CURVE SMOOTH",
"298 567 OFFCURVE",
"286 580 OFFCURVE",
"286 600 CURVE SMOOTH",
"286 625 OFFCURVE",
"305 643 OFFCURVE",
"330 643 CURVE SMOOTH",
"349 643 OFFCURVE",
"362 631 OFFCURVE",
"374 621 CURVE SMOOTH",
"412 591 OFFCURVE",
"473 567 OFFCURVE",
"584 567 CURVE SMOOTH",
"600 567 LINE SMOOTH",
"942 567 OFFCURVE",
"1173 665 OFFCURVE",
"1175 1013 CURVE SMOOTH",
"1177 1314 OFFCURVE",
"990 1440 OFFCURVE",
"642 1440 CURVE SMOOTH",
"170 1440 LINE",
"170 0 LINE"
);
},
{
closed = 1;
nodes = (
"305 651 OFFCURVE",
"286 669 OFFCURVE",
"286 694 CURVE SMOOTH",
"286 714 OFFCURVE",
"298 727 OFFCURVE",
"308 739 CURVE SMOOTH",
"343 781 OFFCURVE",
"360 848 OFFCURVE",
"360 949 CURVE SMOOTH",
"360 1060 LINE SMOOTH",
"360 1145 OFFCURVE",
"340 1216 OFFCURVE",
"289 1266 CURVE SMOOTH",
"268 1286 OFFCURVE",
"257 1298 OFFCURVE",
"257 1321 CURVE SMOOTH",
"257 1355 OFFCURVE",
"284 1382 OFFCURVE",
"318 1382 CURVE SMOOTH",
"343 1382 OFFCURVE",
"358 1367 OFFCURVE",
"369 1358 CURVE SMOOTH",
"460 1280 OFFCURVE",
"542 1280 OFFCURVE",
"580 1280 CURVE SMOOTH",
"617 1280 LINE SMOOTH",
"848 1280 OFFCURVE",
"979 1228 OFFCURVE",
"979 1005 CURVE SMOOTH",
"979 760 OFFCURVE",
"785 727 OFFCURVE",
"617 727 CURVE SMOOTH",
"584 727 LINE SMOOTH",
"473 727 OFFCURVE",
"411 703 OFFCURVE",
"374 673 CURVE SMOOTH",
"362 663 OFFCURVE",
"349 651 OFFCURVE",
"330 651 CURVE SMOOTH"
);
}
);
width = 1222;
}
);
leftKerningGroup = H;
leftMetricsKey = H;
rightKerningGroup = P;
unicode = 0050;
},
{
color = 6;
glyphname = Thorn;
lastChange = "2020-04-07 21:06:26 +0000";
layers = (
{
layerId = "4B6FBC9C-F998-43BC-A943-BECCA28E0CA2";
paths = (
{
closed = 1;
nodes = (
"360 0 LINE",
"360 55 LINE SMOOTH",
"360 155 OFFCURVE",
"343 222 OFFCURVE",
"308 264 CURVE SMOOTH",
"298 276 OFFCURVE",
"286 289 OFFCURVE",
"286 309 CURVE SMOOTH",
"286 334 OFFCURVE",
"305 352 OFFCURVE",
"330 352 CURVE SMOOTH",
"349 352 OFFCURVE",
"362 340 OFFCURVE",
"374 330 CURVE SMOOTH",
"411 299 OFFCURVE",
"473 276 OFFCURVE",
"584 276 CURVE SMOOTH",
"600 276 LINE SMOOTH",
"942 276 OFFCURVE",
"1173 374 OFFCURVE",
"1175 722 CURVE SMOOTH",
"1177 1023 OFFCURVE",
"990 1149 OFFCURVE",
"642 1149 CURVE SMOOTH",
"584 1149 LINE SMOOTH",
"473 1149 OFFCURVE",
"411 1125 OFFCURVE",
"374 1095 CURVE SMOOTH",
"362 1085 OFFCURVE",
"349 1073 OFFCURVE",
"330 1073 CURVE SMOOTH",
"305 1073 OFFCURVE",
"286 1091 OFFCURVE",
"286 1116 CURVE SMOOTH",
"286 1136 OFFCURVE",
"298 1149 OFFCURVE",
"308 1161 CURVE SMOOTH",
"343 1203 OFFCURVE",
"360 1270 OFFCURVE",
"360 1371 CURVE SMOOTH",
"360 1440 LINE",
"170 1441 LINE",
"170 0 LINE"
);
},
{
closed = 1;
nodes = (
"360 868 OFFCURVE",
"343 935 OFFCURVE",
"308 977 CURVE SMOOTH",
"298 989 OFFCURVE",
"286 1002 OFFCURVE",
"286 1022 CURVE SMOOTH",
"286 1047 OFFCURVE",
"305 1065 OFFCURVE",
"330 1065 CURVE SMOOTH",
"349 1065 OFFCURVE",
"362 1053 OFFCURVE",
"374 1043 CURVE SMOOTH",
"411 1012 OFFCURVE",
"473 989 OFFCURVE",
"584 989 CURVE SMOOTH",
"617 989 LINE SMOOTH",
"848 989 OFFCURVE",
"979 937 OFFCURVE",
"979 714 CURVE SMOOTH",
"979 469 OFFCURVE",
"785 436 OFFCURVE",
"617 436 CURVE SMOOTH",
"584 436 LINE SMOOTH",
"473 436 OFFCURVE",
"411 412 OFFCURVE",
"374 382 CURVE SMOOTH",
"362 372 OFFCURVE",
"349 360 OFFCURVE",
"330 360 CURVE SMOOTH",
"305 360 OFFCURVE",
"286 378 OFFCURVE",
"286 403 CURVE SMOOTH",
"286 423 OFFCURVE",
"298 436 OFFCURVE",
"308 448 CURVE SMOOTH",
"343 490 OFFCURVE",
"360 557 OFFCURVE",
"360 658 CURVE SMOOTH",
"360 768 LINE SMOOTH"
);
}
);
width = 1222;
}
);
leftKerningGroup = H;
rightKerningGroup = THORN;
unicode = 00DE;
},
{
glyphname = Q;
lastChange = "2020-04-06 11:25:45 +0000";
layers = (
{
background = {
components = (
{
name = O;
}
);
};
components = (
{
name = O;
}
);
layerId = "4B6FBC9C-F998-43BC-A943-BECCA28E0CA2";
paths = (
{
closed = 1;
nodes = (
"1443 85 LINE",
"952 563 LINE",
"837 449 LINE",
"1331 -34 LINE"
);
}
);
width = 1503;
}
);
leftKerningGroup = O;
leftMetricsKey = O;
rightKerningGroup = O;
rightMetricsKey = "=O-40";
unicode = 0051;
},
{
color = 6;
glyphname = R;
lastChange = "2020-04-06 13:08:53 +0000";
layers = (
{
background = {
paths = (
{
closed = 1;
nodes = (
"253 1303 OFFCURVE",
"250 1341 OFFCURVE",
"275 1364 CURVE SMOOTH",
"299 1386 OFFCURVE",
"336 1389 OFFCURVE",
"359 1364 CURVE SMOOTH",
"409 1309 OFFCURVE",
"485 1280 OFFCURVE",
"580 1280 CURVE SMOOTH",
"737 1280 OFFCURVE",
"944 1266 OFFCURVE",
"944 1022 CURVE SMOOTH",
"944 781 OFFCURVE",
"711 756 OFFCURVE",
"580 756 CURVE SMOOTH",
"476 756 OFFCURVE",
"401 735 OFFCURVE",
"360 694 CURVE SMOOTH",
"343 677 OFFCURVE",
"315 677 OFFCURVE",
"298 694 CURVE SMOOTH",
"281 711 OFFCURVE",
"281 739 OFFCURVE",
"298 756 CURVE SMOOTH",
"339 797 OFFCURVE",
"360 872 OFFCURVE",
"360 976 CURVE SMOOTH",
"360 1070 LINE SMOOTH",
"360 1149 OFFCURVE",
"331 1221 OFFCURVE",
"275 1280 CURVE SMOOTH"
);
},
{
closed = 1;
nodes = (
"360 480 OFFCURVE",
"339 555 OFFCURVE",
"298 596 CURVE SMOOTH",
"281 613 OFFCURVE",
"281 641 OFFCURVE",
"298 658 CURVE SMOOTH",
"315 675 OFFCURVE",
"343 675 OFFCURVE",
"360 658 CURVE SMOOTH",
"401 617 OFFCURVE",
"476 596 OFFCURVE",
"580 596 CURVE SMOOTH",
"799 596 OFFCURVE",
"854 529 OFFCURVE",
"910 344 CURVE SMOOTH",
"960 178 LINE SMOOTH",
"978 117 OFFCURVE",
"997 65 OFFCURVE",
"1022 0 CURVE",
"1229 0 LINE",
"1229 16 LINE",
"1199 70 OFFCURVE",
"1170 141 OFFCURVE",
"1148 212 CURVE SMOOTH",
"1069 463 LINE SMOOTH",
"1020 620 OFFCURVE",
"942 665 OFFCURVE",
"814 681 CURVE",
"1004 714 OFFCURVE",
"1140 840 OFFCURVE",
"1140 1055 CURVE SMOOTH",
"1140 1440 OFFCURVE",
"695 1440 OFFCURVE",
"603 1440 CURVE SMOOTH",
"170 1440 LINE",
"170 0 LINE",
"360 0 LINE",
"360 375 LINE SMOOTH"
);
}
);
};
layerId = "4B6FBC9C-F998-43BC-A943-BECCA28E0CA2";
paths = (
{
closed = 1;
nodes = (
"711 756 OFFCURVE",
"944 781 OFFCURVE",
"944 1022 CURVE SMOOTH",
"944 1266 OFFCURVE",
"737 1280 OFFCURVE",
"580 1280 CURVE SMOOTH",
"542 1280 OFFCURVE",
"460 1280 OFFCURVE",
"369 1358 CURVE SMOOTH",
"358 1367 OFFCURVE",
"343 1382 OFFCURVE",
"318 1382 CURVE SMOOTH",
"284 1382 OFFCURVE",
"257 1355 OFFCURVE",
"257 1321 CURVE SMOOTH",
"257 1298 OFFCURVE",
"268 1286 OFFCURVE",
"289 1266 CURVE SMOOTH",
"340 1216 OFFCURVE",
"360 1145 OFFCURVE",
"360 1060 CURVE SMOOTH",
"360 978 LINE SMOOTH",
"360 877 OFFCURVE",
"343 810 OFFCURVE",
"308 768 CURVE SMOOTH",
"298 756 OFFCURVE",
"286 743 OFFCURVE",
"286 723 CURVE SMOOTH",
"286 698 OFFCURVE",
"305 680 OFFCURVE",
"330 680 CURVE SMOOTH",
"349 680 OFFCURVE",
"362 692 OFFCURVE",
"374 702 CURVE SMOOTH",
"411 732 OFFCURVE",
"473 756 OFFCURVE",
"584 756 CURVE SMOOTH"
);
},
{
closed = 1;
nodes = (
"360 0 LINE",
"170 0 LINE",
"170 978 LINE",
"170 1440 LINE",
"603 1440 LINE SMOOTH",
"695 1440 OFFCURVE",
"1140 1440 OFFCURVE",
"1140 1055 CURVE SMOOTH",
"1140 840 OFFCURVE",
"1004 714 OFFCURVE",
"814 681 CURVE",
"942 665 OFFCURVE",
"1020 620 OFFCURVE",
"1069 463 CURVE SMOOTH",
"1148 212 LINE SMOOTH",
"1170 141 OFFCURVE",
"1199 70 OFFCURVE",
"1229 16 CURVE",
"1229 0 LINE",
"1022 0 LINE",
"997 65 OFFCURVE",
"978 117 OFFCURVE",
"960 178 CURVE SMOOTH",
"910 344 LINE SMOOTH",
"854 529 OFFCURVE",
"799 596 OFFCURVE",
"584 596 CURVE SMOOTH",
"473 596 OFFCURVE",
"411 620 OFFCURVE",
"374 650 CURVE SMOOTH",
"362 660 OFFCURVE",
"349 672 OFFCURVE",
"330 672 CURVE SMOOTH",
"305 672 OFFCURVE",
"286 654 OFFCURVE",
"286 629 CURVE SMOOTH",
"286 609 OFFCURVE",
"298 596 OFFCURVE",
"308 584 CURVE SMOOTH",
"343 542 OFFCURVE",
"360 475 OFFCURVE",
"360 374 CURVE SMOOTH"
);
}
);
width = 1287;
}
);
leftKerningGroup = H;
leftMetricsKey = H;
rightKerningGroup = R;
unicode = 0052;
},
{
color = 6;
glyphname = S;
lastChange = "2020-04-07 21:02:22 +0000";
layers = (
{
background = {
paths = (
{
closed = 1;
nodes = (
"613 1401 LINE SMOOTH",
"486 1401 OFFCURVE",
"489 1477 OFFCURVE",
"367 1441 CURVE SMOOTH",
"213 1395 OFFCURVE",
"89 1226 OFFCURVE",
"89 968 CURVE",
"286 968 LINE",
"287 1097 OFFCURVE",
"292 1235 OFFCURVE",
"409 1293 CURVE SMOOTH",
"497 1336 OFFCURVE",
"499 1391 OFFCURVE",
"613 1391 CURVE SMOOTH",
"669 1391 LINE SMOOTH",
"794 1391 OFFCURVE",
"780 1334 OFFCURVE",
"875 1292 CURVE SMOOTH",
"996 1238 OFFCURVE",
"992 1121 OFFCURVE",
"992 1075 CURVE SMOOTH",
"992 892 OFFCURVE",
"800 841 OFFCURVE",
"680 809 CURVE SMOOTH",
"552 775 LINE SMOOTH",
"379 729 OFFCURVE",
"137 648 OFFCURVE",
"137 382 CURVE SMOOTH",
"137 212 OFFCURVE",
"239 74 OFFCURVE",
"372 14 CURVE SMOOTH",
"508 -47 OFFCURVE",
"541 39 OFFCURVE",
"648 39 CURVE SMOOTH",
"759 39 OFFCURVE",
"796 -49 OFFCURVE",
"943 28 CURVE SMOOTH",
"1087 104 OFFCURVE",
"1153 229 OFFCURVE",
"1153 438 CURVE",
"970 438 LINE",
"969 350 OFFCURVE",
"954 263 OFFCURVE",
"855 181 CURVE SMOOTH",
"775 115 OFFCURVE",
"725 52 OFFCURVE",
"646 52 CURVE SMOOTH",
"530 52 OFFCURVE",
"472 112 OFFCURVE",
"435 163 CURVE SMOOTH",
"362 264 OFFCURVE",
"342 334 OFFCURVE",
"342 366 CURVE SMOOTH",
"342 533 OFFCURVE",
"507 582 OFFCURVE",
"633 616 CURVE SMOOTH",
"744 646 LINE SMOOTH",
"895 687 OFFCURVE",
"1197 764 OFFCURVE",
"1197 1056 CURVE SMOOTH",
"1197 1254 OFFCURVE",
"1066 1399 OFFCURVE",
"920 1440 CURVE SMOOTH",
"791 1476 OFFCURVE",
"801 1401 OFFCURVE",
"669 1401 CURVE SMOOTH"
);
}
);
};
layerId = "4B6FBC9C-F998-43BC-A943-BECCA28E0CA2";
paths = (
{
closed = 1;
nodes = (
"966 -24 OFFCURVE",
"1171 143 OFFCURVE",
"1174 387 CURVE SMOOTH",
"1178 679 OFFCURVE",
"892 756 OFFCURVE",
"741 797 CURVE SMOOTH",
"630 827 LINE SMOOTH",
"504 861 OFFCURVE",
"339 910 OFFCURVE",
"339 1077 CURVE SMOOTH",
"339 1238 OFFCURVE",
"492 1304 OFFCURVE",
"637 1304 CURVE SMOOTH",
"825 1304 OFFCURVE",
"955 1193 OFFCURVE",
"957 1005 CURVE",
"1140 1005 LINE",
"1140 1265 OFFCURVE",
"981 1464 OFFCURVE",
"645 1464 CURVE SMOOTH",
"346 1464 OFFCURVE",
"134 1307 OFFCURVE",
"134 1061 CURVE SMOOTH",
"134 795 OFFCURVE",
"376 714 OFFCURVE",
"549 668 CURVE SMOOTH",
"677 634 LINE SMOOTH",
"797 602 OFFCURVE",
"969 551 OFFCURVE",
"969 373 CURVE SMOOTH",
"969 223 OFFCURVE",
"848 136 OFFCURVE",
"656 136 CURVE SMOOTH",
"437 136 OFFCURVE",
"305 249 OFFCURVE",
"303 475 CURVE",
"106 475 LINE",
"109 153 OFFCURVE",
"311 -24 OFFCURVE",
"643 -24 CURVE SMOOTH"
);
}
);
width = 1288;
},
{
associatedMasterId = "4B6FBC9C-F998-43BC-A943-BECCA28E0CA2";
background = {
paths = (
{
closed = 1;
nodes = (
"477 1404 OFFCURVE",
"450 1490 OFFCURVE",
"314 1429 CURVE SMOOTH",
"178 1368 OFFCURVE",
"78 1233 OFFCURVE",
"78 1035 CURVE SMOOTH",
"78 743 OFFCURVE",
"360 666 OFFCURVE",
"511 625 CURVE SMOOTH",
"622 595 LINE SMOOTH",
"748 561 OFFCURVE",
"913 512 OFFCURVE",
"913 345 CURVE SMOOTH",
"913 276 OFFCURVE",
"886 210 OFFCURVE",
"843 174 CURVE SMOOTH",
"816 151 OFFCURVE",
"784 134 OFFCURVE",
"748 123 CURVE SMOOTH",
"706 110 OFFCURVE",
"660 24 OFFCURVE",
"615 24 CURVE SMOOTH",
"568 24 OFFCURVE",
"524 110 OFFCURVE",
"485 124 CURVE SMOOTH",
"442 139 OFFCURVE",
"404 162 OFFCURVE",
"374 193 CURVE SMOOTH",
"325 244 OFFCURVE",
"296 329 OFFCURVE",
"295 417 CURVE",
"112 417 LINE",
"112 208 OFFCURVE",
"214 25 OFFCURVE",
"429 -35 CURVE SMOOTH",
"504 -56 OFFCURVE",
"541 11 OFFCURVE",
"607 11 CURVE SMOOTH",
"677 11 OFFCURVE",
"741 -48 OFFCURVE",
"800 -32 CURVE SMOOTH",
"993 20 OFFCURVE",
"1118 172 OFFCURVE",
"1118 361 CURVE SMOOTH",
"1118 627 OFFCURVE",
"876 708 OFFCURVE",
"703 754 CURVE SMOOTH",
"575 788 LINE SMOOTH",
"455 820 OFFCURVE",
"283 871 OFFCURVE",
"283 1054 CURVE SMOOTH",
"283 1100 OFFCURVE",
"294 1174 OFFCURVE",
"375 1280 CURVE SMOOTH",
"414 1331 OFFCURVE",
"472 1391 OFFCURVE",
"597 1391 CURVE SMOOTH",
"729 1391 OFFCURVE",
"753 1324 OFFCURVE",
"833 1262 CURVE SMOOTH",
"933 1184 OFFCURVE",
"948 1076 OFFCURVE",
"949 947 CURVE",
"1146 947 LINE",
"1146 1205 OFFCURVE",
"1061 1342 OFFCURVE",
"921 1415 CURVE SMOOTH",
"774 1492 OFFCURVE",
"742 1404 OFFCURVE",
"609 1404 CURVE SMOOTH"
);
}
);
};
layerId = "3EA7B170-BB84-4EC7-8ABA-2D92D9EE6592";
name = "Mar 25 20, 12:07";
paths = (
{
closed = 1;
nodes = (
"747 18 OFFCURVE",
"774 -68 OFFCURVE",
"910 -7 CURVE SMOOTH",
"1047 53 OFFCURVE",
"1146 189 OFFCURVE",
"1146 387 CURVE SMOOTH",
"1146 679 OFFCURVE",
"864 756 OFFCURVE",
"713 797 CURVE SMOOTH",
"602 827 LINE SMOOTH",
"476 861 OFFCURVE",
"311 910 OFFCURVE",
"311 1077 CURVE SMOOTH",
"311 1146 OFFCURVE",
"338 1212 OFFCURVE",
"381 1248 CURVE SMOOTH",
"408 1271 OFFCURVE",
"440 1288 OFFCURVE",
"476 1299 CURVE SMOOTH",
"518 1312 OFFCURVE",
"564 1398 OFFCURVE",
"609 1398 CURVE SMOOTH",
"656 1398 OFFCURVE",
"700 1312 OFFCURVE",
"739 1298 CURVE SMOOTH",
"782 1283 OFFCURVE",
"820 1260 OFFCURVE",
"850 1229 CURVE SMOOTH",
"899 1178 OFFCURVE",
"928 1093 OFFCURVE",
"929 1005 CURVE",
"1112 1005 LINE",
"1112 1214 OFFCURVE",
"1010 1397 OFFCURVE",
"795 1457 CURVE SMOOTH",
"720 1478 OFFCURVE",
"683 1411 OFFCURVE",
"617 1411 CURVE SMOOTH",
"547 1411 OFFCURVE",
"483 1470 OFFCURVE",
"424 1454 CURVE SMOOTH",
"231 1402 OFFCURVE",
"106 1250 OFFCURVE",
"106 1061 CURVE SMOOTH",
"106 795 OFFCURVE",
"348 714 OFFCURVE",
"521 668 CURVE SMOOTH",
"649 634 LINE SMOOTH",
"769 602 OFFCURVE",
"941 551 OFFCURVE",
"941 368 CURVE SMOOTH",
"941 322 OFFCURVE",
"930 248 OFFCURVE",
"849 142 CURVE SMOOTH",
"810 91 OFFCURVE",
"752 31 OFFCURVE",
"627 31 CURVE SMOOTH",
"495 31 OFFCURVE",
"471 98 OFFCURVE",
"391 160 CURVE SMOOTH",
"290 237 OFFCURVE",
"276 346 OFFCURVE",
"275 475 CURVE",
"78 475 LINE",
"78 217 OFFCURVE",
"163 80 OFFCURVE",
"303 7 CURVE SMOOTH",
"450 -69 OFFCURVE",
"482 18 OFFCURVE",
"615 18 CURVE SMOOTH"
);
}
);
width = 1224;
},
{
associatedMasterId = "4B6FBC9C-F998-43BC-A943-BECCA28E0CA2";
background = {
paths = (
{
closed = 1;
nodes = (
"613 1401 LINE SMOOTH",
"486 1401 OFFCURVE",
"489 1477 OFFCURVE",
"367 1441 CURVE SMOOTH",
"213 1395 OFFCURVE",
"89 1226 OFFCURVE",
"89 968 CURVE",
"286 968 LINE",
"287 1097 OFFCURVE",
"292 1235 OFFCURVE",
"409 1293 CURVE SMOOTH",
"497 1336 OFFCURVE",
"499 1391 OFFCURVE",
"613 1391 CURVE SMOOTH",
"669 1391 LINE SMOOTH",
"794 1391 OFFCURVE",
"780 1334 OFFCURVE",
"875 1292 CURVE SMOOTH",
"996 1238 OFFCURVE",
"992 1121 OFFCURVE",
"992 1075 CURVE SMOOTH",
"992 892 OFFCURVE",
"800 841 OFFCURVE",
"680 809 CURVE SMOOTH",
"552 775 LINE SMOOTH",
"379 729 OFFCURVE",
"137 648 OFFCURVE",
"137 382 CURVE SMOOTH",
"137 212 OFFCURVE",
"239 74 OFFCURVE",
"372 14 CURVE SMOOTH",
"508 -47 OFFCURVE",
"541 39 OFFCURVE",
"648 39 CURVE SMOOTH",
"759 39 OFFCURVE",
"796 -49 OFFCURVE",
"943 28 CURVE SMOOTH",
"1087 104 OFFCURVE",
"1153 229 OFFCURVE",
"1153 438 CURVE",
"970 438 LINE",
"969 350 OFFCURVE",
"954 263 OFFCURVE",
"855 181 CURVE SMOOTH",
"775 115 OFFCURVE",
"725 52 OFFCURVE",
"646 52 CURVE SMOOTH",
"530 52 OFFCURVE",
"472 112 OFFCURVE",
"435 163 CURVE SMOOTH",
"362 264 OFFCURVE",
"342 334 OFFCURVE",
"342 366 CURVE SMOOTH",
"342 533 OFFCURVE",
"507 582 OFFCURVE",
"633 616 CURVE SMOOTH",
"744 646 LINE SMOOTH",
"895 687 OFFCURVE",
"1197 764 OFFCURVE",
"1197 1056 CURVE SMOOTH",
"1197 1254 OFFCURVE",
"1066 1399 OFFCURVE",
"920 1440 CURVE SMOOTH",
"791 1476 OFFCURVE",
"801 1401 OFFCURVE",
"669 1401 CURVE SMOOTH"
);
}
);
};
layerId = "1F50639A-D576-44A6-BBB7-45FBCFA124CE";
name = "Mar 25 20, 17:00";
paths = (
{
closed = 1;
nodes = (
"801 42 OFFCURVE",
"791 -33 OFFCURVE",
"920 3 CURVE SMOOTH",
"1066 44 OFFCURVE",
"1197 189 OFFCURVE",
"1197 387 CURVE SMOOTH",
"1197 679 OFFCURVE",
"895 756 OFFCURVE",
"744 797 CURVE SMOOTH",
"633 827 LINE SMOOTH",
"507 861 OFFCURVE",
"302 910 OFFCURVE",
"302 1077 CURVE SMOOTH",
"302 1109 OFFCURVE",
"298 1239 OFFCURVE",
"409 1293 CURVE SMOOTH",
"497 1336 OFFCURVE",
"499 1391 OFFCURVE",
"613 1391 CURVE SMOOTH",
"669 1391 LINE SMOOTH",
"794 1391 OFFCURVE",
"780 1334 OFFCURVE",
"875 1292 CURVE SMOOTH",
"990 1241 OFFCURVE",
"1009 1093 OFFCURVE",
"1010 1005 CURVE",
"1193 1005 LINE",
"1193 1214 OFFCURVE",
"1074 1396 OFFCURVE",
"918 1440 CURVE SMOOTH",
"791 1476 OFFCURVE",
"801 1401 OFFCURVE",
"669 1401 CURVE SMOOTH",
"613 1401 LINE SMOOTH",
"486 1401 OFFCURVE",
"483 1475 OFFCURVE",
"367 1441 CURVE SMOOTH",
"229 1400 OFFCURVE",
"97 1231 OFFCURVE",
"97 1061 CURVE SMOOTH",
"97 795 OFFCURVE",
"379 714 OFFCURVE",
"552 668 CURVE SMOOTH",
"680 634 LINE SMOOTH",
"800 602 OFFCURVE",
"992 551 OFFCURVE",
"992 368 CURVE SMOOTH",
"992 322 OFFCURVE",
"996 205 OFFCURVE",
"875 151 CURVE SMOOTH",
"780 109 OFFCURVE",
"794 52 OFFCURVE",
"669 52 CURVE SMOOTH",
"613 52 LINE SMOOTH",
"499 52 OFFCURVE",
"497 107 OFFCURVE",
"409 150 CURVE SMOOTH",
"292 208 OFFCURVE",
"287 346 OFFCURVE",
"286 475 CURVE",
"89 475 LINE",
"89 217 OFFCURVE",
"213 48 OFFCURVE",
"367 2 CURVE SMOOTH",
"489 -34 OFFCURVE",
"486 42 OFFCURVE",
"613 42 CURVE SMOOTH",
"669 42 LINE SMOOTH"
);
}
);
width = 1288;
}
);
leftKerningGroup = S;
rightKerningGroup = S;
unicode = 0053;
},
{
color = 6;
glyphname = T;
lastChange = "2020-04-07 21:03:49 +0000";
layers = (
{
background = {
paths = (
{
closed = 1;
nodes = (
"4 1280 LINE",
"287 1280 LINE SMOOTH",
"392 1280 OFFCURVE",
"467 1302 OFFCURVE",
"508 1343 CURVE SMOOTH",
"525 1360 OFFCURVE",
"553 1360 OFFCURVE",
"570 1343 CURVE SMOOTH",
"587 1326 OFFCURVE",
"587 1298 OFFCURVE",
"570 1281 CURVE SMOOTH",
"529 1240 OFFCURVE",
"508 1165 OFFCURVE",
"508 1061 CURVE SMOOTH",
"508 0 LINE",
"698 0 LINE",
"698 1061 LINE SMOOTH",
"698 1165 OFFCURVE",
"677 1240 OFFCURVE",
"636 1281 CURVE SMOOTH",
"619 1298 OFFCURVE",
"619 1326 OFFCURVE",
"636 1343 CURVE SMOOTH",
"653 1360 OFFCURVE",
"682 1359 OFFCURVE",
"698 1343 CURVE SMOOTH",
"739 1302 OFFCURVE",
"814 1280 OFFCURVE",
"917 1280 CURVE SMOOTH",
"1201 1280 LINE",
"1201 1440 LINE",
"4 1440 LINE"
);
},
{
closed = 1;
nodes = (
"290 1079 LINE",
"290 919 LINE",
"354 919 OFFCURVE",
"427 929 OFFCURVE",
"499 988 CURVE SMOOTH",
"510 997 OFFCURVE",
"525 1011 OFFCURVE",
"547 1011 CURVE SMOOTH",
"578 1011 OFFCURVE",
"602 988 OFFCURVE",
"602 957 CURVE SMOOTH",
"602 935 OFFCURVE",
"591 923 OFFCURVE",
"574 906 CURVE SMOOTH",
"528 860 OFFCURVE",
"510 789 OFFCURVE",
"510 699 CURVE",
"700 699 LINE",
"700 789 OFFCURVE",
"682 860 OFFCURVE",
"636 906 CURVE SMOOTH",
"619 923 OFFCURVE",
"608 935 OFFCURVE",
"608 957 CURVE SMOOTH",
"608 988 OFFCURVE",
"632 1011 OFFCURVE",
"663 1011 CURVE SMOOTH",
"685 1011 OFFCURVE",
"700 997 OFFCURVE",
"711 988 CURVE SMOOTH",
"783 929 OFFCURVE",
"856 919 OFFCURVE",
"920 919 CURVE",
"920 1079 LINE"
);
}
);
};
layerId = "4B6FBC9C-F998-43BC-A943-BECCA28E0CA2";
paths = (
{
closed = 1;
nodes = (
"698 1150 OFFCURVE",
"680 1221 OFFCURVE",
"634 1267 CURVE SMOOTH",
"617 1284 OFFCURVE",
"606 1296 OFFCURVE",
"606 1318 CURVE SMOOTH",
"606 1349 OFFCURVE",
"630 1372 OFFCURVE",
"661 1372 CURVE SMOOTH",
"683 1372 OFFCURVE",
"698 1358 OFFCURVE",
"709 1349 CURVE SMOOTH",
"781 1290 OFFCURVE",
"854 1280 OFFCURVE",
"918 1280 CURVE SMOOTH",
"1201 1280 LINE",
"1201 1440 LINE",
"4 1440 LINE",
"4 1280 LINE",
"288 1280 LINE SMOOTH",
"352 1280 OFFCURVE",
"425 1290 OFFCURVE",
"497 1349 CURVE SMOOTH",
"508 1358 OFFCURVE",
"523 1372 OFFCURVE",
"545 1372 CURVE SMOOTH",
"576 1372 OFFCURVE",
"600 1349 OFFCURVE",
"600 1318 CURVE SMOOTH",
"600 1296 OFFCURVE",
"589 1284 OFFCURVE",
"572 1267 CURVE SMOOTH",
"526 1221 OFFCURVE",
"508 1150 OFFCURVE",
"508 1060 CURVE SMOOTH",
"508 0 LINE",
"698 0 LINE",
"698 1060 LINE SMOOTH"
);
}
);
width = 1205;
}
);
leftKerningGroup = T;
rightKerningGroup = T;
unicode = 0054;
},
{
color = 6;
glyphname = U;
lastChange = "2020-04-06 12:58:32 +0000";
layers = (
{
anchors = (
{
name = bottom;
position = "{681, 0}";
},
{
name = ogonek;
position = "{1226, 10}";
},
{
name = top;
position = "{681, 1440}";
},
{
name = topright;
position = "{1342, 1440}";
}
);
layerId = "4B6FBC9C-F998-43BC-A943-BECCA28E0CA2";
paths = (
{
closed = 1;
nodes = (
"1038 -24 OFFCURVE",
"1216 158 OFFCURVE",
"1216 539 CURVE SMOOTH",
"1216 1436 LINE",
"1026 1436 LINE",
"1026 539 LINE SMOOTH",
"1026 276 OFFCURVE",
"911 136 OFFCURVE",
"681 136 CURVE SMOOTH",
"451 136 OFFCURVE",
"336 276 OFFCURVE",
"336 539 CURVE SMOOTH",
"336 1436 LINE",
"146 1436 LINE",
"146 539 LINE SMOOTH",
"146 158 OFFCURVE",
"324 -24 OFFCURVE",
"681 -24 CURVE SMOOTH"
);
}
);
width = 1362;
}
);
leftKerningGroup = U;
rightKerningGroup = U;
unicode = 0055;
},
{
color = 6;
glyphname = V;
lastChange = "2020-04-07 21:01:47 +0000";
layers = (
{
background = {
components = (
{
name = A;
transform = "{1, 0, 0, -1, -57, 1440}";
}
);
};
layerId = "4B6FBC9C-F998-43BC-A943-BECCA28E0CA2";
paths = (
{
closed = 1;
nodes = (
"778 0 LINE",
"1334 1440 LINE",
"1129 1440 LINE",
"746 393 LINE SMOOTH",
"697 259 OFFCURVE",
"697 198 OFFCURVE",
"724 160 CURVE SMOOTH",
"734 146 OFFCURVE",
"739 132 OFFCURVE",
"739 115 CURVE SMOOTH",
"739 76 OFFCURVE",
"708 45 OFFCURVE",
"669 45 CURVE SMOOTH",
"631 45 OFFCURVE",
"599 76 OFFCURVE",
"599 114 CURVE SMOOTH",
"599 132 OFFCURVE",
"605 146 OFFCURVE",
"613 158 CURVE SMOOTH",
"640 198 OFFCURVE",
"643 259 OFFCURVE",
"594 393 CURVE SMOOTH",
"209 1440 LINE",
"4 1440 LINE",
"560 0 LINE"
);
}
);
userData = {
LWTimeline = "H4sIAAAAAAAAE22RS2+DMAyA/0rkczaRB3lwXLdqk9iQ2m49TNUUlbQgUZiArgfU/74Ah0K2W/zZn+XYHRxqc7INRJ8dFJevxhbuucOwWj9AxCmGb9NmY3pfVI1NIWrrs8VQVumgQagVClD88vYEGBQRt4AwSRHh/AaIkDOgCEdcqiFE69ck2Tw7KhVBTGmULJeL99VHXyiFQFSEPiI0REM8kR3WwayQaeSpgeyJZwoZenWCS6SZTwgVf1SHvfEEo4hpOkMBcb+Vvkz7npOl8OnSdld3jEuethlEhBOO4dzY+tG0BqIO4u0mP1mXCRUXbi7G7hkLmaL6iuHH1u12NO8Ihni8aN+vtvuqTvPyCNHBFI27ZmGadpGZ8vh/s18MSsJxJwIAAA==";
};
width = 1338;
},
{
associatedMasterId = "4B6FBC9C-F998-43BC-A943-BECCA28E0CA2";
layerId = "25DF3441-78C4-44CB-B41C-84FA9BBB815D";
name = "Mar 19 20, 11:10";
paths = (
{
closed = 1;
nodes = (
"598 0 LINE",
"816 0 LINE",
"1372 1440 LINE",
"1167 1440 LINE",
"814 478 LINE SMOOTH",
"781 389 OFFCURVE",
"766 265 OFFCURVE",
"766 125 CURVE SMOOTH",
"766 90 OFFCURVE",
"739 65 OFFCURVE",
"707 65 CURVE SMOOTH",
"675 65 OFFCURVE",
"647 93 OFFCURVE",
"647 126 CURVE SMOOTH",
"647 265 OFFCURVE",
"632 392 OFFCURVE",
"601 477 CURVE SMOOTH",
"247 1440 LINE",
"42 1440 LINE"
);
}
);
userData = {
LWTimeline = "H4sIAAAAAAAAE22RS2+DMAyA/0rkczaRB3lwXLdqk9iQ2m49TNUUlbQgUZiArgfU/74Ah0K2W/zZn+XYHRxqc7INRJ8dFJevxhbuucOwWj9AxCmGb9NmY3pfVI1NIWrrs8VQVumgQagVClD88vYEGBQRt4AwSRHh/AaIkDOgCEdcqiFE69ck2Tw7KhVBTGmULJeL99VHXyiFQFSEPiI0REM8kR3WwayQaeSpgeyJZwoZenWCS6SZTwgVf1SHvfEEo4hpOkMBcb+Vvkz7npOl8OnSdld3jEuethlEhBOO4dzY+tG0BqIO4u0mP1mXCRUXbi7G7hkLmaL6iuHH1u12NO8Ihni8aN+vtvuqTvPyCNHBFI27ZmGadpGZ8vh/s18MSsJxJwIAAA==";
};
width = 1414;
}
);
leftKerningGroup = V;
rightKerningGroup = V;
unicode = 0056;
},
{
color = 6;
glyphname = W;
lastChange = "2020-04-06 13:00:58 +0000";
layers = (
{
background = {
components = (
{
name = A;
transform = "{1, 0, 0, 1, 318, 0}";
}
);
};
layerId = "4B6FBC9C-F998-43BC-A943-BECCA28E0CA2";
paths = (
{
closed = 1;
nodes = (
"1394 491 LINE SMOOTH",
"1452 281 OFFCURVE",
"1445 210 OFFCURVE",
"1424 174 CURVE SMOOTH",
"1411 152 OFFCURVE",
"1404 133 OFFCURVE",
"1404 115 CURVE SMOOTH",
"1404 76 OFFCURVE",
"1436 45 OFFCURVE",
"1474 45 CURVE SMOOTH",
"1512 45 OFFCURVE",
"1544 76 OFFCURVE",
"1544 114 CURVE SMOOTH",
"1544 133 OFFCURVE",
"1536 152 OFFCURVE",
"1523 174 CURVE SMOOTH",
"1502 210 OFFCURVE",
"1499 281 OFFCURVE",
"1567 490 CURVE SMOOTH",
"1877 1440 LINE",
"2079 1440 LINE",
"1583 0 LINE",
"1377 0 LINE",
"1098 957 LINE SMOOTH",
"1052 1114 OFFCURVE",
"1073 1242 OFFCURVE",
"1100 1282 CURVE SMOOTH",
"1108 1294 OFFCURVE",
"1114 1308 OFFCURVE",
"1114 1325 CURVE SMOOTH",
"1114 1364 OFFCURVE",
"1082 1395 OFFCURVE",
"1044 1395 CURVE SMOOTH",
"1006 1395 OFFCURVE",
"974 1364 OFFCURVE",
"974 1325 CURVE SMOOTH",
"974 1308 OFFCURVE",
"980 1294 OFFCURVE",
"988 1282 CURVE SMOOTH",
"1013 1241 OFFCURVE",
"1036 1114 OFFCURVE",
"990 957 CURVE SMOOTH",
"711 0 LINE",
"505 0 LINE",
"9 1440 LINE",
"211 1440 LINE",
"521 490 LINE SMOOTH",
"589 281 OFFCURVE",
"586 210 OFFCURVE",
"565 174 CURVE SMOOTH",
"552 152 OFFCURVE",
"544 133 OFFCURVE",
"544 114 CURVE SMOOTH",
"544 76 OFFCURVE",
"576 45 OFFCURVE",
"614 45 CURVE SMOOTH",
"652 45 OFFCURVE",
"684 76 OFFCURVE",
"684 115 CURVE SMOOTH",
"684 133 OFFCURVE",
"677 152 OFFCURVE",
"664 174 CURVE SMOOTH",
"643 210 OFFCURVE",
"636 281 OFFCURVE",
"694 491 CURVE SMOOTH",
"954 1440 LINE",
"1134 1440 LINE"
);
}
);
width = 2088;
}
);
leftKerningGroup = W;
rightKerningGroup = W;
unicode = 0057;
},
{
color = 6;
glyphname = X;
lastChange = "2020-04-28 08:55:57 +0000";
layers = (
{
layerId = "4B6FBC9C-F998-43BC-A943-BECCA28E0CA2";
paths = (
{
closed = 1;
nodes = (
"222 0 LINE",
"515 454 LINE SMOOTH",
"565 531 OFFCURVE",
"575 593 OFFCURVE",
"555 632 CURVE SMOOTH",
"549 643 OFFCURVE",
"542 659 OFFCURVE",
"542 677 CURVE SMOOTH",
"542 716 OFFCURVE",
"574 747 OFFCURVE",
"612 747 CURVE SMOOTH",
"651 747 OFFCURVE",
"682 716 OFFCURVE",
"682 677 CURVE SMOOTH",
"682 659 OFFCURVE",
"675 643 OFFCURVE",
"669 632 CURVE SMOOTH",
"648 594 OFFCURVE",
"659 531 OFFCURVE",
"709 454 CURVE SMOOTH",
"1007 0 LINE",
"1235 0 LINE",
"731 750 LINE",
"1203 1440 LINE",
"991 1440 LINE",
"737 1054 LINE SMOOTH",
"686 976 OFFCURVE",
"660 916 OFFCURVE",
"681 878 CURVE SMOOTH",
"687 867 OFFCURVE",
"694 851 OFFCURVE",
"694 833 CURVE SMOOTH",
"694 794 OFFCURVE",
"663 763 OFFCURVE",
"624 763 CURVE SMOOTH",
"586 763 OFFCURVE",
"554 794 OFFCURVE",
"554 833 CURVE SMOOTH",
"554 851 OFFCURVE",
"561 867 OFFCURVE",
"567 878 CURVE SMOOTH",
"588 916 OFFCURVE",
"565 973 OFFCURVE",
"514 1051 CURVE SMOOTH",
"261 1440 LINE",
"31 1440 LINE",
"503 750 LINE",
"5 0 LINE"
);
}
);
width = 1238;
}
);
leftKerningGroup = X;
rightKerningGroup = X;
unicode = 0058;
},
{
color = 6;
glyphname = Y;
lastChange = "2020-04-28 08:56:01 +0000";
layers = (
{
anchors = (
{
name = bottom;
position = "{592, 0}";
},
{
name = top;
position = "{592, 1440}";
},
{
name = topleft;
position = "{20, 1440}";
}
);
layerId = "4B6FBC9C-F998-43BC-A943-BECCA28E0CA2";
paths = (
{
closed = 1;
nodes = (
"687 0 LINE",
"687 653 LINE",
"671 569 LINE",
"1192 1440 LINE",
"966 1440 LINE",
"704 963 LINE SMOOTH",
"635 837 OFFCURVE",
"620 781 OFFCURVE",
"647 743 CURVE SMOOTH",
"657 729 OFFCURVE",
"662 715 OFFCURVE",
"662 698 CURVE SMOOTH",
"662 659 OFFCURVE",
"631 628 OFFCURVE",
"592 628 CURVE SMOOTH",
"554 628 OFFCURVE",
"522 659 OFFCURVE",
"522 697 CURVE SMOOTH",
"522 715 OFFCURVE",
"528 729 OFFCURVE",
"536 741 CURVE SMOOTH",
"563 781 OFFCURVE",
"551 834 OFFCURVE",
"486 951 CURVE SMOOTH",
"217 1440 LINE",
"-9 1440 LINE",
"512 569 LINE",
"497 653 LINE",
"497 0 LINE"
);
}
);
width = 1183;
}
);
leftKerningGroup = Y;
rightKerningGroup = Y;
unicode = 0059;
},
{
color = 6;
glyphname = Z;
lastChange = "2020-04-28 08:56:05 +0000";
layers = (
{
layerId = "4B6FBC9C-F998-43BC-A943-BECCA28E0CA2";
paths = (
{
closed = 1;
nodes = (
"1057 0 LINE",
"1057 160 LINE",
"478 160 LINE SMOOTH",
"379 160 OFFCURVE",
"312 129 OFFCURVE",
"260 77 CURVE SMOOTH",
"249 66 OFFCURVE",
"234 59 OFFCURVE",
"217 59 CURVE SMOOTH",
"184 59 OFFCURVE",
"157 86 OFFCURVE",
"157 119 CURVE SMOOTH",
"157 135 OFFCURVE",
"160 153 OFFCURVE",
"185 172 CURVE SMOOTH",
"249 219 OFFCURVE",
"344 293 OFFCURVE",
"434 424 CURVE SMOOTH",
"1021 1279 LINE",
"1021 1440 LINE",
"64 1440 LINE",
"64 1280 LINE",
"586 1280 LINE SMOOTH",
"684 1280 OFFCURVE",
"752 1312 OFFCURVE",
"804 1364 CURVE SMOOTH",
"815 1375 OFFCURVE",
"829 1381 OFFCURVE",
"846 1381 CURVE SMOOTH",
"879 1381 OFFCURVE",
"906 1354 OFFCURVE",
"906 1321 CURVE SMOOTH",
"906 1305 OFFCURVE",
"903 1286 OFFCURVE",
"878 1268 CURVE SMOOTH",
"809 1218 OFFCURVE",
"715 1145 OFFCURVE",
"626 1016 CURVE SMOOTH",
"43 164 LINE",
"43 0 LINE"
);
}
);
width = 1094;
}
);
leftKerningGroup = Z;
rightKerningGroup = Z;
unicode = 005A;
},
{
color = 6;
glyphname = zero;
lastChange = "2020-04-06 14:24:20 +0000";
layers = (
{
background = {
paths = (
{
closed = 0;
nodes = (
"625 42 LINE",
"649 42 LINE SMOOTH",
"771 42 OFFCURVE",
"723 -34 OFFCURVE",
"851 3 CURVE SMOOTH",
"1109 78 OFFCURVE",
"1288 376 OFFCURVE",
"1287 721 CURVE SMOOTH",
"1286 1066 OFFCURVE",
"1108 1363 OFFCURVE",
"851 1439 CURVE SMOOTH",
"723 1477 OFFCURVE",
"771 1400 OFFCURVE",
"649 1400 CURVE SMOOTH",
"625 1400 LINE"
);
},
{
closed = 0;
nodes = (
"625 1390 LINE",
"649 1390 LINE",
"746 1390 OFFCURVE",
"712 1332 OFFCURVE",
"807 1290 CURVE SMOOTH",
"963 1221 OFFCURVE",
"1092 980 OFFCURVE",
"1091 721 CURVE SMOOTH",
"1090 462 OFFCURVE",
"963 223 OFFCURVE",
"807 152 CURVE SMOOTH",
"712 109 OFFCURVE",
"746 52 OFFCURVE",
"649 52 CURVE",
"625 52 LINE SMOOTH"
);
}
);
};
layerId = "4B6FBC9C-F998-43BC-A943-BECCA28E0CA2";
paths = (
{
closed = 1;
nodes = (
"281 1464 OFFCURVE",
"90 1195 OFFCURVE",
"90 719 CURVE SMOOTH",
"90 243 OFFCURVE",
"281 -25 OFFCURVE",
"618 -25 CURVE SMOOTH",
"955 -25 OFFCURVE",
"1146 243 OFFCURVE",
"1146 719 CURVE SMOOTH",
"1146 1195 OFFCURVE",
"955 1464 OFFCURVE",
"618 1464 CURVE SMOOTH"
);
},
{
closed = 1;
nodes = (
"833 1293 OFFCURVE",
"945 1095 OFFCURVE",
"945 719 CURVE SMOOTH",
"945 341 OFFCURVE",
"833 142 OFFCURVE",
"618 142 CURVE SMOOTH",
"406 142 OFFCURVE",
"294 341 OFFCURVE",
"294 719 CURVE SMOOTH",
"294 1095 OFFCURVE",
"406 1293 OFFCURVE",
"618 1293 CURVE SMOOTH"
);
}
);
width = 1236;
}
);
leftKerningGroup = zero;
rightKerningGroup = zero;
unicode = 0030;
},
{
color = 6;
glyphname = one;
lastChange = "2020-04-06 14:24:51 +0000";
layers = (
{
background = {
paths = (
{
closed = 1;
nodes = (
"402 1237 OFFCURVE",
"429 1264 OFFCURVE",
"429 1297 CURVE SMOOTH",
"429 1330 OFFCURVE",
"402 1357 OFFCURVE",
"369 1357 CURVE SMOOTH",
"336 1357 OFFCURVE",
"309 1330 OFFCURVE",
"309 1297 CURVE SMOOTH",
"309 1264 OFFCURVE",
"336 1237 OFFCURVE",
"369 1237 CURVE SMOOTH"
);
}
);
};
layerId = "4B6FBC9C-F998-43BC-A943-BECCA28E0CA2";
paths = (
{
closed = 1;
nodes = (
"10 1033 LINE",
"206 1440 LINE",
"507 1440 LINE",
"507 0 LINE",
"327 0 LINE",
"327 833 LINE SMOOTH",
"327 1053 OFFCURVE",
"361 1198 OFFCURVE",
"409 1252 CURVE SMOOTH",
"423 1267 OFFCURVE",
"429 1281 OFFCURVE",
"429 1296 CURVE SMOOTH",
"429 1331 OFFCURVE",
"402 1357 OFFCURVE",
"370 1357 CURVE SMOOTH",
"354 1357 OFFCURVE",
"339 1351 OFFCURVE",
"327 1339 CURVE SMOOTH",
"283 1295 OFFCURVE",
"343 1232 OFFCURVE",
"191 1003 CURVE SMOOTH",
"148 938 LINE"
);
}
);
width = 672;
}
);
leftKerningGroup = one;
rightKerningGroup = one;
unicode = 0031;
},
{
color = 6;
glyphname = two;
lastChange = "2020-04-27 10:34:43 +0000";
layers = (
{
layerId = "4B6FBC9C-F998-43BC-A943-BECCA28E0CA2";
paths = (
{
closed = 1;
nodes = (
"943 0 LINE",
"943 160 LINE",
"494 160 LINE SMOOTH",
"394 160 OFFCURVE",
"326 128 OFFCURVE",
"275 77 CURVE SMOOTH",
"264 66 OFFCURVE",
"249 59 OFFCURVE",
"232 59 CURVE SMOOTH",
"199 59 OFFCURVE",
"172 86 OFFCURVE",
"172 119 CURVE SMOOTH",
"172 135 OFFCURVE",
"179 150 OFFCURVE",
"189 161 CURVE SMOOTH",
"224 198 OFFCURVE",
"300 188 OFFCURVE",
"420 312 CURVE SMOOTH",
"766 670 LINE SMOOTH",
"824 730 OFFCURVE",
"955 866 OFFCURVE",
"955 1064 CURVE SMOOTH",
"955 1302 OFFCURVE",
"764 1464 OFFCURVE",
"509 1464 CURVE SMOOTH",
"253 1464 OFFCURVE",
"68 1302 OFFCURVE",
"68 1083 CURVE SMOOTH",
"68 1003 OFFCURVE",
"93 921 OFFCURVE",
"155 850 CURVE",
"296 956 LINE",
"269 991 OFFCURVE",
"252 1024 OFFCURVE",
"252 1078 CURVE SMOOTH",
"252 1223 OFFCURVE",
"373 1304 OFFCURVE",
"511 1304 CURVE SMOOTH",
"652 1304 OFFCURVE",
"770 1218 OFFCURVE",
"770 1064 CURVE SMOOTH",
"770 932 OFFCURVE",
"683 834 OFFCURVE",
"631 781 CURVE SMOOTH",
"38 169 LINE",
"38 0 LINE"
);
}
);
width = 1030;
},
{
associatedMasterId = "4B6FBC9C-F998-43BC-A943-BECCA28E0CA2";
background = {
paths = (
{
closed = 1;
nodes = (
"264 66 OFFCURVE",
"249 59 OFFCURVE",
"232 59 CURVE SMOOTH",
"199 59 OFFCURVE",
"172 86 OFFCURVE",
"172 119 CURVE SMOOTH",
"172 135 OFFCURVE",
"179 150 OFFCURVE",
"189 161 CURVE SMOOTH",
"281 263 OFFCURVE",
"435 328 OFFCURVE",
"530 426 CURVE SMOOTH",
"766 670 LINE SMOOTH",
"893 802 OFFCURVE",
"955 923 OFFCURVE",
"955 1068 CURVE SMOOTH",
"955 1312 OFFCURVE",
"753 1464 OFFCURVE",
"511 1464 CURVE SMOOTH",
"262 1464 OFFCURVE",
"82 1300 OFFCURVE",
"68 1037 CURVE",
"249 1037 LINE",
"253 1213 OFFCURVE",
"359 1314 OFFCURVE",
"507 1314 CURVE SMOOTH",
"647 1314 OFFCURVE",
"770 1223 OFFCURVE",
"770 1069 CURVE SMOOTH",
"770 973 OFFCURVE",
"733 886 OFFCURVE",
"631 781 CURVE SMOOTH",
"38 169 LINE",
"38 0 LINE",
"943 0 LINE",
"943 200 LINE",
"988 160 LINE",
"494 160 LINE SMOOTH",
"394 160 OFFCURVE",
"326 128 OFFCURVE",
"275 77 CURVE SMOOTH"
);
}
);
};
layerId = "8DF6B71E-D502-44CE-94D2-E0214A141EAD";
name = "Apr 6 20, 16:09";
paths = (
{
closed = 1;
nodes = (
"264 66 OFFCURVE",
"249 59 OFFCURVE",
"232 59 CURVE SMOOTH",
"199 59 OFFCURVE",
"172 86 OFFCURVE",
"172 119 CURVE SMOOTH",
"172 135 OFFCURVE",
"179 150 OFFCURVE",
"189 161 CURVE SMOOTH",
"281 263 OFFCURVE",
"435 328 OFFCURVE",
"530 426 CURVE SMOOTH",
"766 670 LINE SMOOTH",
"893 802 OFFCURVE",
"955 923 OFFCURVE",
"955 1068 CURVE SMOOTH",
"955 1312 OFFCURVE",
"753 1464 OFFCURVE",
"511 1464 CURVE SMOOTH",
"262 1464 OFFCURVE",
"82 1300 OFFCURVE",
"68 1037 CURVE",
"249 1037 LINE",
"253 1213 OFFCURVE",
"359 1314 OFFCURVE",
"507 1314 CURVE SMOOTH",
"647 1314 OFFCURVE",
"770 1223 OFFCURVE",
"770 1069 CURVE SMOOTH",
"770 973 OFFCURVE",
"733 886 OFFCURVE",
"631 781 CURVE SMOOTH",
"38 169 LINE",
"38 0 LINE",
"943 0 LINE",
"943 200 LINE",
"988 160 LINE",
"494 160 LINE SMOOTH",
"394 160 OFFCURVE",
"326 128 OFFCURVE",
"275 77 CURVE SMOOTH"
);
}
);
width = 1030;
}
);
leftKerningGroup = two;
rightKerningGroup = two;
unicode = 0032;
},
{
color = 6;
glyphname = three;
lastChange = "2020-04-08 11:04:13 +0000";
layers = (
{
associatedMasterId = "4B6FBC9C-F998-43BC-A943-BECCA28E0CA2";
background = {
paths = (
{
closed = 1;
nodes = (
"848 -24 OFFCURVE",
"1047 134 OFFCURVE",
"1047 390 CURVE SMOOTH",
"1047 570 OFFCURVE",
"948 687 OFFCURVE",
"765 746 CURVE",
"943 809 OFFCURVE",
"1024 905 OFFCURVE",
"1024 1070 CURVE SMOOTH",
"1024 1329 OFFCURVE",
"821 1464 OFFCURVE",
"555 1464 CURVE SMOOTH",
"257 1464 OFFCURVE",
"74 1294 OFFCURVE",
"74 1023 CURVE",
"273 1023 LINE",
"273 1203 OFFCURVE",
"372 1297 OFFCURVE",
"547 1297 CURVE SMOOTH",
"717 1297 OFFCURVE",
"827 1201 OFFCURVE",
"827 1057 CURVE SMOOTH",
"827 906 OFFCURVE",
"706 826 OFFCURVE",
"509 826 CURVE SMOOTH",
"430 826 LINE",
"430 663 LINE",
"509 663 LINE SMOOTH",
"729 663 OFFCURVE",
"848 552 OFFCURVE",
"848 394 CURVE SMOOTH",
"848 238 OFFCURVE",
"731 144 OFFCURVE",
"552 144 CURVE SMOOTH",
"366 144 OFFCURVE",
"260 245 OFFCURVE",
"260 426 CURVE",
"63 426 LINE",
"63 130 OFFCURVE",
"262 -24 OFFCURVE",
"553 -24 CURVE SMOOTH"
);
},
{
closed = 1;
nodes = (
"672 686 OFFCURVE",
"645 713 OFFCURVE",
"645 746 CURVE SMOOTH",
"645 779 OFFCURVE",
"672 806 OFFCURVE",
"705 806 CURVE SMOOTH",
"721 806 OFFCURVE",
"736 799 OFFCURVE",
"747 788 CURVE SMOOTH",
"758 778 OFFCURVE",
"765 763 OFFCURVE",
"765 746 CURVE SMOOTH",
"765 729 OFFCURVE",
"758 714 OFFCURVE",
"747 704 CURVE SMOOTH",
"736 693 OFFCURVE",
"721 686 OFFCURVE",
"705 686 CURVE SMOOTH"
);
}
);
};
layerId = "E61E7CEE-C2C4-420E-A46D-F73E8F0FCD60";
name = "Apr 6 20, 16:12";
paths = (
{
closed = 1;
nodes = (
"839 -24 OFFCURVE",
"1047 126 OFFCURVE",
"1047 391 CURVE SMOOTH",
"1047 612 OFFCURVE",
"888 704 OFFCURVE",
"778 704 CURVE SMOOTH",
"729 704 OFFCURVE",
"701 686 OFFCURVE",
"663 686 CURVE SMOOTH",
"621 686 OFFCURVE",
"595 711 OFFCURVE",
"595 746 CURVE SMOOTH",
"595 779 OFFCURVE",
"617 806 OFFCURVE",
"665 806 CURVE SMOOTH",
"701 806 OFFCURVE",
"747 791 OFFCURVE",
"791 791 CURVE SMOOTH",
"885 791 OFFCURVE",
"1024 858 OFFCURVE",
"1024 1073 CURVE SMOOTH",
"1024 1319 OFFCURVE",
"832 1464 OFFCURVE",
"555 1464 CURVE SMOOTH",
"257 1464 OFFCURVE",
"74 1294 OFFCURVE",
"74 1023 CURVE",
"273 1023 LINE",
"273 1203 OFFCURVE",
"373 1297 OFFCURVE",
"545 1297 CURVE SMOOTH",
"726 1297 OFFCURVE",
"827 1194 OFFCURVE",
"827 1057 CURVE SMOOTH",
"827 906 OFFCURVE",
"706 826 OFFCURVE",
"509 826 CURVE SMOOTH",
"430 826 LINE",
"430 663 LINE",
"509 663 LINE SMOOTH",
"729 663 OFFCURVE",
"848 552 OFFCURVE",
"848 394 CURVE SMOOTH",
"848 238 OFFCURVE",
"731 144 OFFCURVE",
"552 144 CURVE SMOOTH",
"366 144 OFFCURVE",
"260 245 OFFCURVE",
"260 426 CURVE",
"63 426 LINE",
"63 130 OFFCURVE",
"262 -24 OFFCURVE",
"553 -24 CURVE SMOOTH"
);
}
);
width = 1135;
},
{
associatedMasterId = "4B6FBC9C-F998-43BC-A943-BECCA28E0CA2";
background = {
paths = (
{
closed = 1;
nodes = (
"242 1464 OFFCURVE",
"41 1310 OFFCURVE",
"41 1014 CURVE",
"240 1014 LINE",
"240 1195 OFFCURVE",
"346 1304 OFFCURVE",
"532 1304 CURVE SMOOTH",
"711 1304 OFFCURVE",
"830 1202 OFFCURVE",
"830 1046 CURVE SMOOTH",
"830 888 OFFCURVE",
"709 777 OFFCURVE",
"489 777 CURVE SMOOTH",
"410 777 LINE",
"410 614 LINE",
"489 614 LINE SMOOTH",
"686 614 OFFCURVE",
"808 534 OFFCURVE",
"808 383 CURVE SMOOTH",
"808 246 OFFCURVE",
"706 136 OFFCURVE",
"525 136 CURVE SMOOTH",
"383 136 OFFCURVE",
"263 210 OFFCURVE",
"263 361 CURVE SMOOTH",
"263 416 OFFCURVE",
"279 453 OFFCURVE",
"305 485 CURVE",
"164 591 LINE",
"105 519 OFFCURVE",
"78 438 OFFCURVE",
"78 357 CURVE SMOOTH",
"78 135 OFFCURVE",
"263 -24 OFFCURVE",
"532 -24 CURVE SMOOTH",
"812 -24 OFFCURVE",
"1004 121 OFFCURVE",
"1004 367 CURVE SMOOTH",
"1004 582 OFFCURVE",
"865 649 OFFCURVE",
"771 649 CURVE SMOOTH",
"727 649 OFFCURVE",
"681 634 OFFCURVE",
"645 634 CURVE SMOOTH",
"597 634 OFFCURVE",
"575 661 OFFCURVE",
"575 694 CURVE SMOOTH",
"575 729 OFFCURVE",
"601 754 OFFCURVE",
"643 754 CURVE SMOOTH",
"681 754 OFFCURVE",
"709 736 OFFCURVE",
"758 736 CURVE SMOOTH",
"868 736 OFFCURVE",
"1027 828 OFFCURVE",
"1027 1049 CURVE SMOOTH",
"1027 1314 OFFCURVE",
"819 1464 OFFCURVE",
"533 1464 CURVE SMOOTH"
);
}
);
};
layerId = "DD537E56-AE66-40D3-8476-6101DAD62FD9";
name = "Apr 6 20, 16:23";
paths = (
{
closed = 1;
nodes = (
"839 -24 OFFCURVE",
"1047 126 OFFCURVE",
"1047 391 CURVE SMOOTH",
"1047 612 OFFCURVE",
"888 704 OFFCURVE",
"778 704 CURVE SMOOTH",
"729 704 OFFCURVE",
"701 686 OFFCURVE",
"663 686 CURVE SMOOTH",
"621 686 OFFCURVE",
"595 711 OFFCURVE",
"595 746 CURVE SMOOTH",
"595 779 OFFCURVE",
"617 806 OFFCURVE",
"665 806 CURVE SMOOTH",
"701 806 OFFCURVE",
"747 791 OFFCURVE",
"791 791 CURVE SMOOTH",
"885 791 OFFCURVE",
"1024 858 OFFCURVE",
"1024 1073 CURVE SMOOTH",
"1024 1319 OFFCURVE",
"832 1464 OFFCURVE",
"552 1464 CURVE SMOOTH",
"283 1464 OFFCURVE",
"98 1305 OFFCURVE",
"98 1083 CURVE SMOOTH",
"98 1002 OFFCURVE",
"125 921 OFFCURVE",
"184 849 CURVE",
"325 955 LINE",
"299 987 OFFCURVE",
"283 1024 OFFCURVE",
"283 1079 CURVE SMOOTH",
"283 1230 OFFCURVE",
"403 1304 OFFCURVE",
"545 1304 CURVE SMOOTH",
"726 1304 OFFCURVE",
"828 1194 OFFCURVE",
"828 1057 CURVE SMOOTH",
"828 906 OFFCURVE",
"706 826 OFFCURVE",
"509 826 CURVE SMOOTH",
"430 826 LINE",
"430 663 LINE",
"509 663 LINE SMOOTH",
"729 663 OFFCURVE",
"850 552 OFFCURVE",
"850 394 CURVE SMOOTH",
"850 238 OFFCURVE",
"731 136 OFFCURVE",
"552 136 CURVE SMOOTH",
"384 136 OFFCURVE",
"263 197 OFFCURVE",
"263 361 CURVE SMOOTH",
"263 416 OFFCURVE",
"279 453 OFFCURVE",
"305 485 CURVE",
"164 591 LINE",
"105 519 OFFCURVE",
"78 438 OFFCURVE",
"78 357 CURVE SMOOTH",
"78 107 OFFCURVE",
"290 -24 OFFCURVE",
"553 -24 CURVE SMOOTH"
);
}
);
width = 1135;
},
{
layerId = "4B6FBC9C-F998-43BC-A943-BECCA28E0CA2";
paths = (
{
closed = 1;
nodes = (
"839 -24 OFFCURVE",
"1047 126 OFFCURVE",
"1047 391 CURVE SMOOTH",
"1047 612 OFFCURVE",
"888 704 OFFCURVE",
"778 704 CURVE SMOOTH",
"729 704 OFFCURVE",
"701 686 OFFCURVE",
"663 686 CURVE SMOOTH",
"621 686 OFFCURVE",
"595 711 OFFCURVE",
"595 746 CURVE SMOOTH",
"595 779 OFFCURVE",
"617 806 OFFCURVE",
"665 806 CURVE SMOOTH",
"701 806 OFFCURVE",
"747 791 OFFCURVE",
"791 791 CURVE SMOOTH",
"885 791 OFFCURVE",
"1024 858 OFFCURVE",
"1024 1073 CURVE SMOOTH",
"1024 1319 OFFCURVE",
"832 1464 OFFCURVE",
"555 1464 CURVE SMOOTH",
"257 1464 OFFCURVE",
"74 1294 OFFCURVE",
"74 1023 CURVE",
"273 1023 LINE",
"273 1203 OFFCURVE",
"373 1304 OFFCURVE",
"545 1304 CURVE SMOOTH",
"726 1304 OFFCURVE",
"828 1194 OFFCURVE",
"828 1057 CURVE SMOOTH",
"828 906 OFFCURVE",
"706 826 OFFCURVE",
"509 826 CURVE SMOOTH",
"430 826 LINE",
"430 663 LINE",
"509 663 LINE SMOOTH",
"729 663 OFFCURVE",
"850 552 OFFCURVE",
"850 394 CURVE SMOOTH",
"850 238 OFFCURVE",
"731 136 OFFCURVE",
"552 136 CURVE SMOOTH",
"366 136 OFFCURVE",
"260 245 OFFCURVE",
"260 426 CURVE",
"61 426 LINE",
"61 130 OFFCURVE",
"262 -24 OFFCURVE",
"553 -24 CURVE SMOOTH"
);
}
);
width = 1135;
}
);
leftKerningGroup = three;
rightKerningGroup = three;
unicode = 0033;
},
{
color = 6;
glyphname = four;
lastChange = "2020-04-06 13:02:30 +0000";
layers = (
{
background = {
paths = (
{
closed = 1;
nodes = (
"910 0 LINE",
"910 334 LINE",
"1132 334 LINE",
"1132 498 LINE",
"910 498 LINE",
"910 1440 LINE",
"709 1440 LINE",
"20 520 LINE",
"20 334 LINE",
"715 334 LINE",
"713 0 LINE"
);
},
{
closed = 1;
nodes = (
"91 437 OFFCURVE",
"92 474 OFFCURVE",
"115 498 CURVE SMOOTH",
"138 522 OFFCURVE",
"175 521 OFFCURVE",
"199 498 CURVE SMOOTH",
"223 475 OFFCURVE",
"222 438 OFFCURVE",
"199 414 CURVE SMOOTH",
"176 390 OFFCURVE",
"139 391 OFFCURVE",
"115 414 CURVE SMOOTH"
);
},
{
closed = 1;
nodes = (
"290 346 OFFCURVE",
"263 373 OFFCURVE",
"263 406 CURVE SMOOTH",
"263 439 OFFCURVE",
"290 466 OFFCURVE",
"323 466 CURVE SMOOTH",
"356 466 OFFCURVE",
"383 439 OFFCURVE",
"383 406 CURVE SMOOTH",
"383 373 OFFCURVE",
"356 346 OFFCURVE",
"323 346 CURVE SMOOTH"
);
},
{
closed = 1;
nodes = (
"693 437 OFFCURVE",
"693 475 OFFCURVE",
"716 498 CURVE SMOOTH",
"740 522 OFFCURVE",
"777 521 OFFCURVE",
"801 498 CURVE SMOOTH",
"825 475 OFFCURVE",
"825 437 OFFCURVE",
"801 413 CURVE SMOOTH",
"778 390 OFFCURVE",
"739 389 OFFCURVE",
"716 413 CURVE SMOOTH"
);
},
{
closed = 1;
nodes = (
"721 1190 LINE",
"716 498 LINE",
"199 498 LINE"
);
},
{
closed = 1;
nodes = (
"698 1214 OFFCURVE",
"698 1252 OFFCURVE",
"721 1275 CURVE SMOOTH",
"745 1299 OFFCURVE",
"782 1298 OFFCURVE",
"806 1275 CURVE SMOOTH",
"830 1252 OFFCURVE",
"830 1214 OFFCURVE",
"806 1190 CURVE SMOOTH",
"783 1167 OFFCURVE",
"744 1166 OFFCURVE",
"721 1190 CURVE SMOOTH"
);
}
);
};
layerId = "4B6FBC9C-F998-43BC-A943-BECCA28E0CA2";
paths = (
{
closed = 1;
nodes = (
"910 0 LINE",
"910 334 LINE",
"1132 334 LINE",
"1132 498 LINE",
"910 498 LINE",
"910 1440 LINE",
"709 1440 LINE",
"20 520 LINE",
"20 334 LINE",
"715 334 LINE",
"713 0 LINE"
);
},
{
closed = 1;
nodes = (
"124 396 OFFCURVE",
"97 423 OFFCURVE",
"97 456 CURVE SMOOTH",
"97 480 OFFCURVE",
"112 507 OFFCURVE",
"152 516 CURVE SMOOTH",
"230 532 OFFCURVE",
"275 598 OFFCURVE",
"330 671 CURVE SMOOTH",
"603 1033 LINE SMOOTH",
"665 1117 OFFCURVE",
"704 1178 OFFCURVE",
"704 1232 CURVE SMOOTH",
"704 1265 OFFCURVE",
"731 1292 OFFCURVE",
"764 1292 CURVE SMOOTH",
"797 1292 OFFCURVE",
"824 1265 OFFCURVE",
"824 1232 CURVE SMOOTH",
"824 1216 OFFCURVE",
"818 1202 OFFCURVE",
"806 1190 CURVE SMOOTH",
"765 1149 OFFCURVE",
"720 1078 OFFCURVE",
"719 929 CURVE SMOOTH",
"718 738 LINE SMOOTH",
"717 604 OFFCURVE",
"761 539 OFFCURVE",
"801 499 CURVE SMOOTH",
"812 488 OFFCURVE",
"819 473 OFFCURVE",
"819 456 CURVE SMOOTH",
"819 423 OFFCURVE",
"792 396 OFFCURVE",
"759 396 CURVE SMOOTH",
"743 396 OFFCURVE",
"728 403 OFFCURVE",
"717 413 CURVE SMOOTH",
"680 448 OFFCURVE",
"651 498 OFFCURVE",
"493 498 CURVE SMOOTH",
"421 498 LINE SMOOTH",
"314 498 OFFCURVE",
"254 469 OFFCURVE",
"222 433 CURVE SMOOTH",
"201 410 OFFCURVE",
"182 396 OFFCURVE",
"157 396 CURVE SMOOTH"
);
}
);
width = 1144;
},
{
associatedMasterId = "4B6FBC9C-F998-43BC-A943-BECCA28E0CA2";
layerId = "8D213151-9C56-4CE9-B543-816E2235BEF5";
name = "Mar 23 20, 14:28";
paths = (
{
closed = 1;
nodes = (
"721 334 LINE",
"719 0 LINE",
"916 0 LINE",
"916 334 LINE",
"1138 334 LINE",
"1138 498 LINE",
"916 498 LINE",
"916 1440 LINE",
"715 1440 LINE",
"26 520 LINE",
"26 334 LINE"
);
},
{
closed = 1;
nodes = (
"727 1190 LINE",
"722 498 LINE",
"205 498 LINE"
);
}
);
width = 1200;
}
);
leftKerningGroup = four;
rightKerningGroup = four;
unicode = 0034;
},
{
color = 6;
glyphname = five;
lastChange = "2020-04-06 13:12:56 +0000";
layers = (
{
background = {
paths = (
{
closed = 1;
nodes = (
"884 -24 OFFCURVE",
"1085 167 OFFCURVE",
"1085 475 CURVE SMOOTH",
"1085 792 OFFCURVE",
"875 951 OFFCURVE",
"613 951 CURVE SMOOTH",
"506 951 OFFCURVE",
"427 931 OFFCURVE",
"329 836 CURVE",
"368 1271 LINE",
"1009 1271 LINE",
"1009 1440 LINE",
"189 1440 LINE",
"131 603 LINE",
"316 603 LINE",
"363 714 OFFCURVE",
"461 789 OFFCURVE",
"603 789 CURVE SMOOTH",
"759 789 OFFCURVE",
"888 686 OFFCURVE",
"888 479 CURVE SMOOTH",
"888 276 OFFCURVE",
"781 143 OFFCURVE",
"583 143 CURVE SMOOTH",
"387 143 OFFCURVE",
"307 246 OFFCURVE",
"288 391 CURVE",
"96 391 LINE",
"104 159 OFFCURVE",
"284 -24 OFFCURVE",
"586 -24 CURVE SMOOTH"
);
},
{
closed = 1;
nodes = (
"352 776 OFFCURVE",
"353 813 OFFCURVE",
"329 836 CURVE SMOOTH",
"305 859 OFFCURVE",
"268 860 OFFCURVE",
"245 836 CURVE SMOOTH",
"222 812 OFFCURVE",
"221 775 OFFCURVE",
"245 752 CURVE SMOOTH",
"269 729 OFFCURVE",
"306 728 OFFCURVE",
"329 752 CURVE SMOOTH"
);
},
{
closed = 1;
nodes = (
"391 1295 OFFCURVE",
"392 1332 OFFCURVE",
"368 1355 CURVE SMOOTH",
"344 1378 OFFCURVE",
"307 1379 OFFCURVE",
"284 1355 CURVE SMOOTH",
"261 1331 OFFCURVE",
"260 1294 OFFCURVE",
"284 1271 CURVE SMOOTH",
"308 1248 OFFCURVE",
"345 1247 OFFCURVE",
"368 1271 CURVE SMOOTH"
);
}
);
};
layerId = "4B6FBC9C-F998-43BC-A943-BECCA28E0CA2";
paths = (
{
closed = 1;
nodes = (
"395 909 OFFCURVE",
"343 774 CURVE SMOOTH",
"331 743 OFFCURVE",
"303 734 OFFCURVE",
"286 734 CURVE SMOOTH",
"253 734 OFFCURVE",
"226 761 OFFCURVE",
"226 794 CURVE SMOOTH",
"226 811 OFFCURVE",
"233 827 OFFCURVE",
"245 838 CURVE SMOOTH",
"296 885 OFFCURVE",
"337 913 OFFCURVE",
"349 1060 CURVE SMOOTH",
"353 1109 LINE SMOOTH",
"362 1217 OFFCURVE",
"318 1240 OFFCURVE",
"285 1271 CURVE SMOOTH",
"273 1282 OFFCURVE",
"266 1297 OFFCURVE",
"266 1314 CURVE SMOOTH",
"266 1347 OFFCURVE",
"293 1374 OFFCURVE",
"326 1374 CURVE SMOOTH",
"343 1374 OFFCURVE",
"358 1367 OFFCURVE",
"369 1356 CURVE SMOOTH",
"409 1316 OFFCURVE",
"417 1271 OFFCURVE",
"513 1271 CURVE SMOOTH",
"1009 1271 LINE",
"1009 1440 LINE",
"189 1440 LINE",
"131 603 LINE",
"316 603 LINE",
"363 714 OFFCURVE",
"461 789 OFFCURVE",
"603 789 CURVE SMOOTH",
"759 789 OFFCURVE",
"888 686 OFFCURVE",
"888 479 CURVE SMOOTH",
"888 276 OFFCURVE",
"781 143 OFFCURVE",
"583 143 CURVE SMOOTH",
"387 143 OFFCURVE",
"307 246 OFFCURVE",
"288 391 CURVE",
"96 391 LINE",
"104 159 OFFCURVE",
"284 -24 OFFCURVE",
"586 -24 CURVE SMOOTH",
"884 -24 OFFCURVE",
"1085 167 OFFCURVE",
"1085 475 CURVE SMOOTH",
"1085 792 OFFCURVE",
"875 951 OFFCURVE",
"613 951 CURVE SMOOTH",
"444 951 OFFCURVE"
);
}
);
width = 1151;
}
);
leftKerningGroup = five;
rightKerningGroup = five;
unicode = 0035;
},
{
color = 6;
glyphname = six;
lastChange = "2020-04-06 14:19:47 +0000";
layers = (
{
layerId = "4B6FBC9C-F998-43BC-A943-BECCA28E0CA2";
paths = (
{
closed = 1;
nodes = (
"313 659 OFFCURVE",
"427 779 OFFCURVE",
"614 779 CURVE SMOOTH",
"787 779 OFFCURVE",
"900 658 OFFCURVE",
"900 459 CURVE SMOOTH",
"900 254 OFFCURVE",
"789 129 OFFCURVE",
"621 129 CURVE SMOOTH",
"429 129 OFFCURVE",
"313 254 OFFCURVE",
"313 461 CURVE SMOOTH"
);
},
{
closed = 1;
nodes = (
"290 645 OFFCURVE",
"264 636 OFFCURVE",
"244 636 CURVE SMOOTH",
"211 636 OFFCURVE",
"184 663 OFFCURVE",
"184 696 CURVE SMOOTH",
"184 713 OFFCURVE",
"191 729 OFFCURVE",
"203 740 CURVE SMOOTH",
"255 787 OFFCURVE",
"275 835 OFFCURVE",
"316 1017 CURVE SMOOTH",
"355 1192 OFFCURVE",
"464 1306 OFFCURVE",
"624 1306 CURVE SMOOTH",
"785 1306 OFFCURVE",
"861 1196 OFFCURVE",
"875 1078 CURVE",
"1065 1078 LINE",
"1039 1274 OFFCURVE",
"906 1464 OFFCURVE",
"621 1464 CURVE SMOOTH",
"256 1464 OFFCURVE",
"95 1137 OFFCURVE",
"95 727 CURVE SMOOTH",
"95 267 OFFCURVE",
"202 -24 OFFCURVE",
"624 -24 CURVE SMOOTH",
"898 -24 OFFCURVE",
"1082 195 OFFCURVE",
"1080 465 CURVE SMOOTH",
"1078 731 OFFCURVE",
"902 935 OFFCURVE",
"640 935 CURVE",
"408 935 OFFCURVE",
"375 844 OFFCURVE",
"303 675 CURVE SMOOTH"
);
}
);
width = 1164;
},
{
associatedMasterId = "4B6FBC9C-F998-43BC-A943-BECCA28E0CA2";
background = {
paths = (
{
closed = 1;
nodes = (
"898 -24 OFFCURVE",
"1082 195 OFFCURVE",
"1080 465 CURVE SMOOTH",
"1078 731 OFFCURVE",
"902 935 OFFCURVE",
"640 935 CURVE SMOOTH",
"453 935 OFFCURVE",
"305 863 OFFCURVE",
"256 687 CURVE",
"276 671 LINE",
"276 1095 OFFCURVE",
"402 1306 OFFCURVE",
"624 1306 CURVE SMOOTH",
"785 1306 OFFCURVE",
"861 1196 OFFCURVE",
"875 1078 CURVE",
"1065 1078 LINE",
"1039 1275 OFFCURVE",
"907 1464 OFFCURVE",
"621 1464 CURVE SMOOTH",
"256 1464 OFFCURVE",
"95 1137 OFFCURVE",
"95 727 CURVE SMOOTH",
"95 267 OFFCURVE",
"202 -24 OFFCURVE",
"624 -24 CURVE SMOOTH"
);
},
{
closed = 1;
nodes = (
"429 129 OFFCURVE",
"313 254 OFFCURVE",
"313 461 CURVE SMOOTH",
"313 659 OFFCURVE",
"427 779 OFFCURVE",
"614 779 CURVE SMOOTH",
"787 779 OFFCURVE",
"900 658 OFFCURVE",
"900 459 CURVE SMOOTH",
"900 254 OFFCURVE",
"789 129 OFFCURVE",
"621 129 CURVE SMOOTH"
);
},
{
closed = 1;
nodes = (
"277 636 OFFCURVE",
"304 663 OFFCURVE",
"304 696 CURVE SMOOTH",
"304 729 OFFCURVE",
"277 756 OFFCURVE",
"244 756 CURVE SMOOTH",
"211 756 OFFCURVE",
"184 729 OFFCURVE",
"184 696 CURVE SMOOTH",
"184 663 OFFCURVE",
"211 636 OFFCURVE",
"244 636 CURVE SMOOTH"
);
}
);
};
layerId = "37006D30-B5AD-4689-B1C0-26E4656EDADA";
name = "Apr 6 20, 16:19";
paths = (
{
closed = 1;
nodes = (
"313 659 OFFCURVE",
"427 779 OFFCURVE",
"614 779 CURVE SMOOTH",
"787 779 OFFCURVE",
"900 658 OFFCURVE",
"900 459 CURVE SMOOTH",
"900 254 OFFCURVE",
"789 129 OFFCURVE",
"621 129 CURVE SMOOTH",
"429 129 OFFCURVE",
"313 254 OFFCURVE",
"313 461 CURVE SMOOTH"
);
},
{
closed = 1;
nodes = (
"290 645 OFFCURVE",
"264 636 OFFCURVE",
"244 636 CURVE SMOOTH",
"211 636 OFFCURVE",
"184 663 OFFCURVE",
"184 696 CURVE SMOOTH",
"184 713 OFFCURVE",
"191 729 OFFCURVE",
"203 740 CURVE SMOOTH",
"255 787 OFFCURVE",
"275 835 OFFCURVE",
"316 1017 CURVE SMOOTH",
"355 1192 OFFCURVE",
"464 1306 OFFCURVE",
"624 1306 CURVE SMOOTH",
"785 1306 OFFCURVE",
"861 1196 OFFCURVE",
"875 1078 CURVE",
"1065 1078 LINE",
"1039 1274 OFFCURVE",
"906 1464 OFFCURVE",
"621 1464 CURVE SMOOTH",
"256 1464 OFFCURVE",
"95 1137 OFFCURVE",
"95 727 CURVE SMOOTH",
"95 267 OFFCURVE",
"202 -24 OFFCURVE",
"624 -24 CURVE SMOOTH",
"898 -24 OFFCURVE",
"1082 195 OFFCURVE",
"1080 465 CURVE SMOOTH",
"1078 731 OFFCURVE",
"902 935 OFFCURVE",
"640 935 CURVE",
"408 935 OFFCURVE",
"375 844 OFFCURVE",
"303 675 CURVE SMOOTH"
);
}
);
width = 1164;
}
);
leftKerningGroup = six;
rightKerningGroup = six;
unicode = 0036;
},
{
color = 6;
glyphname = seven;
lastChange = "2020-04-06 14:23:34 +0000";
layers = (
{
background = {
paths = (
{
closed = 1;
nodes = (
"1 1271 LINE",
"554 0 LINE",
"773 0 LINE",
"301 1058 LINE SMOOTH",
"242 1191 OFFCURVE",
"152 1253 OFFCURVE",
"129 1278 CURVE SMOOTH",
"119 1289 OFFCURVE",
"112 1304 OFFCURVE",
"112 1320 CURVE SMOOTH",
"112 1353 OFFCURVE",
"139 1380 OFFCURVE",
"172 1380 CURVE SMOOTH",
"189 1380 OFFCURVE",
"204 1373 OFFCURVE",
"215 1362 CURVE SMOOTH",
"266 1311 OFFCURVE",
"334 1280 OFFCURVE",
"434 1280 CURVE SMOOTH",
"580 1280 LINE SMOOTH",
"618 1280 OFFCURVE",
"698 1282 OFFCURVE",
"791 1358 CURVE SMOOTH",
"802 1367 OFFCURVE",
"817 1382 OFFCURVE",
"842 1382 CURVE SMOOTH",
"876 1382 OFFCURVE",
"903 1355 OFFCURVE",
"903 1321 CURVE SMOOTH",
"903 1298 OFFCURVE",
"892 1286 OFFCURVE",
"871 1266 CURVE SMOOTH",
"819 1217 OFFCURVE",
"800 1145 OFFCURVE",
"800 1060 CURVE SMOOTH",
"800 1005 LINE",
"990 1005 LINE",
"990 1440 LINE",
"1 1440 LINE"
);
}
);
};
layerId = "4B6FBC9C-F998-43BC-A943-BECCA28E0CA2";
paths = (
{
closed = 1;
nodes = (
"20 1440 LINE",
"20 1005 LINE",
"210 1005 LINE",
"210 1060 LINE SMOOTH",
"210 1145 OFFCURVE",
"190 1216 OFFCURVE",
"139 1266 CURVE SMOOTH",
"118 1286 OFFCURVE",
"107 1298 OFFCURVE",
"107 1321 CURVE SMOOTH",
"107 1355 OFFCURVE",
"134 1382 OFFCURVE",
"168 1382 CURVE SMOOTH",
"193 1382 OFFCURVE",
"208 1367 OFFCURVE",
"219 1358 CURVE SMOOTH",
"310 1280 OFFCURVE",
"392 1280 OFFCURVE",
"430 1280 CURVE SMOOTH",
"580 1280 LINE SMOOTH",
"618 1280 OFFCURVE",
"698 1282 OFFCURVE",
"791 1358 CURVE SMOOTH",
"803 1368 OFFCURVE",
"817 1382 OFFCURVE",
"842 1382 CURVE SMOOTH",
"876 1382 OFFCURVE",
"903 1355 OFFCURVE",
"903 1321 CURVE SMOOTH",
"903 1298 OFFCURVE",
"892 1286 OFFCURVE",
"871 1266 CURVE SMOOTH",
"830 1227 OFFCURVE",
"761 1175 OFFCURVE",
"709 1058 CURVE SMOOTH",
"237 0 LINE",
"456 0 LINE",
"1009 1271 LINE",
"1009 1440 LINE"
);
}
);
width = 1026;
},
{
associatedMasterId = "4B6FBC9C-F998-43BC-A943-BECCA28E0CA2";
layerId = "8F401B0C-8C10-4978-8FF5-3C72FE1D098C";
name = "Mar 23 20, 14:49";
paths = (
{
closed = 1;
nodes = (
"1015 1440 LINE",
"11 1440 LINE",
"11 1270 LINE",
"811 1270 LINE",
"243 0 LINE",
"462 0 LINE",
"1015 1271 LINE"
);
}
);
width = 1200;
},
{
associatedMasterId = "4B6FBC9C-F998-43BC-A943-BECCA28E0CA2";
background = {
paths = (
{
closed = 1;
nodes = (
"237 0 LINE",
"456 0 LINE",
"1009 1271 LINE",
"1009 1440 LINE",
"5 1440 LINE",
"5 1225 LINE",
"-40 1280 LINE",
"576 1280 LINE SMOOTH",
"676 1280 OFFCURVE",
"744 1311 OFFCURVE",
"795 1362 CURVE SMOOTH",
"806 1373 OFFCURVE",
"821 1380 OFFCURVE",
"838 1380 CURVE SMOOTH",
"871 1380 OFFCURVE",
"898 1353 OFFCURVE",
"898 1320 CURVE SMOOTH",
"898 1304 OFFCURVE",
"891 1289 OFFCURVE",
"881 1278 CURVE SMOOTH",
"821 1212 OFFCURVE",
"703 1043 OFFCURVE",
"626 870 CURVE SMOOTH"
);
}
);
};
layerId = "D873C599-C299-4CD2-9368-81E238FD1974";
name = "Apr 6 20, 16:18";
paths = (
{
closed = 1;
nodes = (
"5 1280 LINE",
"576 1280 LINE SMOOTH",
"676 1280 OFFCURVE",
"744 1311 OFFCURVE",
"795 1362 CURVE SMOOTH",
"806 1373 OFFCURVE",
"821 1380 OFFCURVE",
"838 1380 CURVE SMOOTH",
"871 1380 OFFCURVE",
"898 1353 OFFCURVE",
"898 1320 CURVE SMOOTH",
"898 1304 OFFCURVE",
"891 1289 OFFCURVE",
"881 1278 CURVE SMOOTH",
"858 1253 OFFCURVE",
"768 1191 OFFCURVE",
"709 1058 CURVE SMOOTH",
"237 0 LINE",
"456 0 LINE",
"1009 1271 LINE",
"1009 1440 LINE",
"5 1440 LINE"
);
}
);
width = 1026;
}
);
leftKerningGroup = seven;
rightKerningGroup = seven;
unicode = 0037;
},
{
color = 6;
glyphname = eight;
lastChange = "2020-04-06 13:05:26 +0000";
layers = (
{
background = {
components = (
{
name = three;
transform = "{1, 0, 0, 1, 42, 0}";
}
);
};
layerId = "4B6FBC9C-F998-43BC-A943-BECCA28E0CA2";
paths = (
{
closed = 1;
nodes = (
"871 1465 OFFCURVE",
"1061 1309 OFFCURVE",
"1061 1081 CURVE SMOOTH",
"1061 858 OFFCURVE",
"931 791 OFFCURVE",
"837 791 CURVE SMOOTH",
"793 791 OFFCURVE",
"747 806 OFFCURVE",
"711 806 CURVE SMOOTH",
"663 806 OFFCURVE",
"641 779 OFFCURVE",
"641 746 CURVE SMOOTH",
"641 711 OFFCURVE",
"667 686 OFFCURVE",
"709 686 CURVE SMOOTH",
"747 686 OFFCURVE",
"775 704 OFFCURVE",
"824 704 CURVE SMOOTH",
"933 704 OFFCURVE",
"1094 612 OFFCURVE",
"1094 401 CURVE SMOOTH",
"1094 137 OFFCURVE",
"890 -24 OFFCURVE",
"588 -24 CURVE SMOOTH",
"286 -24 OFFCURVE",
"82 137 OFFCURVE",
"82 401 CURVE SMOOTH",
"82 612 OFFCURVE",
"243 704 OFFCURVE",
"352 704 CURVE SMOOTH",
"401 704 OFFCURVE",
"429 686 OFFCURVE",
"467 686 CURVE SMOOTH",
"509 686 OFFCURVE",
"535 711 OFFCURVE",
"535 746 CURVE SMOOTH",
"535 779 OFFCURVE",
"513 806 OFFCURVE",
"465 806 CURVE SMOOTH",
"429 806 OFFCURVE",
"383 791 OFFCURVE",
"339 791 CURVE SMOOTH",
"245 791 OFFCURVE",
"115 858 OFFCURVE",
"115 1081 CURVE SMOOTH",
"115 1309 OFFCURVE",
"305 1465 OFFCURVE",
"588 1465 CURVE SMOOTH"
);
},
{
closed = 1;
nodes = (
"814 140 OFFCURVE",
"893 236 OFFCURVE",
"893 403 CURVE SMOOTH",
"893 575 OFFCURVE",
"780 658 OFFCURVE",
"588 658 CURVE SMOOTH",
"396 658 OFFCURVE",
"283 575 OFFCURVE",
"283 403 CURVE SMOOTH",
"283 236 OFFCURVE",
"362 140 OFFCURVE",
"588 140 CURVE SMOOTH"
);
},
{
closed = 1;
nodes = (
"763 825 OFFCURVE",
"873 919 OFFCURVE",
"873 1074 CURVE SMOOTH",
"873 1216 OFFCURVE",
"783 1301 OFFCURVE",
"588 1301 CURVE SMOOTH",
"393 1301 OFFCURVE",
"303 1216 OFFCURVE",
"303 1074 CURVE SMOOTH",
"303 919 OFFCURVE",
"413 825 OFFCURVE",
"588 825 CURVE SMOOTH"
);
}
);
width = 1177;
},
{
associatedMasterId = "4B6FBC9C-F998-43BC-A943-BECCA28E0CA2";
layerId = "DCFB6F89-62C5-4AD8-A427-9C0F96AFCA6E";
name = "Mar 23 20, 14:52";
paths = (
{
closed = 1;
nodes = (
"858 -24 OFFCURVE",
"1092 137 OFFCURVE",
"1092 401 CURVE SMOOTH",
"1092 593 OFFCURVE",
"968 694 OFFCURVE",
"786 740 CURVE",
"786 746 LINE",
"937 794 OFFCURVE",
"1059 908 OFFCURVE",
"1059 1081 CURVE SMOOTH",
"1059 1309 OFFCURVE",
"849 1465 OFFCURVE",
"586 1465 CURVE SMOOTH",
"323 1465 OFFCURVE",
"113 1309 OFFCURVE",
"113 1081 CURVE SMOOTH",
"113 908 OFFCURVE",
"235 794 OFFCURVE",
"386 746 CURVE",
"386 740 LINE",
"204 694 OFFCURVE",
"80 593 OFFCURVE",
"80 401 CURVE SMOOTH",
"80 137 OFFCURVE",
"314 -24 OFFCURVE",
"586 -24 CURVE SMOOTH"
);
},
{
closed = 1;
nodes = (
"390 140 OFFCURVE",
"281 236 OFFCURVE",
"281 403 CURVE SMOOTH",
"281 575 OFFCURVE",
"394 658 OFFCURVE",
"586 658 CURVE SMOOTH",
"778 658 OFFCURVE",
"891 575 OFFCURVE",
"891 403 CURVE SMOOTH",
"891 236 OFFCURVE",
"782 140 OFFCURVE",
"586 140 CURVE SMOOTH"
);
},
{
closed = 1;
nodes = (
"411 825 OFFCURVE",
"301 919 OFFCURVE",
"301 1074 CURVE SMOOTH",
"301 1216 OFFCURVE",
"411 1301 OFFCURVE",
"586 1301 CURVE SMOOTH",
"761 1301 OFFCURVE",
"871 1216 OFFCURVE",
"871 1074 CURVE SMOOTH",
"871 919 OFFCURVE",
"761 825 OFFCURVE",
"586 825 CURVE SMOOTH"
);
}
);
width = 1200;
}
);
leftKerningGroup = eight;
rightKerningGroup = eight;
unicode = 0038;
},
{
color = 6;
glyphname = fraction;
lastChange = "2020-04-06 10:49:17 +0000";
layers = (
{
layerId = "4B6FBC9C-F998-43BC-A943-BECCA28E0CA2";
paths = (
{
closed = 1;
nodes = (
"1161 1620 LINE",
"0 -174 LINE",
"85 -174 LINE",
"1246 1620 LINE"
);
}
);
width = 1246;
}
);
unicode = 2044;
},
{
color = 6;
glyphname = period;
lastChange = "2020-04-06 13:05:54 +0000";
layers = (
{
layerId = "4B6FBC9C-F998-43BC-A943-BECCA28E0CA2";
paths = (
{
closed = 1;
nodes = (
"390 -14 OFFCURVE",
"454 51 OFFCURVE",
"454 131 CURVE SMOOTH",
"454 212 OFFCURVE",
"390 277 OFFCURVE",
"309 277 CURVE SMOOTH",
"228 277 OFFCURVE",
"164 212 OFFCURVE",
"164 131 CURVE SMOOTH",
"164 51 OFFCURVE",
"228 -14 OFFCURVE",
"309 -14 CURVE SMOOTH"
);
}
);
width = 618;
}
);
leftKerningGroup = period;
rightKerningGroup = period;
unicode = 002E;
},
{
color = 6;
glyphname = comma;
lastChange = "2020-04-06 11:12:29 +0000";
layers = (
{
layerId = "4B6FBC9C-F998-43BC-A943-BECCA28E0CA2";
paths = (
{
closed = 1;
nodes = (
"138 185 LINE",
"10 -307 LINE",
"136 -307 LINE",
"360 185 LINE"
);
}
);
width = 470;
}
);
leftKerningGroup = comma;
rightKerningGroup = comma;
unicode = 002C;
},
{
glyphname = semicolon;
lastChange = "2020-04-06 10:57:28 +0000";
layers = (
{
components = (
{
name = period;
transform = "{1, 0, 0, 1, -67, 771}";
}
);
layerId = "4B6FBC9C-F998-43BC-A943-BECCA28E0CA2";
paths = (
{
closed = 1;
nodes = (
"138 185 LINE",
"10 -307 LINE",
"136 -307 LINE",
"360 185 LINE"
);
}
);
width = 497;
}
);
leftKerningGroup = comma;
leftMetricsKey = comma;
rightKerningGroup = comma;
rightMetricsKey = comma;
unicode = 003B;
},
{
color = 6;
glyphname = exclam;
lastChange = "2020-04-06 12:41:53 +0000";
layers = (
{
layerId = "4B6FBC9C-F998-43BC-A943-BECCA28E0CA2";
paths = (
{
closed = 1;
nodes = (
"399 1440 LINE",
"176 1440 LINE",
"214 330 LINE",
"355 330 LINE"
);
},
{
closed = 1;
nodes = (
"369 -14 OFFCURVE",
"433 51 OFFCURVE",
"433 131 CURVE SMOOTH",
"433 212 OFFCURVE",
"369 277 OFFCURVE",
"288 277 CURVE SMOOTH",
"207 277 OFFCURVE",
"143 212 OFFCURVE",
"143 131 CURVE SMOOTH",
"143 51 OFFCURVE",
"207 -14 OFFCURVE",
"288 -14 CURVE SMOOTH"
);
}
);
width = 574;
}
);
leftKerningGroup = period;
rightKerningGroup = period;
unicode = 0021;
},
{
color = 6;
glyphname = question;
lastChange = "2020-04-06 14:29:17 +0000";
layers = (
{
background = {
components = (
{
name = two;
transform = "{1, 0, 0, 1, -22, 0}";
}
);
};
layerId = "4B6FBC9C-F998-43BC-A943-BECCA28E0CA2";
paths = (
{
closed = 1;
nodes = (
"204 1463 OFFCURVE",
"45 1285 OFFCURVE",
"45 1084 CURVE SMOOTH",
"45 1003 OFFCURVE",
"71 920 OFFCURVE",
"132 849 CURVE",
"275 956 LINE",
"249 991 OFFCURVE",
"230 1024 OFFCURVE",
"230 1079 CURVE SMOOTH",
"230 1207 OFFCURVE",
"331 1303 OFFCURVE",
"498 1303 CURVE SMOOTH",
"648 1303 OFFCURVE",
"743 1226 OFFCURVE",
"743 1083 CURVE SMOOTH",
"743 961 OFFCURVE",
"673 909 OFFCURVE",
"582 824 CURVE SMOOTH",
"378 634 OFFCURVE",
"378 572 OFFCURVE",
"378 393 CURVE SMOOTH",
"378 333 LINE",
"535 333 LINE",
"535 561 OFFCURVE",
"563 598 OFFCURVE",
"719 734 CURVE SMOOTH",
"842 842 OFFCURVE",
"932 912 OFFCURVE",
"932 1082 CURVE SMOOTH",
"932 1322 OFFCURVE",
"754 1463 OFFCURVE",
"495 1463 CURVE SMOOTH"
);
},
{
closed = 1;
nodes = (
"539 -14 OFFCURVE",
"603 51 OFFCURVE",
"603 131 CURVE SMOOTH",
"603 212 OFFCURVE",
"539 277 OFFCURVE",
"458 277 CURVE SMOOTH",
"377 277 OFFCURVE",
"313 212 OFFCURVE",
"313 131 CURVE SMOOTH",
"313 51 OFFCURVE",
"377 -14 OFFCURVE",
"458 -14 CURVE SMOOTH"
);
}
);
width = 987;
}
);
leftKerningGroup = question;
rightKerningGroup = question;
unicode = 003F;
},
{
color = 6;
glyphname = asterisk;
lastChange = "2020-04-06 13:06:07 +0000";
layers = (
{
layerId = "4B6FBC9C-F998-43BC-A943-BECCA28E0CA2";
paths = (
{
closed = 1;
nodes = (
"438 608 LINE",
"528 608 LINE",
"528 1440 LINE",
"438 1440 LINE"
);
},
{
closed = 1;
nodes = (
"821 777 LINE",
"866 855 LINE",
"145 1271 LINE",
"100 1193 LINE"
);
},
{
closed = 1;
nodes = (
"866 1193 LINE",
"821 1271 LINE",
"100 855 LINE",
"145 777 LINE"
);
}
);
width = 966;
}
);
leftKerningGroup = asterisk;
rightKerningGroup = asterisk;
unicode = 002A;
},
{
color = 6;
glyphname = numbersign;
lastChange = "2020-04-06 10:49:17 +0000";
layers = (
{
layerId = "4B6FBC9C-F998-43BC-A943-BECCA28E0CA2";
paths = (
{
closed = 1;
nodes = (
"605 1620 LINE",
"125 -174 LINE",
"210 -174 LINE",
"690 1620 LINE"
);
},
{
closed = 1;
nodes = (
"1205 1620 LINE",
"725 -174 LINE",
"810 -174 LINE",
"1290 1620 LINE"
);
},
{
closed = 1;
nodes = (
"-10 561 LINE",
"1385 201 LINE",
"1385 286 LINE",
"-10 646 LINE"
);
},
{
closed = 1;
nodes = (
"10 1161 LINE",
"1405 801 LINE",
"1405 886 LINE",
"10 1246 LINE"
);
}
);
width = 1415;
}
);
unicode = 0023;
},
{
color = 6;
glyphname = slash;
lastChange = "2020-04-07 21:03:31 +0000";
layers = (
{
background = {
components = (
{
name = parenleft;
transform = "{1, 0, 0, 1, 368, 0}";
}
);
};
layerId = "4B6FBC9C-F998-43BC-A943-BECCA28E0CA2";
paths = (
{
closed = 1;
nodes = (
"640 1620 LINE",
"0 -174 LINE",
"85 -174 LINE",
"725 1620 LINE"
);
}
);
width = 730;
}
);
leftKerningGroup = slash;
rightKerningGroup = slash;
unicode = 002F;
},
{
color = 6;
glyphname = parenleft;
lastChange = "2020-04-06 10:49:17 +0000";
layers = (
{
guideLines = (
{
position = "{171, 722}";
}
);
layerId = "4B6FBC9C-F998-43BC-A943-BECCA28E0CA2";
paths = (
{
closed = 1;
nodes = (
"262 1620 LINE",
"95 1376 OFFCURVE",
"0 1052 OFFCURVE",
"0 723 CURVE SMOOTH",
"0 396 OFFCURVE",
"95 70 OFFCURVE",
"262 -174 CURVE",
"352 -174 LINE",
"185 70 OFFCURVE",
"82 396 OFFCURVE",
"82 723 CURVE SMOOTH",
"82 1052 OFFCURVE",
"185 1376 OFFCURVE",
"352 1620 CURVE"
);
}
);
width = 452;
}
);
unicode = 0028;
},
{
color = 6;
glyphname = braceleft;
lastChange = "2020-04-06 10:49:17 +0000";
layers = (
{
layerId = "4B6FBC9C-F998-43BC-A943-BECCA28E0CA2";
paths = (
{
closed = 1;
nodes = (
"150 528 LINE",
"150 -180 LINE",
"460 -180 LINE",
"460 -104 LINE",
"230 -104 LINE",
"230 539 LINE",
"90 720 LINE",
"230 901 LINE",
"230 1544 LINE",
"460 1544 LINE",
"460 1620 LINE",
"150 1620 LINE",
"150 912 LINE",
"0 720 LINE"
);
}
);
width = 560;
}
);
unicode = 007B;
},
{
color = 6;
glyphname = bracketleft;
lastChange = "2020-04-06 10:49:17 +0000";
layers = (
{
background = {
paths = (
{
closed = 1;
nodes = (
"220 1620 LINE",
"53 1376 OFFCURVE",
"-42 1052 OFFCURVE",
"-42 723 CURVE SMOOTH",
"-42 396 OFFCURVE",
"53 70 OFFCURVE",
"220 -174 CURVE",
"310 -174 LINE",
"143 70 OFFCURVE",
"40 396 OFFCURVE",
"40 723 CURVE SMOOTH",
"40 1052 OFFCURVE",
"143 1376 OFFCURVE",
"310 1620 CURVE"
);
}
);
};
layerId = "4B6FBC9C-F998-43BC-A943-BECCA28E0CA2";
paths = (
{
closed = 1;
nodes = (
"310 -174 LINE",
"310 -98 LINE",
"80 -98 LINE",
"80 1544 LINE",
"310 1544 LINE",
"310 1620 LINE",
"0 1620 LINE",
"0 -174 LINE"
);
}
);
width = 410;
}
);
unicode = 005B;
},
{
color = 6;
glyphname = emdash;
lastChange = "2020-04-06 11:06:42 +0000";
layers = (
{
layerId = "4B6FBC9C-F998-43BC-A943-BECCA28E0CA2";
paths = (
{
closed = 1;
nodes = (
"0 655 LINE",
"2048 655 LINE",
"2048 815 LINE",
"0 815 LINE"
);
}
);
width = 2048;
}
);
leftKerningGroup = hyphen;
rightKerningGroup = hyphen;
unicode = 2014;
},
{
color = 6;
glyphname = guilsinglleft;
lastChange = "2020-04-06 10:49:17 +0000";
layers = (
{
layerId = "4B6FBC9C-F998-43BC-A943-BECCA28E0CA2";
paths = (
{
closed = 1;
nodes = (
"530 1204 LINE",
"0 723 LINE",
"530 236 LINE",
"620 236 LINE",
"90 720 LINE",
"620 1204 LINE"
);
}
);
width = 630;
}
);
unicode = 2039;
},
{
color = 6;
glyphname = .notdef;
lastChange = "2020-04-06 13:42:05 +0000";
layers = (
{
layerId = "4B6FBC9C-F998-43BC-A943-BECCA28E0CA2";
paths = (
{
closed = 1;
nodes = (
"410 23 OFFCURVE",
"511 57 OFFCURVE",
"592 112 CURVE SMOOTH",
"617 129 OFFCURVE",
"637 154 OFFCURVE",
"662 171 CURVE SMOOTH",
"728 216 OFFCURVE",
"801 252 OFFCURVE",
"859 310 CURVE SMOOTH",
"886 337 OFFCURVE",
"905 369 OFFCURVE",
"929 399 CURVE SMOOTH",
"964 442 OFFCURVE",
"1024 478 OFFCURVE",
"1039 532 CURVE SMOOTH",
"1041 539 OFFCURVE",
"1042 547 OFFCURVE",
"1042 556 CURVE SMOOTH",
"1042 572 OFFCURVE",
"1039 589 OFFCURVE",
"1038 604 CURVE SMOOTH",
"1037 622 OFFCURVE",
"1039 642 OFFCURVE",
"1039 661 CURVE SMOOTH",
"1039 671 OFFCURVE",
"1038 682 OFFCURVE",
"1036 691 CURVE SMOOTH",
"1026 735 OFFCURVE",
"977 788 OFFCURVE",
"938 807 CURVE SMOOTH",
"900 825 OFFCURVE",
"861 828 OFFCURVE",
"822 838 CURVE SMOOTH",
"777 850 OFFCURVE",
"734 870 OFFCURVE",
"689 880 CURVE SMOOTH",
"680 882 OFFCURVE",
"518 851 OFFCURVE",
"531 864 CURVE SMOOTH",
"547 880 OFFCURVE",
"410 786 OFFCURVE",
"363 786 CURVE SMOOTH",
"316 786 OFFCURVE",
"224 739 OFFCURVE",
"205 715 CURVE SMOOTH",
"167 667 OFFCURVE",
"144 615 OFFCURVE",
"119 559 CURVE SMOOTH",
"85 484 OFFCURVE",
"60 404 OFFCURVE",
"29 327 CURVE SMOOTH",
"25 317 OFFCURVE",
"0 270 OFFCURVE",
"0 260 CURVE SMOOTH",
"0 130 OFFCURVE",
"52 92 OFFCURVE",
"168 48 CURVE SMOOTH",
"213 31 OFFCURVE",
"262 23 OFFCURVE",
"311 23 CURVE SMOOTH"
);
},
{
closed = 1;
nodes = (
"263 48 OFFCURVE",
"218 56 OFFCURVE",
"177 71 CURVE SMOOTH",
"55 118 OFFCURVE",
"25 154 OFFCURVE",
"25 260 CURVE SMOOTH",
"25 259 OFFCURVE",
"38 288 OFFCURVE",
"44 299 CURVE SMOOTH",
"49 310 OFFCURVE",
"51 314 OFFCURVE",
"52 318 CURVE",
"65 349 OFFCURVE",
"76 380 OFFCURVE",
"87 411 CURVE SMOOTH",
"105 458 OFFCURVE",
"122 504 OFFCURVE",
"142 549 CURVE SMOOTH",
"167 605 OFFCURVE",
"189 654 OFFCURVE",
"225 699 CURVE SMOOTH",
"242 721 OFFCURVE",
"329 761 OFFCURVE",
"363 761 CURVE SMOOTH",
"377 761 OFFCURVE",
"445 802 OFFCURVE",
"525 827 CURVE SMOOTH",
"600 849 OFFCURVE",
"687 855 OFFCURVE",
"684 856 CURVE SMOOTH",
"707 850 OFFCURVE",
"730 842 OFFCURVE",
"754 834 CURVE SMOOTH",
"774 827 OFFCURVE",
"794 819 OFFCURVE",
"816 814 CURVE SMOOTH",
"829 810 OFFCURVE",
"842 808 OFFCURVE",
"854 805 CURVE SMOOTH",
"881 800 OFFCURVE",
"904 795 OFFCURVE",
"927 784 CURVE SMOOTH",
"963 767 OFFCURVE",
"1004 719 OFFCURVE",
"1012 686 CURVE SMOOTH",
"1013 679 OFFCURVE",
"1014 670 OFFCURVE",
"1014 661 CURVE SMOOTH",
"1014 654 OFFCURVE",
"1014 647 OFFCURVE",
"1013 639 CURVE SMOOTH",
"1013 627 OFFCURVE",
"1012 615 OFFCURVE",
"1013 602 CURVE SMOOTH",
"1013 596 OFFCURVE",
"1014 590 OFFCURVE",
"1015 583 CURVE SMOOTH",
"1016 573 OFFCURVE",
"1017 565 OFFCURVE",
"1017 556 CURVE SMOOTH",
"1017 549 OFFCURVE",
"1016 543 OFFCURVE",
"1015 539 CURVE SMOOTH",
"1007 510 OFFCURVE",
"982 486 OFFCURVE",
"953 459 CURVE SMOOTH",
"938 445 OFFCURVE",
"922 431 OFFCURVE",
"910 415 CURVE SMOOTH",
"901 403 OFFCURVE",
"892 392 OFFCURVE",
"884 381 CURVE SMOOTH",
"870 361 OFFCURVE",
"857 344 OFFCURVE",
"841 328 CURVE SMOOTH",
"803 289 OFFCURVE",
"757 261 OFFCURVE",
"709 231 CURVE SMOOTH",
"689 218 OFFCURVE",
"668 205 OFFCURVE",
"648 192 CURVE SMOOTH",
"634 182 OFFCURVE",
"621 170 OFFCURVE",
"610 160 CURVE SMOOTH",
"599 149 OFFCURVE",
"589 140 OFFCURVE",
"578 133 CURVE SMOOTH",
"498 78 OFFCURVE",
"402 48 OFFCURVE",
"311 48 CURVE SMOOTH"
);
},
{
closed = 1;
nodes = (
"741 809 OFFCURVE",
"760 869 OFFCURVE",
"767 890 CURVE SMOOTH",
"778 924 OFFCURVE",
"782 962 OFFCURVE",
"782 999 CURVE SMOOTH",
"782 1031 OFFCURVE",
"780 1062 OFFCURVE",
"777 1092 CURVE SMOOTH",
"773 1130 OFFCURVE",
"767 1170 OFFCURVE",
"750 1205 CURVE SMOOTH",
"723 1261 OFFCURVE",
"732 1276 OFFCURVE",
"669 1276 CURVE SMOOTH",
"648 1276 OFFCURVE",
"628 1268 OFFCURVE",
"607 1264 CURVE SMOOTH",
"602 1263 OFFCURVE",
"587 1262 OFFCURVE",
"584 1259 CURVE",
"584 1259 OFFCURVE",
"584 1258 OFFCURVE",
"584 1258 CURVE",
"584 1254 OFFCURVE",
"591 1247 OFFCURVE",
"591 1247 CURVE",
"614 1222 OFFCURVE",
"629 1229 OFFCURVE",
"656 1209 CURVE SMOOTH",
"690 1184 OFFCURVE",
"725 1100 OFFCURVE",
"740 1062 CURVE SMOOTH",
"744 1052 OFFCURVE",
"745 1033 OFFCURVE",
"745 1011 CURVE SMOOTH",
"745 967 OFFCURVE",
"740 910 OFFCURVE",
"740 882 CURVE SMOOTH",
"740 862 OFFCURVE",
"737 842 OFFCURVE",
"737 822 CURVE SMOOTH",
"737 811 OFFCURVE",
"741 802 OFFCURVE",
"741 791 CURVE",
"741 791 OFFCURVE",
"741 790 OFFCURVE",
"741 790 CURVE"
);
},
{
closed = 1;
nodes = (
"894 708 OFFCURVE",
"899 710 OFFCURVE",
"899 710 CURVE",
"917 717 OFFCURVE",
"934 731 OFFCURVE",
"949 741 CURVE SMOOTH",
"971 755 OFFCURVE",
"985 778 OFFCURVE",
"1006 794 CURVE SMOOTH",
"1037 818 OFFCURVE",
"1131 895 OFFCURVE",
"1166 912 CURVE SMOOTH",
"1242 949 OFFCURVE",
"1268 960 OFFCURVE",
"1351 950 CURVE SMOOTH",
"1385 946 OFFCURVE",
"1424 938 OFFCURVE",
"1458 938 CURVE SMOOTH",
"1461 938 OFFCURVE",
"1464 936 OFFCURVE",
"1465 938 CURVE",
"1465 938 OFFCURVE",
"1465 939 OFFCURVE",
"1464 940 CURVE SMOOTH",
"1438 966 OFFCURVE",
"1446 956 OFFCURVE",
"1414 974 CURVE SMOOTH",
"1363 1003 OFFCURVE",
"1348 1012 OFFCURVE",
"1288 1012 CURVE SMOOTH",
"1163 1012 OFFCURVE",
"1190 1002 OFFCURVE",
"1129 970 CURVE SMOOTH",
"1067 938 OFFCURVE",
"1026 899 OFFCURVE",
"974 846 CURVE SMOOTH",
"958 830 OFFCURVE",
"943 813 OFFCURVE",
"932 794 CURVE SMOOTH",
"925 782 OFFCURVE",
"885 717 OFFCURVE",
"893 709 CURVE SMOOTH"
);
},
{
closed = 1;
nodes = (
"720.705 239.324 LINE",
"676.781 312.691 OFFCURVE",
"567.093 372.531 OFFCURVE",
"489.385 402.806 CURVE SMOOTH",
"436.346 423.47 OFFCURVE",
"399.101 473.183 OFFCURVE",
"344.803 492.664 CURVE SMOOTH",
"314.147 503.663 OFFCURVE",
"284.162 514.398 OFFCURVE",
"252.839 523.346 CURVE SMOOTH",
"234.766 528.51 OFFCURVE",
"216.013 537.648 OFFCURVE",
"197.962 544.508 CURVE SMOOTH",
"185.137 549.382 OFFCURVE",
"174.041 554.868 OFFCURVE",
"160.321 554.868 CURVE SMOOTH",
"151.163 554.868 OFFCURVE",
"145.821 542.514 OFFCURVE",
"139.253 536.371 CURVE SMOOTH",
"138.346 535.523 OFFCURVE",
"130.367 529.542 OFFCURVE",
"130.367 526.522 CURVE SMOOTH",
"130.367 526.178 OFFCURVE",
"130.471 525.873 OFFCURVE",
"130.699 525.619 CURVE SMOOTH",
"151.064 502.883 OFFCURVE",
"206.402 479.901 OFFCURVE",
"232.787 460.917 CURVE SMOOTH",
"252.67 446.611 OFFCURVE",
"271.08 426.596 OFFCURVE",
"288.64 409.868 CURVE SMOOTH",
"326.605 373.701 OFFCURVE",
"360.34 337.874 OFFCURVE",
"404.386 308.668 CURVE SMOOTH",
"463.203 269.668 OFFCURVE",
"562.82 227.854 OFFCURVE",
"649.161 227.854 CURVE SMOOTH",
"674.168 227.854 OFFCURVE",
"699 231 OFFCURVE",
"721 239 CURVE"
);
},
{
closed = 1;
nodes = (
"527 122 LINE",
"493 172 OFFCURVE",
"407 213 OFFCURVE",
"347 233 CURVE SMOOTH",
"306 248 OFFCURVE",
"276 282 OFFCURVE",
"234 295 CURVE SMOOTH",
"210 303 OFFCURVE",
"186 310 OFFCURVE",
"162 316 CURVE SMOOTH",
"148 320 OFFCURVE",
"133 326 OFFCURVE",
"119 331 CURVE SMOOTH",
"109 334 OFFCURVE",
"100 338 OFFCURVE",
"90 338 CURVE SMOOTH",
"82 338 OFFCURVE",
"78 329 OFFCURVE",
"74 325 CURVE SMOOTH",
"73 324 OFFCURVE",
"67 320 OFFCURVE",
"67 318 CURVE SMOOTH",
"67 318 OFFCURVE",
"67 318 OFFCURVE",
"67 318 CURVE SMOOTH",
"82 302 OFFCURVE",
"126 286 OFFCURVE",
"146 273 CURVE SMOOTH",
"162 264 OFFCURVE",
"176 250 OFFCURVE",
"190 238 CURVE SMOOTH",
"220 214 OFFCURVE",
"246 189 OFFCURVE",
"281 169 CURVE SMOOTH",
"326 142 OFFCURVE",
"404 113 OFFCURVE",
"471 113 CURVE SMOOTH",
"491 113 OFFCURVE",
"510 116 OFFCURVE",
"527 121 CURVE"
);
}
);
width = 1465;
}
);
},
{
color = 6;
glyphname = cent;
lastChange = "2020-04-28 08:58:07 +0000";
layers = (
{
layerId = "4B6FBC9C-F998-43BC-A943-BECCA28E0CA2";
paths = (
{
closed = 1;
nodes = (
"664 -48 LINE",
"664 1502 LINE",
"524 1502 LINE",
"524 -48 LINE"
);
},
{
closed = 1;
nodes = (
"874 160 OFFCURVE",
"1052 342 OFFCURVE",
"1074 590 CURVE",
"876 590 LINE",
"862 434 OFFCURVE",
"756 316 OFFCURVE",
"608 316 CURVE SMOOTH",
"416 316 OFFCURVE",
"298 472 OFFCURVE",
"300 732 CURVE SMOOTH",
"302 990 OFFCURVE",
"416 1148 OFFCURVE",
"608 1148 CURVE SMOOTH",
"756 1148 OFFCURVE",
"862 1044 OFFCURVE",
"876 890 CURVE",
"1076 890 LINE",
"1054 1134 OFFCURVE",
"870 1304 OFFCURVE",
"612 1304 CURVE SMOOTH",
"296 1304 OFFCURVE",
"98 1084 OFFCURVE",
"100 732 CURVE SMOOTH",
"102 380 OFFCURVE",
"296 160 OFFCURVE",
"612 160 CURVE SMOOTH"
);
}
);
width = 1141;
}
);
leftMetricsKey = C;
rightMetricsKey = C;
unicode = 00A2;
},
{
color = 6;
glyphname = currency;
lastChange = "2020-04-06 13:41:56 +0000";
layers = (
{
layerId = "4B6FBC9C-F998-43BC-A943-BECCA28E0CA2";
paths = (
{
closed = 1;
nodes = (
"440 240 LINE",
"512 192 OFFCURVE",
"602 164 OFFCURVE",
"700 164 CURVE SMOOTH",
"798 164 OFFCURVE",
"888 192 OFFCURVE",
"960 240 CURVE",
"1090 110 LINE",
"1232 252 LINE",
"1098 386 LINE",
"1136 454 OFFCURVE",
"1158 534 OFFCURVE",
"1158 622 CURVE SMOOTH",
"1158 720 OFFCURVE",
"1130 810 OFFCURVE",
"1082 882 CURVE",
"1232 1032 LINE",
"1088 1174 LINE",
"934 1020 LINE",
"868 1058 OFFCURVE",
"788 1080 OFFCURVE",
"700 1080 CURVE SMOOTH",
"612 1080 OFFCURVE",
"532 1058 OFFCURVE",
"462 1020 CURVE",
"310 1172 LINE",
"168 1030 LINE",
"316 882 LINE",
"268 810 OFFCURVE",
"242 720 OFFCURVE",
"242 622 CURVE SMOOTH",
"242 534 OFFCURVE",
"264 454 OFFCURVE",
"302 386 CURVE",
"168 252 LINE",
"310 110 LINE"
);
},
{
closed = 1;
nodes = (
"540 320 OFFCURVE",
"440 436 OFFCURVE",
"440 622 CURVE SMOOTH",
"440 808 OFFCURVE",
"540 924 OFFCURVE",
"700 924 CURVE SMOOTH",
"860 924 OFFCURVE",
"960 808 OFFCURVE",
"960 622 CURVE SMOOTH",
"960 436 OFFCURVE",
"860 320 OFFCURVE",
"700 320 CURVE SMOOTH"
);
}
);
width = 1400;
}
);
unicode = 00A4;
},
{
color = 6;
glyphname = dollar;
lastChange = "2020-04-06 13:41:56 +0000";
layers = (
{
layerId = "4B6FBC9C-F998-43BC-A943-BECCA28E0CA2";
paths = (
{
closed = 1;
nodes = (
"712 -146 LINE",
"712 1594 LINE",
"592 1594 LINE",
"592 -146 LINE"
);
},
{
closed = 1;
nodes = (
"980 -32 OFFCURVE",
"1198 132 OFFCURVE",
"1198 388 CURVE SMOOTH",
"1198 678 OFFCURVE",
"916 756 OFFCURVE",
"748 804 CURVE SMOOTH",
"636 836 LINE SMOOTH",
"484 880 OFFCURVE",
"352 932 OFFCURVE",
"352 1082 CURVE SMOOTH",
"352 1220 OFFCURVE",
"466 1296 OFFCURVE",
"648 1296 CURVE SMOOTH",
"848 1296 OFFCURVE",
"966 1200 OFFCURVE",
"968 1012 CURVE",
"1176 1012 LINE",
"1176 1288 OFFCURVE",
"992 1472 OFFCURVE",
"656 1472 CURVE SMOOTH",
"362 1472 OFFCURVE",
"140 1330 OFFCURVE",
"140 1072 CURVE SMOOTH",
"140 778 OFFCURVE",
"424 704 OFFCURVE",
"554 668 CURVE SMOOTH",
"694 630 LINE SMOOTH",
"814 598 OFFCURVE",
"988 544 OFFCURVE",
"988 368 CURVE SMOOTH",
"988 226 OFFCURVE",
"872 148 OFFCURVE",
"664 148 CURVE SMOOTH",
"446 148 OFFCURVE",
"318 236 OFFCURVE",
"316 472 CURVE",
"106 472 LINE",
"108 140 OFFCURVE",
"318 -32 OFFCURVE",
"652 -32 CURVE SMOOTH"
);
}
);
width = 1312;
}
);
leftMetricsKey = S;
rightMetricsKey = S;
unicode = 0024;
},
{
color = 6;
glyphname = euro;
lastChange = "2020-04-06 13:41:56 +0000";
layers = (
{
background = {
paths = (
{
closed = 1;
nodes = (
"1130 -32 OFFCURVE",
"1320 164 OFFCURVE",
"1350 484 CURVE",
"1140 484 LINE",
"1112 266 OFFCURVE",
"1024 148 OFFCURVE",
"800 148 CURVE SMOOTH",
"518 148 OFFCURVE",
"406 354 OFFCURVE",
"406 720 CURVE SMOOTH",
"406 1086 OFFCURVE",
"518 1292 OFFCURVE",
"800 1292 CURVE SMOOTH",
"1018 1292 OFFCURVE",
"1108 1182 OFFCURVE",
"1144 974 CURVE",
"1334 974 LINE",
"1300 1294 OFFCURVE",
"1128 1472 OFFCURVE",
"800 1472 CURVE SMOOTH",
"406 1472 OFFCURVE",
"196 1174 OFFCURVE",
"196 720 CURVE SMOOTH",
"196 268 OFFCURVE",
"406 -32 OFFCURVE",
"800 -32 CURVE SMOOTH"
);
},
{
closed = 1;
nodes = (
"736 510 LINE",
"820 640 LINE",
"90 640 LINE",
"0 510 LINE"
);
},
{
closed = 1;
nodes = (
"894 804 LINE",
"984 934 LINE",
"90 934 LINE",
"0 804 LINE"
);
}
);
};
layerId = "4B6FBC9C-F998-43BC-A943-BECCA28E0CA2";
paths = (
{
closed = 1;
nodes = (
"1130 -32 OFFCURVE",
"1320 164 OFFCURVE",
"1350 484 CURVE",
"1140 484 LINE",
"1112 266 OFFCURVE",
"1024 148 OFFCURVE",
"800 148 CURVE SMOOTH",
"518 148 OFFCURVE",
"406 354 OFFCURVE",
"406 720 CURVE SMOOTH",
"406 1086 OFFCURVE",
"518 1292 OFFCURVE",
"800 1292 CURVE SMOOTH",
"1018 1292 OFFCURVE",
"1108 1182 OFFCURVE",
"1144 974 CURVE",
"1334 974 LINE",
"1300 1294 OFFCURVE",
"1128 1472 OFFCURVE",
"800 1472 CURVE SMOOTH",
"406 1472 OFFCURVE",
"196 1174 OFFCURVE",
"196 720 CURVE SMOOTH",
"196 268 OFFCURVE",
"406 -32 OFFCURVE",
"800 -32 CURVE SMOOTH"
);
},
{
closed = 1;
nodes = (
"736 510 LINE",
"820 640 LINE",
"90 640 LINE",
"0 510 LINE"
);
},
{
closed = 1;
nodes = (
"894 804 LINE",
"984 934 LINE",
"90 934 LINE",
"0 804 LINE"
);
}
);
width = 1415;
}
);
rightMetricsKey = C;
unicode = 20AC;
},
{
color = 6;
glyphname = sterling;
lastChange = "2020-04-06 13:41:56 +0000";
layers = (
{
background = {
components = (
{
name = two;
transform = "{1, 0, 0, 1, 103, 0}";
}
);
};
layerId = "4B6FBC9C-F998-43BC-A943-BECCA28E0CA2";
paths = (
{
closed = 1;
nodes = (
"1149 0 LINE",
"1149 161 LINE",
"598 161 LINE SMOOTH",
"497 161 OFFCURVE",
"429 128 OFFCURVE",
"379 77 CURVE SMOOTH",
"367 65 OFFCURVE",
"351 58 OFFCURVE",
"335 58 CURVE SMOOTH",
"302 58 OFFCURVE",
"275 85 OFFCURVE",
"275 119 CURVE SMOOTH",
"275 135 OFFCURVE",
"282 150 OFFCURVE",
"292 161 CURVE SMOOTH",
"361 237 OFFCURVE",
"493 309 OFFCURVE",
"493 454 CURVE SMOOTH",
"493 602 LINE",
"771 602 LINE",
"771 742 LINE",
"493 742 LINE",
"493 1004 LINE SMOOTH",
"493 1198 OFFCURVE",
"576 1293 OFFCURVE",
"737 1292 CURVE SMOOTH",
"883 1291 OFFCURVE",
"971 1206 OFFCURVE",
"969 1026 CURVE",
"1161 1026 LINE",
"1160 1305 OFFCURVE",
"1002 1472 OFFCURVE",
"737 1472 CURVE SMOOTH",
"456 1472 OFFCURVE",
"299 1316 OFFCURVE",
"299 1004 CURVE SMOOTH",
"299 742 LINE",
"103 742 LINE",
"103 602 LINE",
"299 602 LINE",
"299 452 LINE SMOOTH",
"299 249 OFFCURVE",
"224 165 OFFCURVE",
"91 144 CURVE",
"91 0 LINE"
);
}
);
width = 1264;
},
{
associatedMasterId = "4B6FBC9C-F998-43BC-A943-BECCA28E0CA2";
background = {
components = (
{
name = two;
transform = "{1, 0, 0, 1, 103, 0}";
}
);
};
layerId = "789D2179-DFC9-4CD3-9B6C-8B7FF837D8E7";
name = "Apr 1 20, 17:03";
paths = (
{
closed = 1;
nodes = (
"1149 0 LINE",
"1149 161 LINE",
"378 161 LINE",
"461 223 OFFCURVE",
"493 309 OFFCURVE",
"493 454 CURVE SMOOTH",
"493 602 LINE",
"771 602 LINE",
"771 742 LINE",
"493 742 LINE",
"493 1004 LINE SMOOTH",
"493 1198 OFFCURVE",
"576 1293 OFFCURVE",
"737 1292 CURVE SMOOTH",
"883 1291 OFFCURVE",
"971 1206 OFFCURVE",
"969 1026 CURVE",
"1161 1026 LINE",
"1160 1305 OFFCURVE",
"1002 1472 OFFCURVE",
"737 1472 CURVE SMOOTH",
"456 1472 OFFCURVE",
"299 1316 OFFCURVE",
"299 1004 CURVE SMOOTH",
"299 742 LINE",
"103 742 LINE",
"103 602 LINE",
"299 602 LINE",
"299 452 LINE SMOOTH",
"299 249 OFFCURVE",
"224 165 OFFCURVE",
"91 144 CURVE",
"91 0 LINE"
);
},
{
closed = 1;
nodes = (
"1149 215 LINE",
"1194 161 LINE",
"1149 161 LINE"
);
}
);
visible = 1;
width = 1264;
}
);
unicode = 00A3;
},
{
glyphname = yen;
lastChange = "2020-04-06 13:41:25 +0000";
layers = (
{
background = {
paths = (
{
closed = 1;
nodes = (
"1168 532 LINE",
"1168 672 LINE",
"230 672 LINE",
"230 532 LINE"
);
},
{
closed = 1;
nodes = (
"1168 292 LINE",
"1168 432 LINE",
"230 432 LINE",
"230 292 LINE"
);
},
{
closed = 1;
nodes = (
"800 0 LINE",
"800 528 LINE",
"1300 1440 LINE",
"1090 1440 LINE",
"700 704 LINE",
"310 1440 LINE",
"100 1440 LINE",
"600 528 LINE",
"600 0 LINE"
);
}
);
};
components = (
{
name = Y;
transform = "{1, 0, 0, 1, 110, 0}";
}
);
layerId = "4B6FBC9C-F998-43BC-A943-BECCA28E0CA2";
paths = (
{
closed = 1;
nodes = (
"1168 532 LINE",
"1168 672 LINE",
"821 672 LINE",
"791 602 LINE",
"616 602 LINE",
"576 672 LINE",
"230 672 LINE",
"230 532 LINE"
);
},
{
closed = 1;
nodes = (
"1168 292 LINE",
"1168 432 LINE",
"230 432 LINE",
"230 292 LINE"
);
}
);
width = 1200;
}
);
unicode = 00A5;
},
{
color = 6;
glyphname = plus;
lastChange = "2020-04-06 13:41:56 +0000";
layers = (
{
layerId = "4B6FBC9C-F998-43BC-A943-BECCA28E0CA2";
paths = (
{
closed = 1;
nodes = (
"738 120 LINE",
"738 540 LINE",
"1164 540 LINE",
"1164 720 LINE",
"738 720 LINE",
"738 1144 LINE",
"562 1144 LINE",
"562 720 LINE",
"140 720 LINE",
"140 540 LINE",
"562 540 LINE",
"562 120 LINE"
);
}
);
width = 1304;
}
);
unicode = 002B;
},
{
color = 6;
glyphname = minus;
lastChange = "2020-04-06 13:41:56 +0000";
layers = (
{
layerId = "4B6FBC9C-F998-43BC-A943-BECCA28E0CA2";
paths = (
{
closed = 1;
nodes = (
"1164 540 LINE",
"1164 720 LINE",
"140 720 LINE",
"140 540 LINE"
);
}
);
width = 1304;
}
);
unicode = 2212;
},
{
color = 6;
glyphname = multiply;
lastChange = "2020-04-06 13:41:56 +0000";
layers = (
{
layerId = "4B6FBC9C-F998-43BC-A943-BECCA28E0CA2";
paths = (
{
closed = 1;
nodes = (
"992 332 LINE",
"690 634 LINE",
"990 934 LINE",
"866 1058 LINE",
"566 758 LINE",
"268 1056 LINE",
"140 928 LINE",
"440 630 LINE",
"142 334 LINE",
"266 210 LINE",
"564 506 LINE",
"864 204 LINE"
);
}
);
width = 1132;
}
);
unicode = 00D7;
},
{
glyphname = divide;
lastChange = "2020-04-06 13:41:25 +0000";
layers = (
{
components = (
{
name = minus;
}
);
layerId = "4B6FBC9C-F998-43BC-A943-BECCA28E0CA2";
paths = (
{
closed = 1;
nodes = (
"720 874 OFFCURVE",
"784 938 OFFCURVE",
"784 1016 CURVE SMOOTH",
"784 1094 OFFCURVE",
"720 1158 OFFCURVE",
"642 1158 CURVE SMOOTH",
"564 1158 OFFCURVE",
"500 1094 OFFCURVE",
"500 1016 CURVE SMOOTH",
"500 938 OFFCURVE",
"564 874 OFFCURVE",
"642 874 CURVE SMOOTH"
);
},
{
closed = 1;
nodes = (
"720 100 OFFCURVE",
"784 164 OFFCURVE",
"784 242 CURVE SMOOTH",
"784 320 OFFCURVE",
"720 384 OFFCURVE",
"642 384 CURVE SMOOTH",
"564 384 OFFCURVE",
"500 320 OFFCURVE",
"500 242 CURVE SMOOTH",
"500 164 OFFCURVE",
"564 100 OFFCURVE",
"642 100 CURVE SMOOTH"
);
}
);
width = 1304;
}
);
unicode = 00F7;
},
{
color = 6;
glyphname = greater;
lastChange = "2020-04-06 13:41:56 +0000";
layers = (
{
layerId = "4B6FBC9C-F998-43BC-A943-BECCA28E0CA2";
paths = (
{
closed = 1;
nodes = (
"1142 530 LINE",
"1142 744 LINE",
"140 1162 LINE",
"140 974 LINE",
"948 640 LINE",
"948 634 LINE",
"140 300 LINE",
"140 112 LINE"
);
}
);
width = 1282;
}
);
unicode = 003E;
},
{
glyphname = plusminus;
lastChange = "2020-04-06 13:41:25 +0000";
layers = (
{
components = (
{
name = minus;
transform = "{1, 0, 0, 1, 0, -420}";
}
);
layerId = "4B6FBC9C-F998-43BC-A943-BECCA28E0CA2";
paths = (
{
closed = 1;
nodes = (
"738 480 LINE",
"738 722 LINE",
"1164 722 LINE",
"1164 902 LINE",
"738 902 LINE",
"738 1144 LINE",
"562 1144 LINE",
"562 902 LINE",
"140 902 LINE",
"140 722 LINE",
"562 722 LINE",
"562 480 LINE"
);
}
);
width = 1304;
}
);
unicode = 00B1;
},
{
color = 6;
glyphname = asciitilde;
lastChange = "2020-04-06 13:41:56 +0000";
layers = (
{
layerId = "4B6FBC9C-F998-43BC-A943-BECCA28E0CA2";
paths = (
{
closed = 1;
nodes = (
"271.837 473.319 LINE",
"279.234 564.552 OFFCURVE",
"316.22 658.251 OFFCURVE",
"397.591 658.251 CURVE SMOOTH",
"511.016 658.251 OFFCURVE",
"540.605 473.319 OFFCURVE",
"745.263 473.319 CURVE SMOOTH",
"915.4 473.319 OFFCURVE",
"1028.825 601.539 OFFCURVE",
"1043.62 833.32 CURVE",
"863.619 833.32 LINE",
"846.359 719.895 OFFCURVE",
"811.838 645.922 OFFCURVE",
"737.865 645.922 CURVE SMOOTH",
"617.043 645.922 OFFCURVE",
"594.851 833.32 OFFCURVE",
"390.193 833.32 CURVE SMOOTH",
"217.59 833.32 OFFCURVE",
"104.165 700.169 OFFCURVE",
"91.836 473.319 CURVE"
);
}
);
width = 1140;
}
);
unicode = 007E;
},
{
color = 6;
glyphname = logicalnot;
lastChange = "2020-04-06 13:41:56 +0000";
layers = (
{
layerId = "4B6FBC9C-F998-43BC-A943-BECCA28E0CA2";
paths = (
{
closed = 1;
nodes = (
"1166 120 LINE",
"1164 720 LINE",
"140 720 LINE",
"140 540 LINE",
"990 540 LINE",
"990 120 LINE"
);
}
);
width = 1306;
}
);
unicode = 00AC;
},
{
color = 6;
glyphname = asciicircum;
lastChange = "2020-04-06 13:41:56 +0000";
layers = (
{
layerId = "4B6FBC9C-F998-43BC-A943-BECCA28E0CA2";
paths = (
{
closed = 1;
nodes = (
"372 884 LINE",
"580 1402 LINE",
"548 1402 LINE",
"756 884 LINE",
"988 884 LINE",
"666 1500 LINE",
"462 1500 LINE",
"140 884 LINE"
);
}
);
width = 1128;
}
);
unicode = 005E;
},
{
color = 6;
glyphname = percent;
lastChange = "2020-04-06 13:41:56 +0000";
layers = (
{
layerId = "4B6FBC9C-F998-43BC-A943-BECCA28E0CA2";
paths = (
{
closed = 1;
nodes = (
"748 0 LINE",
"1574 1440 LINE",
"1404 1440 LINE",
"580 0 LINE"
);
},
{
closed = 1;
nodes = (
"794 556 OFFCURVE",
"966 747 OFFCURVE",
"966 1014 CURVE SMOOTH",
"966 1283 OFFCURVE",
"793 1472 OFFCURVE",
"552 1472 CURVE SMOOTH",
"311 1472 OFFCURVE",
"140 1283 OFFCURVE",
"140 1014 CURVE SMOOTH",
"140 747 OFFCURVE",
"310 556 OFFCURVE",
"552 556 CURVE SMOOTH"
);
},
{
closed = 1;
nodes = (
"413 715 OFFCURVE",
"322 828 OFFCURVE",
"322 1014 CURVE SMOOTH",
"322 1200 OFFCURVE",
"411 1315 OFFCURVE",
"552 1314 CURVE SMOOTH",
"695 1313 OFFCURVE",
"783 1200 OFFCURVE",
"784 1014 CURVE SMOOTH",
"785 828 OFFCURVE",
"693 713 OFFCURVE",
"552 714 CURVE SMOOTH"
);
},
{
closed = 1;
nodes = (
"1868 -26 OFFCURVE",
"2040 165 OFFCURVE",
"2040 432 CURVE SMOOTH",
"2040 701 OFFCURVE",
"1867 890 OFFCURVE",
"1626 890 CURVE SMOOTH",
"1385 890 OFFCURVE",
"1214 701 OFFCURVE",
"1214 432 CURVE SMOOTH",
"1214 165 OFFCURVE",
"1384 -26 OFFCURVE",
"1626 -26 CURVE SMOOTH"
);
},
{
closed = 1;
nodes = (
"1487 132 OFFCURVE",
"1396 246 OFFCURVE",
"1396 432 CURVE SMOOTH",
"1396 618 OFFCURVE",
"1485 733 OFFCURVE",
"1626 732 CURVE SMOOTH",
"1769 732 OFFCURVE",
"1857 618 OFFCURVE",
"1858 432 CURVE SMOOTH",
"1859 246 OFFCURVE",
"1767 131 OFFCURVE",
"1626 132 CURVE SMOOTH"
);
}
);
width = 2180;
}
);
unicode = 0025;
},
{
color = 6;
glyphname = rightArrow;
lastChange = "2020-04-06 13:41:56 +0000";
layers = (
{
background = {
components = (
{
name = _part.joint.01;
transform = "{-1, 0, 0, 1, 1456, -90}";
}
);
};
layerId = "4B6FBC9C-F998-43BC-A943-BECCA28E0CA2";
paths = (
{
closed = 1;
nodes = (
"965 0 LINE",
"1587 655 LINE",
"965 1309 LINE",
"702 1309 LINE",
"1043 968 LINE SMOOTH",
"1163 848 OFFCURVE",
"1326 818 OFFCURVE",
"1386 746 CURVE SMOOTH",
"1396 734 OFFCURVE",
"1408 719 OFFCURVE",
"1408 701 CURVE SMOOTH",
"1408 677 OFFCURVE",
"1389 658 OFFCURVE",
"1364 658 CURVE SMOOTH",
"1345 658 OFFCURVE",
"1325 672 OFFCURVE",
"1306 685 CURVE SMOOTH",
"1272 708 OFFCURVE",
"1161 734 OFFCURVE",
"1050 734 CURVE SMOOTH",
"57 734 LINE",
"57 575 LINE",
"1050 575 LINE SMOOTH",
"1161 575 OFFCURVE",
"1222 600 OFFCURVE",
"1259 629 CURVE SMOOTH",
"1272 639 OFFCURVE",
"1285 651 OFFCURVE",
"1304 651 CURVE SMOOTH",
"1329 651 OFFCURVE",
"1348 632 OFFCURVE",
"1348 608 CURVE SMOOTH",
"1348 590 OFFCURVE",
"1336 575 OFFCURVE",
"1326 563 CURVE SMOOTH",
"1266 491 OFFCURVE",
"1163 461 OFFCURVE",
"1043 341 CURVE SMOOTH",
"702 0 LINE"
);
}
);
width = 1622;
}
);
unicode = 2192;
},
{
color = 6;
glyphname = apple;
lastChange = "2020-04-06 13:41:56 +0000";
layers = (
{
layerId = "4B6FBC9C-F998-43BC-A943-BECCA28E0CA2";
paths = (
{
closed = 1;
nodes = (
"2720 -420 OFFCURVE",
"3160 20 OFFCURVE",
"3160 604 CURVE SMOOTH",
"3160 1188 OFFCURVE",
"2720 1628 OFFCURVE",
"2136 1628 CURVE SMOOTH",
"1552 1628 OFFCURVE",
"1112 1188 OFFCURVE",
"1112 604 CURVE SMOOTH",
"1112 20 OFFCURVE",
"1552 -420 OFFCURVE",
"2136 -420 CURVE SMOOTH"
);
},
{
closed = 1;
nodes = (
"924 -249 OFFCURVE",
"1092 118 OFFCURVE",
"1092 604 CURVE SMOOTH",
"1092 1090 OFFCURVE",
"924 1457 OFFCURVE",
"702 1457 CURVE SMOOTH",
"480 1457 OFFCURVE",
"312 1090 OFFCURVE",
"312 604 CURVE SMOOTH",
"312 118 OFFCURVE",
"480 -249 OFFCURVE",
"702 -249 CURVE SMOOTH"
);
},
{
closed = 1;
nodes = (
"233 -78 OFFCURVE",
"293 204 OFFCURVE",
"292 604 CURVE SMOOTH",
"291 1005 OFFCURVE",
"231 1287 OFFCURVE",
"146 1287 CURVE SMOOTH",
"60 1287 OFFCURVE",
"0 1005 OFFCURVE",
"0 604 CURVE SMOOTH",
"0 204 OFFCURVE",
"60 -78 OFFCURVE",
"146 -78 CURVE SMOOTH"
);
}
);
width = 3160;
}
);
unicode = F8FF;
},
{
color = 6;
glyphname = at;
lastChange = "2020-04-06 13:41:56 +0000";
layers = (
{
layerId = "4B6FBC9C-F998-43BC-A943-BECCA28E0CA2";
paths = (
{
closed = 1;
nodes = (
"968 -32 OFFCURVE",
"1132 2 OFFCURVE",
"1270 68 CURVE",
"1212 208 LINE",
"1108 154 OFFCURVE",
"964 120 OFFCURVE",
"830 120 CURVE SMOOTH",
"466 120 OFFCURVE",
"262 368 OFFCURVE",
"262 696 CURVE SMOOTH",
"262 1058 OFFCURVE",
"510 1330 OFFCURVE",
"908 1330 CURVE SMOOTH",
"1230 1330 OFFCURVE",
"1462 1152 OFFCURVE",
"1462 806 CURVE SMOOTH",
"1462 604 OFFCURVE",
"1384 454 OFFCURVE",
"1260 454 CURVE SMOOTH",
"1160 454 OFFCURVE",
"1108 552 OFFCURVE",
"1142 672 CURVE SMOOTH",
"1262 1096 LINE",
"1118 1096 LINE",
"1082 996 LINE",
"1042 1094 OFFCURVE",
"958 1150 OFFCURVE",
"838 1150 CURVE SMOOTH",
"586 1150 OFFCURVE",
"430 902 OFFCURVE",
"430 640 CURVE SMOOTH",
"430 422 OFFCURVE",
"542 312 OFFCURVE",
"726 312 CURVE SMOOTH",
"840 312 OFFCURVE",
"936 354 OFFCURVE",
"1018 470 CURVE",
"1002 476 LINE",
"1040 350 OFFCURVE",
"1170 308 OFFCURVE",
"1266 308 CURVE SMOOTH",
"1484 308 OFFCURVE",
"1620 530 OFFCURVE",
"1620 818 CURVE SMOOTH",
"1620 1268 OFFCURVE",
"1290 1472 OFFCURVE",
"914 1472 CURVE SMOOTH",
"436 1472 OFFCURVE",
"100 1142 OFFCURVE",
"100 702 CURVE SMOOTH",
"100 314 OFFCURVE",
"360 -32 OFFCURVE",
"822 -32 CURVE SMOOTH"
);
},
{
closed = 1;
nodes = (
"640 462 OFFCURVE",
"594 528 OFFCURVE",
"594 638 CURVE SMOOTH",
"594 804 OFFCURVE",
"696 998 OFFCURVE",
"858 998 CURVE SMOOTH",
"958 998 OFFCURVE",
"1012 924 OFFCURVE",
"1012 798 CURVE SMOOTH",
"1012 608 OFFCURVE",
"888 462 OFFCURVE",
"740 462 CURVE SMOOTH"
);
}
);
width = 1720;
}
);
leftMetricsKey = O;
rightMetricsKey = O;
unicode = 0040;
},
{
color = 6;
glyphname = ampersand;
lastChange = "2020-04-06 13:41:56 +0000";
layers = (
{
layerId = "4B6FBC9C-F998-43BC-A943-BECCA28E0CA2";
paths = (
{
closed = 1;
nodes = (
"1102 -32 OFFCURVE",
"1322 264 OFFCURVE",
"1322 652 CURVE SMOOTH",
"1322 704 OFFCURVE",
"1322 744 OFFCURVE",
"1322 802 CURVE",
"1134 802 LINE",
"1134 742 OFFCURVE",
"1134 704 OFFCURVE",
"1134 650 CURVE SMOOTH",
"1134 324 OFFCURVE",
"954 148 OFFCURVE",
"652 148 CURVE SMOOTH",
"442 148 OFFCURVE",
"312 232 OFFCURVE",
"312 396 CURVE SMOOTH",
"312 586 OFFCURVE",
"484 642 OFFCURVE",
"558 684 CURVE SMOOTH",
"702 766 LINE SMOOTH",
"796 820 OFFCURVE",
"994 924 OFFCURVE",
"996 1150 CURVE SMOOTH",
"998 1340 OFFCURVE",
"856 1472 OFFCURVE",
"630 1472 CURVE SMOOTH",
"414 1472 OFFCURVE",
"262 1350 OFFCURVE",
"262 1160 CURVE SMOOTH",
"262 994 OFFCURVE",
"367 875 OFFCURVE",
"436 806 CURVE SMOOTH",
"1238 0 LINE",
"1486 0 LINE",
"602 872 LINE SMOOTH",
"509 963 OFFCURVE",
"444 1038 OFFCURVE",
"444 1150 CURVE SMOOTH",
"444 1280 OFFCURVE",
"548 1308 OFFCURVE",
"628 1308 CURVE SMOOTH",
"740 1308 OFFCURVE",
"814 1250 OFFCURVE",
"814 1156 CURVE SMOOTH",
"814 1068 OFFCURVE",
"748 954 OFFCURVE",
"582 878 CURVE SMOOTH",
"468 826 LINE SMOOTH",
"362 778 OFFCURVE",
"110 650 OFFCURVE",
"110 384 CURVE SMOOTH",
"110 154 OFFCURVE",
"296 -32 OFFCURVE",
"652 -32 CURVE SMOOTH"
);
}
);
width = 1500;
}
);
unicode = 0026;
},
{
color = 6;
glyphname = paragraph;
lastChange = "2020-04-06 15:22:47 +0000";
layers = (
{
layerId = "4B6FBC9C-F998-43BC-A943-BECCA28E0CA2";
paths = (
{
closed = 1;
nodes = (
"2720 -420 OFFCURVE",
"3160 20 OFFCURVE",
"3160 604 CURVE SMOOTH",
"3160 1188 OFFCURVE",
"2720 1628 OFFCURVE",
"2136 1628 CURVE SMOOTH",
"1552 1628 OFFCURVE",
"1112 1188 OFFCURVE",
"1112 604 CURVE SMOOTH",
"1112 20 OFFCURVE",
"1552 -420 OFFCURVE",
"2136 -420 CURVE SMOOTH"
);
},
{
closed = 1;
nodes = (
"924 -249 OFFCURVE",
"1092 118 OFFCURVE",
"1092 604 CURVE SMOOTH",
"1092 1090 OFFCURVE",
"924 1457 OFFCURVE",
"702 1457 CURVE SMOOTH",
"480 1457 OFFCURVE",
"312 1090 OFFCURVE",
"312 604 CURVE SMOOTH",
"312 118 OFFCURVE",
"480 -249 OFFCURVE",
"702 -249 CURVE SMOOTH"
);
},
{
closed = 1;
nodes = (
"233 -78 OFFCURVE",
"293 204 OFFCURVE",
"292 604 CURVE SMOOTH",
"291 1005 OFFCURVE",
"231 1287 OFFCURVE",
"146 1287 CURVE SMOOTH",
"60 1287 OFFCURVE",
"0 1005 OFFCURVE",
"0 604 CURVE SMOOTH",
"0 204 OFFCURVE",
"60 -78 OFFCURVE",
"146 -78 CURVE SMOOTH"
);
}
);
width = 3160;
}
);
unicode = 00B6;
},
{
color = 6;
glyphname = section;
lastChange = "2020-04-06 13:41:56 +0000";
layers = (
{
layerId = "4B6FBC9C-F998-43BC-A943-BECCA28E0CA2";
paths = (
{
closed = 1;
nodes = (
"801 -220 OFFCURVE",
"950 -100 OFFCURVE",
"950 98 CURVE SMOOTH",
"950 194 OFFCURVE",
"917 268 OFFCURVE",
"852 320 CURVE",
"852 324 LINE",
"969 396 OFFCURVE",
"1021 494 OFFCURVE",
"1022 614 CURVE SMOOTH",
"1024 820 OFFCURVE",
"907 890 OFFCURVE",
"640 1008 CURVE SMOOTH",
"430 1101 OFFCURVE",
"377 1120 OFFCURVE",
"378 1228 CURVE SMOOTH",
"379 1326 OFFCURVE",
"449 1384 OFFCURVE",
"560 1384 CURVE SMOOTH",
"689 1384 OFFCURVE",
"755 1316 OFFCURVE",
"760 1190 CURVE",
"938 1190 LINE",
"927 1414 OFFCURVE",
"795 1532 OFFCURVE",
"560 1532 CURVE SMOOTH",
"345 1532 OFFCURVE",
"194 1410 OFFCURVE",
"192 1228 CURVE SMOOTH",
"191 1136 OFFCURVE",
"225 1072 OFFCURVE",
"288 1022 CURVE",
"288 1018 LINE",
"177 950 OFFCURVE",
"121 850 OFFCURVE",
"120 732 CURVE SMOOTH",
"118 534 OFFCURVE",
"239 460 OFFCURVE",
"472 352 CURVE SMOOTH",
"696 248 OFFCURVE",
"765 214 OFFCURVE",
"766 98 CURVE SMOOTH",
"767 -8 OFFCURVE",
"689 -72 OFFCURVE",
"566 -72 CURVE SMOOTH",
"415 -72 OFFCURVE",
"347 2 OFFCURVE",
"344 136 CURVE",
"164 136 LINE",
"167 -104 OFFCURVE",
"317 -220 OFFCURVE",
"568 -220 CURVE SMOOTH"
);
},
{
closed = 1;
nodes = (
"689 430 OFFCURVE",
"619 466 OFFCURVE",
"556 494 CURVE SMOOTH",
"349 586 OFFCURVE",
"291 650 OFFCURVE",
"292 754 CURVE SMOOTH",
"293 826 OFFCURVE",
"327 888 OFFCURVE",
"402 940 CURVE",
"463 908 OFFCURVE",
"535 874 OFFCURVE",
"598 848 CURVE SMOOTH",
"803 763 OFFCURVE",
"851 698 OFFCURVE",
"852 594 CURVE SMOOTH",
"853 512 OFFCURVE",
"807 446 OFFCURVE",
"740 402 CURVE"
);
}
);
width = 1142;
}
);
unicode = 00A7;
},
{
color = 6;
glyphname = copyright;
lastChange = "2020-04-06 13:41:56 +0000";
layers = (
{
anchors = (
{
name = bottom;
position = "{887, 288}";
},
{
name = top;
position = "{841, 1152}";
}
);
layerId = "4B6FBC9C-F998-43BC-A943-BECCA28E0CA2";
paths = (
{
closed = 1;
nodes = (
"1269 -33 OFFCURVE",
"1604 273 OFFCURVE",
"1604 718 CURVE SMOOTH",
"1604 1166 OFFCURVE",
"1269 1472 OFFCURVE",
"854 1472 CURVE SMOOTH",
"436 1472 OFFCURVE",
"101 1166 OFFCURVE",
"100 718 CURVE SMOOTH",
"99 273 OFFCURVE",
"436 -31 OFFCURVE",
"854 -32 CURVE SMOOTH"
);
},
{
closed = 1;
nodes = (
"514 105 OFFCURVE",
"249 351 OFFCURVE",
"250 718 CURVE SMOOTH",
"251 1090 OFFCURVE",
"514 1338 OFFCURVE",
"854 1338 CURVE SMOOTH",
"1199 1338 OFFCURVE",
"1456 1090 OFFCURVE",
"1456 718 CURVE SMOOTH",
"1456 351 OFFCURVE",
"1199 103 OFFCURVE",
"854 104 CURVE SMOOTH"
);
},
{
closed = 1;
nodes = (
"1071 262 OFFCURVE",
"1214 408 OFFCURVE",
"1231 606 CURVE",
"1073 606 LINE",
"1062 482 OFFCURVE",
"977 387 OFFCURVE",
"858 387 CURVE SMOOTH",
"705 387 OFFCURVE",
"610 512 OFFCURVE",
"612 720 CURVE SMOOTH",
"612 926 OFFCURVE",
"705 1053 OFFCURVE",
"858 1053 CURVE SMOOTH",
"977 1053 OFFCURVE",
"1062 970 OFFCURVE",
"1073 846 CURVE",
"1233 846 LINE",
"1215 1042 OFFCURVE",
"1068 1178 OFFCURVE",
"862 1178 CURVE SMOOTH",
"609 1178 OFFCURVE",
"450 1002 OFFCURVE",
"452 720 CURVE SMOOTH",
"452 438 OFFCURVE",
"609 262 OFFCURVE",
"862 262 CURVE SMOOTH"
);
}
);
width = 1704;
}
);
leftMetricsKey = O;
rightMetricsKey = O;
unicode = 00A9;
},
{
color = 6;
glyphname = registered;
lastChange = "2020-04-28 08:16:47 +0000";
layers = (
{
layerId = "4B6FBC9C-F998-43BC-A943-BECCA28E0CA2";
paths = (
{
closed = 1;
nodes = (
"1269 -33 OFFCURVE",
"1604 273 OFFCURVE",
"1604 718 CURVE SMOOTH",
"1604 1166 OFFCURVE",
"1269 1472 OFFCURVE",
"854 1472 CURVE SMOOTH",
"436 1472 OFFCURVE",
"101 1166 OFFCURVE",
"100 718 CURVE SMOOTH",
"99 273 OFFCURVE",
"436 -31 OFFCURVE",
"854 -32 CURVE SMOOTH"
);
},
{
closed = 1;
nodes = (
"514 105 OFFCURVE",
"249 351 OFFCURVE",
"250 718 CURVE SMOOTH",
"251 1090 OFFCURVE",
"514 1338 OFFCURVE",
"854 1338 CURVE SMOOTH",
"1199 1338 OFFCURVE",
"1456 1090 OFFCURVE",
"1456 718 CURVE SMOOTH",
"1456 351 OFFCURVE",
"1199 103 OFFCURVE",
"854 104 CURVE SMOOTH"
);
},
{
closed = 1;
nodes = (
"690 294 LINE",
"690 1056 LINE",
"848 1056 LINE SMOOTH",
"965 1056 OFFCURVE",
"1026 1000 OFFCURVE",
"1028 898 CURVE SMOOTH",
"1026 796 OFFCURVE",
"963 740 OFFCURVE",
"832 740 CURVE SMOOTH",
"670 740 LINE",
"666 642 LINE",
"800 642 LINE SMOOTH",
"926 642 OFFCURVE",
"971 577 OFFCURVE",
"994 500 CURVE SMOOTH",
"1024 400 LINE SMOOTH",
"1035 365 OFFCURVE",
"1046 331 OFFCURVE",
"1060 294 CURVE",
"1203 294 LINE",
"1203 304 LINE",
"1190 338 OFFCURVE",
"1175 379 OFFCURVE",
"1161 422 CURVE SMOOTH",
"1127 526 LINE SMOOTH",
"1088 644 OFFCURVE",
"976 708 OFFCURVE",
"854 708 CURVE SMOOTH",
"792 708 LINE",
"808 674 LINE",
"844 674 LINE SMOOTH",
"1026 673 OFFCURVE",
"1167 728 OFFCURVE",
"1169 902 CURVE SMOOTH",
"1167 1062 OFFCURVE",
"1042 1158 OFFCURVE",
"872 1158 CURVE SMOOTH",
"555 1158 LINE",
"555 294 LINE"
);
}
);
width = 1704;
}
);
leftMetricsKey = O;
rightMetricsKey = O;
unicode = 00AE;
},
{
color = 6;
glyphname = degree;
lastChange = "2020-04-06 13:41:56 +0000";
layers = (
{
layerId = "4B6FBC9C-F998-43BC-A943-BECCA28E0CA2";
paths = (
{
closed = 1;
nodes = (
"533 911 OFFCURVE",
"659 1037 OFFCURVE",
"658 1192 CURVE SMOOTH",
"659 1346 OFFCURVE",
"533 1472 OFFCURVE",
"378 1472 CURVE SMOOTH",
"225 1472 OFFCURVE",
"99 1346 OFFCURVE",
"100 1192 CURVE SMOOTH",
"99 1037 OFFCURVE",
"225 911 OFFCURVE",
"378 912 CURVE SMOOTH"
);
},
{
closed = 1;
nodes = (
"291 1031 OFFCURVE",
"218 1103 OFFCURVE",
"218 1192 CURVE SMOOTH",
"218 1280 OFFCURVE",
"291 1352 OFFCURVE",
"378 1354 CURVE SMOOTH",
"467 1352 OFFCURVE",
"540 1280 OFFCURVE",
"540 1192 CURVE SMOOTH",
"540 1103 OFFCURVE",
"467 1031 OFFCURVE",
"378 1030 CURVE SMOOTH"
);
}
);
width = 758;
}
);
unicode = 00B0;
},
{
color = 6;
glyphname = bar;
lastChange = "2020-04-06 13:41:56 +0000";
layers = (
{
layerId = "4B6FBC9C-F998-43BC-A943-BECCA28E0CA2";
paths = (
{
closed = 1;
nodes = (
"390 -412 LINE",
"390 1636 LINE",
"200 1636 LINE",
"200 -412 LINE"
);
}
);
width = 590;
}
);
unicode = 007C;
},
{
color = 6;
glyphname = brokenbar;
lastChange = "2020-04-06 13:41:56 +0000";
layers = (
{
layerId = "4B6FBC9C-F998-43BC-A943-BECCA28E0CA2";
paths = (
{
closed = 1;
nodes = (
"390 -412 LINE",
"390 398 LINE",
"200 398 LINE",
"200 -412 LINE"
);
},
{
closed = 1;
nodes = (
"390 836 LINE",
"390 1636 LINE",
"200 1636 LINE",
"200 836 LINE"
);
}
);
width = 590;
}
);
unicode = 00A6;
},
{
color = 6;
glyphname = dieresiscomb;
lastChange = "2020-04-06 13:42:00 +0000";
layers = (
{
anchors = (
{
name = _top;
position = "{310, 1080}";
},
{
name = top;
position = "{310, 1500}";
}
);
layerId = "4B6FBC9C-F998-43BC-A943-BECCA28E0CA2";
paths = (
{
closed = 1;
nodes = (
"618 1286 LINE",
"618 1500 LINE",
"412 1500 LINE",
"412 1286 LINE"
);
},
{
closed = 1;
nodes = (
"206 1286 LINE",
"206 1500 LINE",
"0 1500 LINE",
"0 1286 LINE"
);
}
);
width = 618;
}
);
unicode = 0308;
},
{
color = 6;
glyphname = gravecomb;
lastChange = "2020-04-06 13:42:00 +0000";
layers = (
{
anchors = (
{
name = _top;
position = "{332, 1080}";
},
{
name = top;
position = "{246, 1522}";
}
);
layerId = "4B6FBC9C-F998-43BC-A943-BECCA28E0CA2";
paths = (
{
closed = 1;
nodes = (
"432 1208 LINE",
"250 1532 LINE",
"0 1532 LINE",
"252 1208 LINE"
);
}
);
width = 432;
}
);
unicode = 0300;
},
{
color = 6;
glyphname = circumflexcomb;
lastChange = "2020-04-06 13:42:00 +0000";
layers = (
{
anchors = (
{
name = _top;
position = "{363, 1080}";
},
{
name = top;
position = "{363, 1532}";
}
);
layerId = "4B6FBC9C-F998-43BC-A943-BECCA28E0CA2";
paths = (
{
closed = 1;
nodes = (
"196 1208 LINE",
"392 1456 LINE",
"336 1456 LINE",
"532 1208 LINE",
"728 1208 LINE",
"474 1532 LINE",
"254 1532 LINE",
"0 1208 LINE"
);
}
);
width = 728;
}
);
unicode = 0302;
},
{
color = 6;
glyphname = ringcomb;
lastChange = "2020-04-06 13:42:00 +0000";
layers = (
{
anchors = (
{
name = _top;
position = "{244, 1080}";
},
{
name = top;
position = "{244, 1680}";
}
);
layerId = "4B6FBC9C-F998-43BC-A943-BECCA28E0CA2";
paths = (
{
closed = 1;
nodes = (
"388 1195 OFFCURVE",
"490 1296 OFFCURVE",
"488 1436 CURVE SMOOTH",
"486 1577 OFFCURVE",
"384 1680 OFFCURVE",
"244 1680 CURVE SMOOTH",
"104 1680 OFFCURVE",
"2 1577 OFFCURVE",
"0 1436 CURVE SMOOTH",
"-2 1302 OFFCURVE",
"100 1201 OFFCURVE",
"244 1198 CURVE SMOOTH"
);
},
{
closed = 1;
nodes = (
"173 1309 OFFCURVE",
"129 1359 OFFCURVE",
"130 1436 CURVE SMOOTH",
"131 1514 OFFCURVE",
"173 1562 OFFCURVE",
"244 1564 CURVE SMOOTH",
"317 1566 OFFCURVE",
"360 1516 OFFCURVE",
"358 1436 CURVE SMOOTH",
"356 1359 OFFCURVE",
"313 1311 OFFCURVE",
"244 1310 CURVE SMOOTH"
);
}
);
width = 488;
}
);
unicode = 030A;
},
{
color = 6;
glyphname = tildecomb;
lastChange = "2020-04-06 13:42:00 +0000";
layers = (
{
anchors = (
{
name = _top;
position = "{386, 1080}";
},
{
name = top;
position = "{386, 1500}";
}
);
layerId = "4B6FBC9C-F998-43BC-A943-BECCA28E0CA2";
paths = (
{
closed = 1;
nodes = (
"146 1208 LINE",
"152 1282 OFFCURVE",
"182 1358 OFFCURVE",
"248 1358 CURVE SMOOTH",
"340 1358 OFFCURVE",
"364 1208 OFFCURVE",
"530 1208 CURVE SMOOTH",
"668 1208 OFFCURVE",
"760 1312 OFFCURVE",
"772 1500 CURVE",
"626 1500 LINE",
"612 1408 OFFCURVE",
"584 1348 OFFCURVE",
"524 1348 CURVE SMOOTH",
"426 1348 OFFCURVE",
"408 1500 OFFCURVE",
"242 1500 CURVE SMOOTH",
"102 1500 OFFCURVE",
"10 1392 OFFCURVE",
"0 1208 CURVE"
);
}
);
width = 772;
}
);
unicode = 0303;
},
{
color = 6;
glyphname = cedillacomb;
lastChange = "2020-04-06 13:42:00 +0000";
layers = (
{
anchors = (
{
name = _bottom;
position = "{216, 0}";
},
{
name = bottom;
position = "{216, -440}";
}
);
layerId = "4B6FBC9C-F998-43BC-A943-BECCA28E0CA2";
paths = (
{
closed = 1;
nodes = (
"299 0 LINE",
"207 0 LINE",
"101 -160 LINE",
"137 -200 LINE",
"155 -192 OFFCURVE",
"175 -188 OFFCURVE",
"199 -188 CURVE SMOOTH",
"265 -188 OFFCURVE",
"305 -222 OFFCURVE",
"305 -272 CURVE SMOOTH",
"305 -324 OFFCURVE",
"265 -354 OFFCURVE",
"193 -354 CURVE SMOOTH",
"143 -354 OFFCURVE",
"89 -342 OFFCURVE",
"36 -312 CURVE",
"0 -386 LINE",
"61 -418 OFFCURVE",
"133 -440 OFFCURVE",
"211 -440 CURVE SMOOTH",
"359 -440 OFFCURVE",
"431 -360 OFFCURVE",
"431 -266 CURVE SMOOTH",
"431 -174 OFFCURVE",
"357 -118 OFFCURVE",
"271 -118 CURVE SMOOTH",
"253 -118 OFFCURVE",
"231 -122 OFFCURVE",
"219 -124 CURVE"
);
}
);
width = 431;
}
);
unicode = 0327;
},
{
color = 6;
glyphname = macron;
lastChange = "2020-04-06 13:42:00 +0000";
layers = (
{
layerId = "4B6FBC9C-F998-43BC-A943-BECCA28E0CA2";
paths = (
{
closed = 1;
nodes = (
"0 1259 LINE",
"564 1259 LINE",
"564 1389 LINE",
"0 1389 LINE"
);
}
);
width = 564;
}
);
unicode = 00AF;
},
{
export = 0;
glyphname = _part.joint.01;
lastChange = "2020-03-18 18:07:11 +0000";
layers = (
{
layerId = "4B6FBC9C-F998-43BC-A943-BECCA28E0CA2";
paths = (
{
closed = 1;
nodes = (
"303 664 OFFCURVE",
"241 688 OFFCURVE",
"204 718 CURVE SMOOTH",
"192 728 OFFCURVE",
"179 740 OFFCURVE",
"160 740 CURVE SMOOTH",
"135 740 OFFCURVE",
"116 722 OFFCURVE",
"116 697 CURVE SMOOTH",
"116 677 OFFCURVE",
"128 664 OFFCURVE",
"138 652 CURVE SMOOTH",
"173 610 OFFCURVE",
"190 543 OFFCURVE",
"190 442 CURVE",
"0 442 LINE",
"0 1046 LINE",
"190 1046 LINE",
"190 945 OFFCURVE",
"173 878 OFFCURVE",
"138 836 CURVE SMOOTH",
"128 824 OFFCURVE",
"116 811 OFFCURVE",
"116 791 CURVE SMOOTH",
"116 766 OFFCURVE",
"135 748 OFFCURVE",
"160 748 CURVE SMOOTH",
"179 748 OFFCURVE",
"192 760 OFFCURVE",
"204 770 CURVE SMOOTH",
"241 800 OFFCURVE",
"303 824 OFFCURVE",
"414 824 CURVE",
"414 664 LINE"
);
}
);
width = 414;
}
);
},
{
export = 0;
glyphname = _part.joint.02;
lastChange = "2020-03-18 18:09:14 +0000";
layers = (
{
layerId = "4B6FBC9C-F998-43BC-A943-BECCA28E0CA2";
paths = (
{
closed = 1;
nodes = (
"410 0 LINE",
"410 160 LINE",
"372 160 OFFCURVE",
"290 160 OFFCURVE",
"199 82 CURVE SMOOTH",
"188 73 OFFCURVE",
"173 58 OFFCURVE",
"148 58 CURVE SMOOTH",
"114 58 OFFCURVE",
"87 85 OFFCURVE",
"87 119 CURVE SMOOTH",
"87 142 OFFCURVE",
"98 154 OFFCURVE",
"119 174 CURVE SMOOTH",
"170 224 OFFCURVE",
"190 295 OFFCURVE",
"190 380 CURVE",
"0 380 LINE",
"0 0 LINE"
);
}
);
width = 410;
},
{
associatedMasterId = "4B6FBC9C-F998-43BC-A943-BECCA28E0CA2";
layerId = "F47F1289-EBDE-452B-B20A-F5742C5A864F";
name = "{100}";
paths = (
{
closed = 1;
nodes = (
"410 0 LINE",
"410 160 LINE",
"346 160 OFFCURVE",
"272 151 OFFCURVE",
"201 91 CURVE SMOOTH",
"190 82 OFFCURVE",
"175 68 OFFCURVE",
"153 68 CURVE SMOOTH",
"122 68 OFFCURVE",
"98 91 OFFCURVE",
"98 122 CURVE SMOOTH",
"98 144 OFFCURVE",
"109 156 OFFCURVE",
"126 173 CURVE SMOOTH",
"171 220 OFFCURVE",
"190 290 OFFCURVE",
"190 380 CURVE",
"0 380 LINE",
"0 0 LINE"
);
}
);
width = 410;
}
);
},
{
export = 0;
glyphname = _areas;
lastChange = "2020-04-01 07:45:06 +0000";
layers = (
{
layerId = "4B6FBC9C-F998-43BC-A943-BECCA28E0CA2";
paths = (
{
closed = 1;
nodes = (
"96 0 LINE",
"96 0 LINE",
"96 5 LINE",
"96 10 LINE",
"96 15 LINE",
"96 20 LINE",
"96 25 LINE",
"96 30 LINE",
"96 35 LINE",
"96 40 LINE",
"96 45 LINE",
"96 50 LINE",
"96 55 LINE",
"96 60 LINE",
"96 65 LINE",
"96 70 LINE",
"96 75 LINE",
"96 80 LINE",
"96 85 LINE",
"96 90 LINE",
"96 95 LINE",
"96 100 LINE",
"96 105 LINE",
"96 110 LINE",
"96 115 LINE",
"96 120 LINE",
"96 125 LINE",
"96 130 LINE",
"96 135 LINE",
"96 140 LINE",
"101 145 LINE",
"106 150 LINE",
"111 155 LINE",
"116 160 LINE",
"121 165 LINE",
"126 170 LINE",
"131 175 LINE",
"136 180 LINE",
"141 185 LINE",
"146 190 LINE",
"151 195 LINE",
"156 200 LINE",
"161 205 LINE",
"166 210 LINE",
"171 215 LINE",
"176 220 LINE",
"181 225 LINE",
"186 230 LINE",
"191 235 LINE",
"196 240 LINE",
"201 245 LINE",
"206 250 LINE",
"211 255 LINE",
"216 260 LINE",
"221 265 LINE",
"226 270 LINE",
"231 275 LINE",
"236 280 LINE",
"241 285 LINE",
"246 290 LINE",
"251 295 LINE",
"256 300 LINE",
"261 305 LINE",
"266 310 LINE",
"271 315 LINE",
"276 320 LINE",
"281 325 LINE",
"286 330 LINE",
"291 335 LINE",
"294.366 340 LINE",
"295.315 345 LINE",
"296.203 350 LINE",
"297.032 355 LINE",
"297.805 360 LINE",
"298.524 365 LINE",
"299.19 370 LINE",
"299.806 375 LINE",
"300.373 380 LINE",
"300.8 385 LINE",
"300.8 390 LINE",
"300.8 395 LINE",
"300.8 400 LINE",
"300.8 405 LINE",
"300.8 410 LINE",
"298 415 LINE",
"293 420 LINE",
"288 425 LINE",
"283 430 LINE",
"278 435 LINE",
"273 440 LINE",
"268 445 LINE",
"263 450 LINE",
"258 455 LINE",
"253 460 LINE",
"248 465 LINE",
"243 470 LINE",
"238 475 LINE",
"233 480 LINE",
"228 485 LINE",
"223 490 LINE",
"218 495 LINE",
"213 500 LINE",
"208 505 LINE",
"203 510 LINE",
"198 515 LINE",
"193 520 LINE",
"188 525 LINE",
"183 530 LINE",
"178 535 LINE",
"173 540 LINE",
"168 545 LINE",
"163 550 LINE",
"158 555 LINE",
"153 560 LINE",
"148 565 LINE",
"143 570 LINE",
"138 575 LINE",
"133 580 LINE",
"128 585 LINE",
"123 590 LINE",
"118 595 LINE",
"113 600 LINE",
"108 605 LINE",
"108 610 LINE",
"108 615 LINE",
"108 620 LINE",
"108 625 LINE",
"108 630 LINE",
"108 635 LINE",
"108 640 LINE",
"108 645 LINE",
"108 650 LINE",
"108 655 LINE",
"108 660 LINE",
"108 665 LINE",
"108 670 LINE",
"108 675 LINE",
"108 680 LINE",
"108 685 LINE",
"108 690 LINE",
"108 695 LINE",
"108 700 LINE",
"108 705 LINE",
"108 710 LINE",
"108 715 LINE",
"108 720 LINE",
"108 725 LINE",
"108 730 LINE",
"108 735 LINE",
"108 740 LINE",
"113 745 LINE",
"118 750 LINE",
"123 755 LINE",
"128 760 LINE",
"133 765 LINE",
"138 770 LINE",
"143 775 LINE",
"148 780 LINE",
"153 785 LINE",
"158 790 LINE",
"163 795 LINE",
"168 800 LINE",
"173 805 LINE",
"178 810 LINE",
"183 815 LINE",
"188 820 LINE",
"193 825 LINE",
"198 830 LINE",
"203 835 LINE",
"208 840 LINE",
"213 845 LINE",
"218 850 LINE",
"223 855 LINE",
"228 860 LINE",
"233 865 LINE",
"238 870 LINE",
"243 875 LINE",
"248 880 LINE",
"253 885 LINE",
"258 890 LINE",
"263 895 LINE",
"268 900 LINE",
"273 905 LINE",
"278 910 LINE",
"283 915 LINE",
"288 920 LINE",
"293 925 LINE",
"298 930 LINE",
"300.8 935 LINE",
"300.8 940 LINE",
"300.8 945 LINE",
"300.8 950 LINE",
"300.8 955 LINE",
"300.8 960 LINE",
"300.8 965 LINE",
"300.8 970 LINE",
"300.8 975 LINE",
"300.8 980 LINE",
"300.8 985 LINE",
"300.8 990 LINE",
"300.8 995 LINE",
"300.8 1000 LINE",
"300.8 1005 LINE",
"300.8 1010 LINE",
"300.8 1015 LINE",
"300.8 1020 LINE",
"300.8 1025 LINE",
"300.8 1030 LINE",
"300.8 1035 LINE",
"300.8 1040 LINE",
"300.8 1045 LINE",
"300.8 1050 LINE",
"300.8 1055 LINE",
"300.8 1060 LINE",
"300.8 1065 LINE",
"300.8 1070 LINE",
"300.8 1075 LINE",
"300.8 1080 LINE",
"300.8 1085 LINE",
"300.8 1090 LINE",
"300.8 1095 LINE",
"300.8 1100 LINE",
"300.8 1105 LINE",
"300.8 1110 LINE",
"300.8 1115 LINE",
"300.8 1120 LINE",
"300.8 1125 LINE",
"300.8 1130 LINE",
"300.8 1135 LINE",
"300.8 1140 LINE",
"300.8 1145 LINE",
"300.8 1150 LINE",
"300.8 1155 LINE",
"300.8 1160 LINE",
"300.8 1165 LINE",
"300.8 1170 LINE",
"300.8 1175 LINE",
"300.8 1180 LINE",
"300.8 1185 LINE",
"300.8 1190 LINE",
"300.8 1195 LINE",
"300.8 1200 LINE",
"300.8 1205 LINE",
"300.8 1210 LINE",
"300.8 1215 LINE",
"300.8 1220 LINE",
"300.8 1225 LINE",
"300.8 1230 LINE",
"300.8 1235 LINE",
"300.8 1240 LINE",
"300.8 1245 LINE",
"300.8 1250 LINE",
"300.8 1255 LINE",
"300.8 1260 LINE",
"300.8 1265 LINE",
"300.8 1270 LINE",
"300.8 1275 LINE",
"300.8 1280 LINE",
"300.8 1285 LINE",
"300.8 1290 LINE",
"300.8 1295 LINE",
"300.8 1300 LINE",
"300.8 1305 LINE",
"300.8 1310 LINE",
"300.8 1315 LINE",
"300.8 1320 LINE",
"300.8 1325 LINE",
"300.8 1330 LINE",
"300.8 1335 LINE",
"300.8 1340 LINE",
"300.8 1345 LINE",
"300.8 1350 LINE",
"300.8 1355 LINE",
"300.8 1360 LINE",
"300.8 1365 LINE",
"300.8 1370 LINE",
"300.8 1375 LINE",
"300.8 1380 LINE",
"300.8 1385 LINE",
"300.8 1390 LINE",
"300.8 1395 LINE",
"300.8 1400 LINE",
"300.8 1405 LINE",
"300.8 1410 LINE",
"300.8 1415 LINE",
"300.8 1420 LINE",
"300.8 1425 LINE",
"300.8 1430 LINE",
"300.8 1435 LINE",
"300.8 1440 LINE",
"300.8 1445 LINE",
"300.8 1450 LINE",
"300.8 1455 LINE",
"300.8 1460 LINE",
"300.8 1465 LINE",
"300.8 1470 LINE",
"96 1472 LINE"
);
},
{
closed = 1;
nodes = (
"1165.816 0 LINE",
"1154 0 LINE",
"1154 5 LINE",
"1154 10 LINE",
"1154 15 LINE",
"1154 20 LINE",
"1154 25 LINE",
"1154 30 LINE",
"1154 35 LINE",
"1154 40 LINE",
"1154 45 LINE",
"1154 50 LINE",
"1154 55 LINE",
"1154 60 LINE",
"1154 65 LINE",
"1154 70 LINE",
"1154 75 LINE",
"1154 80 LINE",
"1154 85 LINE",
"1154 90 LINE",
"1154 95 LINE",
"1154 100 LINE",
"1154 105 LINE",
"1154 110 LINE",
"1154 115 LINE",
"1154 120 LINE",
"1154 125 LINE",
"1154 130 LINE",
"1154 135 LINE",
"1154 140 LINE",
"1154 145 LINE",
"1154 150 LINE",
"1154 155 LINE",
"1154 160 LINE",
"1154 165 LINE",
"1154 170 LINE",
"1149 175 LINE",
"1144 180 LINE",
"1139 185 LINE",
"1134 190 LINE",
"1129 195 LINE",
"1124 200 LINE",
"1119 205 LINE",
"1114 210 LINE",
"1109 215 LINE",
"1104 220 LINE",
"1099 225 LINE",
"1094 230 LINE",
"1089 235 LINE",
"1084 240 LINE",
"1079 245 LINE",
"1074 250 LINE",
"1069 255 LINE",
"1064 260 LINE",
"1059 265 LINE",
"1054 270 LINE",
"1049 275 LINE",
"1044 280 LINE",
"1039 285 LINE",
"1034 290 LINE",
"1029 295 LINE",
"1024 300 LINE",
"1019 305 LINE",
"1014 310 LINE",
"1009 315 LINE",
"1004 320 LINE",
"999 325 LINE",
"994 330 LINE",
"989 335 LINE",
"984 340 LINE",
"979 345 LINE",
"974 350 LINE",
"969 355 LINE",
"964 360 LINE",
"961.016 365 LINE",
"961.016 370 LINE",
"961.016 375 LINE",
"961.016 380 LINE",
"961.016 385 LINE",
"961.016 390 LINE",
"961.016 395 LINE",
"961.016 400 LINE",
"961.016 405 LINE",
"961.016 410 LINE",
"961.016 415 LINE",
"961.016 420 LINE",
"961.016 425 LINE",
"961.016 430 LINE",
"961.016 435 LINE",
"961.016 440 LINE",
"961.016 445 LINE",
"961.016 450 LINE",
"961.016 455 LINE",
"961.016 460 LINE",
"961.016 465 LINE",
"961.016 470 LINE",
"961.016 475 LINE",
"961.016 480 LINE",
"961.016 485 LINE",
"961.016 490 LINE",
"961.016 495 LINE",
"961.016 500 LINE",
"961.016 505 LINE",
"961.016 510 LINE",
"961.016 515 LINE",
"961.016 520 LINE",
"961.016 525 LINE",
"961.016 530 LINE",
"961.016 535 LINE",
"961.016 540 LINE",
"961.016 545 LINE",
"961.016 550 LINE",
"961.016 555 LINE",
"961.016 560 LINE",
"961.016 565 LINE",
"961.016 570 LINE",
"961.016 575 LINE",
"961.016 580 LINE",
"961.016 585 LINE",
"961.016 590 LINE",
"961.016 595 LINE",
"961.016 600 LINE",
"961.016 605 LINE",
"961.016 610 LINE",
"961.016 615 LINE",
"961.016 620 LINE",
"961.016 625 LINE",
"961.016 630 LINE",
"961.016 635 LINE",
"961.016 640 LINE",
"961.016 645 LINE",
"961.016 650 LINE",
"961.016 655 LINE",
"961.016 660 LINE",
"961.016 665 LINE",
"961.016 670 LINE",
"961.016 675 LINE",
"961.016 680 LINE",
"961.016 685 LINE",
"961.016 690 LINE",
"961.016 695 LINE",
"961.016 700 LINE",
"961.016 705 LINE",
"961.016 710 LINE",
"961.016 715 LINE",
"961.016 720 LINE",
"961.016 725 LINE",
"961.016 730 LINE",
"961.016 735 LINE",
"961.016 740 LINE",
"961.016 745 LINE",
"961.016 750 LINE",
"961.016 755 LINE",
"961.016 760 LINE",
"961.016 765 LINE",
"961.016 770 LINE",
"961.016 775 LINE",
"961.016 780 LINE",
"961.016 785 LINE",
"961.016 790 LINE",
"961.016 795 LINE",
"961.016 800 LINE",
"961.016 805 LINE",
"961.016 810 LINE",
"961.016 815 LINE",
"961.016 820 LINE",
"961.016 825 LINE",
"961.016 830 LINE",
"961.016 835 LINE",
"965.816 840 LINE",
"970.816 845 LINE",
"975.816 850 LINE",
"980.816 855 LINE",
"985.816 860 LINE",
"990.816 865 LINE",
"995.816 870 LINE",
"1000.816 875 LINE",
"1005.816 880 LINE",
"1010.816 885 LINE",
"1015.816 890 LINE",
"1020.816 895 LINE",
"1025.816 900 LINE",
"1030.816 905 LINE",
"1035.816 910 LINE",
"1040.816 915 LINE",
"1045.816 920 LINE",
"1050.816 925 LINE",
"1055.816 930 LINE",
"1060.816 935 LINE",
"1065.816 940 LINE",
"1070.816 945 LINE",
"1075.816 950 LINE",
"1080.816 955 LINE",
"1085.816 960 LINE",
"1090.816 965 LINE",
"1095.816 970 LINE",
"1100.816 975 LINE",
"1105.816 980 LINE",
"1110.816 985 LINE",
"1115.816 990 LINE",
"1120.816 995 LINE",
"1125.816 1000 LINE",
"1130.816 1005 LINE",
"1135.816 1010 LINE",
"1140.816 1015 LINE",
"1145.816 1020 LINE",
"1150.816 1025 LINE",
"1155.816 1030 LINE",
"1160.816 1035 LINE",
"1165.816 1040 LINE",
"1165.685 1045 LINE",
"1165.518 1050 LINE",
"1165.315 1055 LINE",
"1165.076 1060 LINE",
"1164.8 1065 LINE",
"1164.486 1070 LINE",
"1164.135 1075 LINE",
"1163.745 1080 LINE",
"1163.316 1085 LINE",
"1162.848 1090 LINE",
"1162.339 1095 LINE",
"1161.79 1100 LINE",
"1161.199 1105 LINE",
"1160.565 1110 LINE",
"1159.889 1115 LINE",
"1159.17 1120 LINE",
"1158.405 1125 LINE",
"1157.596 1130 LINE",
"1156.741 1135 LINE",
"1155.839 1140 LINE",
"1154.89 1145 LINE",
"1153.892 1150 LINE",
"1152.845 1155 LINE",
"1151.747 1160 LINE",
"1150.598 1165 LINE",
"1149.396 1170 LINE",
"1148.141 1175 LINE",
"1146.832 1180 LINE",
"1145.467 1185 LINE",
"1144.044 1190 LINE",
"1142.564 1195 LINE",
"1141.023 1200 LINE",
"1139.422 1205 LINE",
"1137.758 1210 LINE",
"1136.031 1215 LINE",
"1134.237 1220 LINE",
"1132.377 1225 LINE",
"1130.447 1230 LINE",
"1128.446 1235 LINE",
"1126.373 1240 LINE",
"1124.224 1245 LINE",
"1121.999 1250 LINE",
"1119.694 1255 LINE",
"1117.307 1260 LINE",
"1114.836 1265 LINE",
"1112.278 1270 LINE",
"1109.629 1275 LINE",
"1106.888 1280 LINE",
"1104.05 1285 LINE",
"1101.113 1290 LINE",
"1098.072 1295 LINE",
"1094.923 1300 LINE",
"1091.663 1305 LINE",
"1088.286 1310 LINE",
"1084.788 1315 LINE",
"1081.163 1320 LINE",
"1077.406 1325 LINE",
"1073.51 1330 LINE",
"1069.469 1335 LINE",
"1065.274 1340 LINE",
"1060.919 1345 LINE",
"1056.393 1350 LINE",
"1051.687 1355 LINE",
"1046.791 1360 LINE",
"1041.791 1365 LINE",
"1036.791 1370 LINE",
"1031.791 1375 LINE",
"1026.791 1380 LINE",
"1021.791 1385 LINE",
"1016.791 1390 LINE",
"1011.791 1395 LINE",
"1006.791 1400 LINE",
"1001.791 1405 LINE",
"996.791 1410 LINE",
"991.791 1415 LINE",
"986.791 1420 LINE",
"981.791 1425 LINE",
"976.791 1430 LINE",
"971.791 1435 LINE",
"966.791 1440 LINE",
"961.791 1445 LINE",
"961.016 1450 LINE",
"961.016 1455 LINE",
"961.016 1460 LINE",
"961.016 1465 LINE",
"961.016 1470 LINE",
"1165.816 1472 LINE"
);
}
);
width = 1264;
}
);
},
